{
.appVersion = "3079";
classes = (
{
automatic = 1;

glyphs = (
{
color = 6;
glyphname = A;
lastChange = "2021-04-27 15:17:24 +0000";
layers = (
{
anchors = (
{
name = bottom;
position = "{470, 0}";
},
{
name = ogonek;
position = "{745, 0}";
},
{
name = top;
position = "{470, 1400}";
}
);
layerId = "0B87BBC7-D91E-4FE2-8C5B-3F1AF694BBA3";
paths = (
{
closed = 1;
nodes = (
"382 0 LINE",
"382 412 LINE",
"556 412 LINE",
"556 0 LINE",
"838 0 LINE",
"838 1194 LINE",
"632 1400 LINE",
"306 1400 LINE",
"100 1194 LINE",
"100 0 LINE"
);
},
{
closed = 1;
nodes = (
"232 1137 LINE",
"376 1281 LINE",
"567 1281 LINE",
"711 1137 LINE",
"711 138 LINE",
"683 138 LINE",
"683 536 LINE",
"260 536 LINE",
"260 138 LINE",
"232 138 LINE"
);
},
{
closed = 1;
nodes = (
"382 1056 LINE",
"443 1117 LINE",
"495 1117 LINE",
"556 1056 LINE",
"556 694 LINE",
"382 694 LINE"
);
},
{
closed = 1;
nodes = (
"683 564 LINE",
"683 1129 LINE",
"557 1253 LINE",
"386 1253 LINE",
"260 1129 LINE",
"260 564 LINE"
);
}
);
width = 938;
},
{
anchors = (
{
name = bottom;
position = "{470, 0}";
},
{
name = ogonek;
position = "{970, 10}";
},
{
name = top;
position = "{470, 1400}";
}
);
layerId = "5C9A105A-DAE9-444D-816C-282B7EF25764";
paths = (
{
closed = 1;
nodes = (
"382 0 LINE",
"382 412 LINE",
"556 412 LINE",
"556 0 LINE",
"838 0 LINE",
"838 1194 LINE",
"632 1400 LINE",
"306 1400 LINE",
"100 1194 LINE",
"100 0 LINE"
);
},
{
closed = 1;
nodes = (
"127 1183 LINE",
"317 1373 LINE",
"621 1373 LINE",
"812 1183 LINE",
"812 27 LINE",
"583 27 LINE",
"583 438 LINE",
"355 438 LINE",
"355 27 LINE",
"127 27 LINE"
);
},
{
closed = 1;
nodes = (
"382 1056 LINE",
"443 1117 LINE",
"495 1117 LINE",
"556 1056 LINE",
"556 694 LINE",
"382 694 LINE"
);
},
{
closed = 1;
nodes = (
"583 667 LINE",
"583 1067 LINE",
"506 1144 LINE",
"432 1144 LINE",
"355 1067 LINE",
"355 667 LINE"
);
}
);
width = 938;
},
{
anchors = (
{
name = bottom;
position = "{470, 0}";
},
{
name = ogonek;
position = "{970, 0}";
},
{
name = top;
position = "{470, 1400}";
}
);
layerId = "F883F2BF-97BC-4587-9596-6665658F6F40";
paths = (
{
closed = 1;
nodes = (
"382 0 LINE",
"382 412 LINE",
"556 412 LINE",
"556 0 LINE",
"838 0 LINE",
"838 1194 LINE",
"632 1400 LINE",
"306 1400 LINE",
"100 1194 LINE",
"100 0 LINE"
);
},
{
closed = 1;
nodes = (
"241 1135 LINE",
"366 1259 LINE",
"576 1259 LINE",
"701 1135 LINE",
"701 142 LINE",
"702 142 LINE",
"702 549 LINE",
"240 549 LINE",
"240 142 LINE",
"241 142 LINE"
);
},
{
closed = 1;
nodes = (
"382 1056 LINE",
"443 1117 LINE",
"495 1117 LINE",
"556 1056 LINE",
"556 694 LINE",
"382 694 LINE"
);
},
{
closed = 1;
nodes = (
"702 548 LINE",
"702 1135 LINE",
"576 1260 LINE",
"366 1260 LINE",
"240 1135 LINE",
"240 548 LINE"
);
}
);
width = 938;
},
{
anchors = (
{
name = bottom;
position = "{820, 0}";
},
{
name = ogonek;
position = "{1320, 10}";
},
{
name = top;
position = "{820, 1400}";
}
);
layerId = "DDC1C77E-A6A2-4CE9-BB8A-1D9C0DC11BA6";
paths = (
{
closed = 1;
nodes = (
"412 0 LINE",
"412 412 LINE",
"1226 412 LINE",
"1226 0 LINE",
"1508 0 LINE",
"1508 1194 LINE",
"1302 1400 LINE",
"336 1400 LINE",
"130 1194 LINE",
"130 0 LINE"
);
},
{
closed = 1;
nodes = (
"157 1183 LINE",
"347 1373 LINE",
"1291 1373 LINE",
"1482 1183 LINE",
"1482 27 LINE",
"1253 27 LINE",
"1253 438 LINE",
"385 438 LINE",
"385 27 LINE",
"157 27 LINE"
);
},
{
closed = 1;
nodes = (
"412 1056 LINE",
"473 1117 LINE",
"1165 1117 LINE",
"1226 1056 LINE",
"1226 694 LINE",
"412 694 LINE"
);
},
{
closed = 1;
nodes = (
"1253 667 LINE",
"1253 1067 LINE",
"1176 1144 LINE",
"462 1144 LINE",
"385 1067 LINE",
"385 667 LINE"
);
}
);
width = 1638;
},
{
anchors = (
{
name = bottom;
position = "{820, 0}";
},
{
name = ogonek;
position = "{1320, 10}";
},
{
name = top;
position = "{820, 1400}";
}
);
layerId = "0A080BD2-62EB-4516-9B42-F4E1F6E1D6F2";
paths = (
{
closed = 1;
nodes = (
"412 0 LINE",
"412 412 LINE",
"1226 412 LINE",
"1226 0 LINE",
"1508 0 LINE",
"1508 1194 LINE",
"1302 1400 LINE",
"336 1400 LINE",
"130 1194 LINE",
"130 0 LINE"
);
},
{
closed = 1;
nodes = (
"262 1137 LINE",
"406 1281 LINE",
"1237 1281 LINE",
"1381 1137 LINE",
"1381 138 LINE",
"1353 138 LINE",
"1353 536 LINE",
"290 536 LINE",
"290 138 LINE",
"262 138 LINE"
);
},
{
closed = 1;
nodes = (
"412 1056 LINE",
"473 1117 LINE",
"1165 1117 LINE",
"1226 1056 LINE",
"1226 694 LINE",
"412 694 LINE"
);
},
{
closed = 1;
nodes = (
"1353 564 LINE",
"1353 1129 LINE",
"1227 1253 LINE",
"416 1253 LINE",
"290 1129 LINE",
"290 564 LINE"
);
}
);
width = 1638;
},
{
anchors = (
{
name = bottom;
position = "{820, 0}";
},
{
name = ogonek;
position = "{1320, 10}";
},
{
name = top;
position = "{820, 1400}";
}
);
layerId = "2B3778D7-DDED-4DCC-ADC4-D63709EF26D1";
paths = (
{
closed = 1;
nodes = (
"412 0 LINE",
"412 412 LINE",
"1226 412 LINE",
"1226 0 LINE",
"1508 0 LINE",
"1508 1194 LINE",
"1302 1400 LINE",
"336 1400 LINE",
"130 1194 LINE",
"130 0 LINE"
);
},
{
closed = 1;
nodes = (
"271 1135 LINE",
"396 1259 LINE",
"1246 1259 LINE",
"1371 1135 LINE",
"1371 142 LINE",
"1372 142 LINE",
"1372 549 LINE",
"270 549 LINE",
"270 142 LINE",
"271 142 LINE"
);
},
{
closed = 1;
nodes = (
"412 1056 LINE",
"473 1117 LINE",
"1165 1117 LINE",
"1226 1056 LINE",
"1226 694 LINE",
"412 694 LINE"
);
},
{
closed = 1;
nodes = (
"1372 548 LINE",
"1372 1135 LINE",
"1246 1260 LINE",
"396 1260 LINE",
"270 1135 LINE",
"270 548 LINE"
);
}
);
width = 1638;
}
);
leftKerningGroup = H;
leftMetricsKey = O;
rightKerningGroup = H;
rightMetricsKey = O;
unicode = 0041;
},
{
color = 6;
glyphname = A.ss01;
lastChange = "2021-04-27 15:17:24 +0000";
layers = (
{
anchors = (
{
name = bottom;
position = "{483, 0}";
},
{
name = ogonek;
position = "{953, 10}";
},
{
name = top;
position = "{483, 1400}";
}
);
layerId = "0B87BBC7-D91E-4FE2-8C5B-3F1AF694BBA3";
paths = (
{
closed = 1;
nodes = (
"372 0 LINE",
"401 296 LINE",
"574 296 LINE",
"604 0 LINE",
"926 0 LINE",
"732 1400 LINE",
"234 1400 LINE",
"50 0 LINE"
);
},
{
closed = 1;
nodes = (
"342 1272 LINE",
"628 1272 LINE",
"762 121 LINE",
"733 121 LINE",
"699 412 LINE",
"272 412 LINE",
"237 121 LINE",
"208 121 LINE"
);
},
{
closed = 1;
nodes = (
"696 440 LINE",
"603 1245 LINE",
"367 1245 LINE",
"275 440 LINE"
);
},
{
closed = 1;
nodes = (
"461 1116 LINE",
"501 1116 LINE",
"558 552 LINE",
"416 552 LINE"
);
}
);
width = 976;
},
{
anchors = (
{
name = bottom;
position = "{483, 0}";
},
{
name = ogonek;
position = "{953, 10}";
},
{
name = top;
position = "{483, 1400}";
}
);
layerId = "5C9A105A-DAE9-444D-816C-282B7EF25764";
paths = (
{
closed = 1;
nodes = (
"372 0 LINE",
"401 296 LINE",
"574 296 LINE",
"604 0 LINE",
"926 0 LINE",
"732 1400 LINE",
"234 1400 LINE",
"50 0 LINE"
);
},
{
closed = 1;
nodes = (
"258 1373 LINE",
"708 1373 LINE",
"890 27 LINE",
"633 27 LINE",
"601 324 LINE",
"373 324 LINE",
"343 27 LINE",
"86 27 LINE"
);
},
{
closed = 1;
nodes = (
"591 524 LINE",
"525 1145 LINE",
"437 1145 LINE",
"384 524 LINE"
);
},
{
closed = 1;
nodes = (
"461 1116 LINE",
"501 1116 LINE",
"558 552 LINE",
"416 552 LINE"
);
}
);
width = 976;
},
{
anchors = (
{
name = bottom;
position = "{483, 0}";
},
{
name = ogonek;
position = "{953, 10}";
},
{
name = top;
position = "{483, 1400}";
}
);
layerId = "F883F2BF-97BC-4587-9596-6665658F6F40";
paths = (
{
closed = 1;
nodes = (
"372 0 LINE",
"401 296 LINE",
"574 296 LINE",
"604 0 LINE",
"926 0 LINE",
"732 1400 LINE",
"234 1400 LINE",
"50 0 LINE"
);
},
{
closed = 1;
nodes = (
"355 1259 LINE",
"615 1259 LINE",
"749 121 LINE",
"749 121 LINE",
"716 412 LINE",
"255 412 LINE",
"221 121 LINE",
"221 121 LINE"
);
},
{
closed = 1;
nodes = (
"716 412 LINE",
"615 1259 LINE",
"355 1259 LINE",
"255 412 LINE"
);
},
{
closed = 1;
nodes = (
"461 1116 LINE",
"501 1116 LINE",
"558 552 LINE",
"416 552 LINE"
);
}
);
width = 976;
},
{
anchors = (
{
name = bottom;
position = "{823, 0}";
},
{
name = ogonek;
position = "{1293, 10}";
},
{
name = top;
position = "{823, 1400}";
}
);
layerId = "DDC1C77E-A6A2-4CE9-BB8A-1D9C0DC11BA6";
paths = (
{
closed = 1;
nodes = (
"339 0 LINE",
"453 296 LINE",
"1192 296 LINE",
"1307 0 LINE",
"1636 0 LINE",
"1082 1400 LINE",
"564 1400 LINE",
"10 0 LINE"
);
},
{
closed = 1;
nodes = (
"584 1373 LINE",
"1062 1373 LINE",
"1596 27 LINE",
"1328 27 LINE",
"1213 324 LINE",
"432 324 LINE",
"318 27 LINE",
"50 27 LINE"
);
},
{
closed = 1;
nodes = (
"1137 524 LINE",
"897 1145 LINE",
"745 1145 LINE",
"508 524 LINE"
);
},
{
closed = 1;
nodes = (
"764 1116 LINE",
"878 1116 LINE",
"1096 552 LINE",
"549 552 LINE"
);
}
);
width = 1646;
},
{
anchors = (
{
name = bottom;
position = "{821, 0}";
},
{
name = ogonek;
position = "{1058, 10}";
},
{
name = top;
position = "{819, 1400}";
}
);
layerId = "0A080BD2-62EB-4516-9B42-F4E1F6E1D6F2";
paths = (
{
closed = 1;
nodes = (
"339 0 LINE",
"453 296 LINE",
"1192 296 LINE",
"1307 0 LINE",
"1636 0 LINE",
"1082 1400 LINE",
"564 1400 LINE",
"10 0 LINE"
);
},
{
closed = 1;
nodes = (
"663 1273 LINE",
"983 1273 LINE",
"1453 121 LINE",
"1423 121 LINE",
"1305 412 LINE",
"353 412 LINE",
"238 121 LINE",
"208 121 LINE"
);
},
{
closed = 1;
nodes = (
"1294 440 LINE",
"965 1246 LINE",
"681 1246 LINE",
"364 440 LINE"
);
},
{
closed = 1;
nodes = (
"764 1116 LINE",
"878 1116 LINE",
"1096 552 LINE",
"549 552 LINE"
);
}
);
width = 1646;
},
{
anchors = (
{
name = bottom;
position = "{823, 0}";
},
{
name = ogonek;
position = "{1481, 10}";
},
{
name = top;
position = "{823, 1400}";
}
);
layerId = "2B3778D7-DDED-4DCC-ADC4-D63709EF26D1";
paths = (
{
closed = 1;
nodes = (
"339 0 LINE",
"453 296 LINE",
"1192 296 LINE",
"1307 0 LINE",
"1636 0 LINE",
"1082 1400 LINE",
"564 1400 LINE",
"10 0 LINE"
);
},
{
closed = 1;
nodes = (
"676 1260 LINE",
"969 1260 LINE",
"1439 121 LINE",
"1439 121 LINE",
"1315 427 LINE",
"342 427 LINE",
"221 121 LINE",
"221 121 LINE"
);
},
{
closed = 1;
nodes = (
"1315 427 LINE",
"969 1260 LINE",
"676 1260 LINE",
"342 427 LINE"
);
},
{
closed = 1;
nodes = (
"764 1116 LINE",
"878 1116 LINE",
"1096 552 LINE",
"549 552 LINE"
);
}
);
width = 1646;
}
);
leftKerningGroup = A;
rightKerningGroup = A;
},
{
color = 6;
glyphname = Aogonek;
lastChange = "2021-04-27 15:17:23 +0000";
layers = (
{
layerId = "F883F2BF-97BC-4587-9596-6665658F6F40";
paths = (
{
closed = 1;
nodes = (
"1144 -369 LINE",
"1144 -212 LINE",
"909 -212 LINE",
"879 -180 LINE",
"1059 0 LINE",
"1111 0 LINE",
"807 1400 LINE",
"309 1400 LINE",
"5 0 LINE",
"304 0 LINE",
"363 296 LINE",
"752 296 LINE",
"812 0 LINE",
"838 0 LINE",
"676 -180 LINE",
"839 -369 LINE"
);
},
{
closed = 1;
nodes = (
"777 -180 LINE",
"964 15 LINE",
"964 15 LINE",
"879 426 LINE",
"237 426 LINE",
"173 121 LINE",
"173 121 LINE",
"421 1273 LINE",
"696 1273 LINE",
"964 15 LINE",
"964 15 LINE",
"777 -180 LINE",
"882 -294 LINE",
"1064 -294 LINE",
"1064 -294 LINE",
"882 -294 LINE"
);
},
{
closed = 1;
nodes = (
"879 426 LINE",
"696 1273 LINE",
"421 1273 LINE",
"237 426 LINE"
);
},
{
closed = 1;
nodes = (
"526 1116 LINE",
"586 1116 LINE",
"700 552 LINE",
"414 552 LINE"
);
}
);
width = 1134;
},
{
layerId = "0B87BBC7-D91E-4FE2-8C5B-3F1AF694BBA3";
paths = (
{
closed = 1;
nodes = (
"1144 -369 LINE",
"1144 -212 LINE",
"909 -212 LINE",
"879 -180 LINE",
"1059 0 LINE",
"1111 0 LINE",
"807 1400 LINE",
"309 1400 LINE",
"5 0 LINE",
"304 0 LINE",
"363 296 LINE",
"752 296 LINE",
"812 0 LINE",
"838 0 LINE",
"676 -180 LINE",
"839 -369 LINE"
);
},
{
closed = 1;
nodes = (
"762 -180 LINE",
"949 17 LINE",
"949 17 LINE",
"868 412 LINE",
"252 412 LINE",
"192 121 LINE",
"162 121 LINE",
"410 1285 LINE",
"710 1285 LINE",
"981 14 LINE",
"981 14 LINE",
"798 -180 LINE",
"885 -277 LINE",
"1084 -277 LINE",
"1084 -304 LINE",
"872 -304 LINE"
);
},
{
closed = 1;
nodes = (
"862 440 LINE",
"690 1263 LINE",
"430 1263 LINE",
"258 440 LINE"
);
},
{
closed = 1;
nodes = (
"526 1116 LINE",
"586 1116 LINE",
"700 552 LINE",
"414 552 LINE"
);
}
);
width = 1134;
},
{
layerId = "5C9A105A-DAE9-444D-816C-282B7EF25764";
paths = (
{
closed = 1;
nodes = (
"1144 -369 LINE",
"1144 -212 LINE",
"909 -212 LINE",
"879 -180 LINE",
"1059 0 LINE",
"1111 0 LINE",
"807 1400 LINE",
"309 1400 LINE",
"5 0 LINE",
"304 0 LINE",
"363 296 LINE",
"752 296 LINE",
"812 0 LINE",
"838 0 LINE",
"676 -180 LINE",
"839 -369 LINE"
);
},
{
closed = 1;
nodes = (
"713 -180 LINE",
"901 27 LINE",
"837 27 LINE",
"776 324 LINE",
"338 324 LINE",
"279 27 LINE",
"41 27 LINE",
"329 1373 LINE",
"787 1373 LINE",
"1075 27 LINE",
"1047 27 LINE",
"839 -180 LINE",
"896 -239 LINE",
"1118 -239 LINE",
"1118 -342 LINE",
"855 -342 LINE"
);
},
{
closed = 1;
nodes = (
"736 524 LINE",
"610 1145 LINE",
"502 1145 LINE",
"379 524 LINE"
);
},
{
closed = 1;
nodes = (
"526 1116 LINE",
"586 1116 LINE",
"700 552 LINE",
"414 552 LINE"
);
}
);
width = 1134;
},
{
layerId = "DDC1C77E-A6A2-4CE9-BB8A-1D9C0DC11BA6";
paths = (
{
closed = 1;
nodes = (
"1174 -369 LINE",
"1174 -212 LINE",
"939 -212 LINE",
"909 -180 LINE",
"1089 0 LINE",
"1141 0 LINE",
"837 1400 LINE",
"339 1400 LINE",
"35 0 LINE",
"334 0 LINE",
"393 296 LINE",
"782 296 LINE",
"842 0 LINE",
"868 0 LINE",
"706 -180 LINE",
"869 -369 LINE"
);
},
{
closed = 1;
nodes = (
"743 -180 LINE",
"931 27 LINE",
"867 27 LINE",
"806 324 LINE",
"368 324 LINE",
"309 27 LINE",
"71 27 LINE",
"359 1373 LINE",
"817 1373 LINE",
"1105 27 LINE",
"1077 27 LINE",
"869 -180 LINE",
"926 -239 LINE",
"1148 -239 LINE",
"1148 -342 LINE",
"885 -342 LINE"
);
},
{
closed = 1;
nodes = (
"766 524 LINE",
"640 1145 LINE",
"532 1145 LINE",
"409 524 LINE"
);
},
{
closed = 1;
nodes = (
"556 1116 LINE",
"616 1116 LINE",
"730 552 LINE",
"444 552 LINE"
);
}
);
width = 1194;
},
{
layerId = "0A080BD2-62EB-4516-9B42-F4E1F6E1D6F2";
paths = (
{
closed = 1;
nodes = (
"1174 -369 LINE",
"1174 -212 LINE",
"939 -212 LINE",
"909 -180 LINE",
"1089 0 LINE",
"1141 0 LINE",
"837 1400 LINE",
"339 1400 LINE",
"35 0 LINE",
"334 0 LINE",
"393 296 LINE",
"782 296 LINE",
"842 0 LINE",
"868 0 LINE",
"706 -180 LINE",
"869 -369 LINE"
);
},
{
closed = 1;
nodes = (
"792 -180 LINE",
"979 17 LINE",
"979 17 LINE",
"898 412 LINE",
"282 412 LINE",
"222 121 LINE",
"192 121 LINE",
"440 1285 LINE",
"740 1285 LINE",
"1011 14 LINE",
"1011 14 LINE",
"828 -180 LINE",
"915 -277 LINE",
"1114 -277 LINE",
"1114 -304 LINE",
"902 -304 LINE"
);
},
{
closed = 1;
nodes = (
"892 440 LINE",
"720 1263 LINE",
"460 1263 LINE",
"288 440 LINE"
);
},
{
closed = 1;
nodes = (
"556 1116 LINE",
"616 1116 LINE",
"730 552 LINE",
"444 552 LINE"
);
}
);
width = 1194;
},
{
layerId = "2B3778D7-DDED-4DCC-ADC4-D63709EF26D1";
paths = (
{
closed = 1;
nodes = (
"1174 -369 LINE",
"1174 -212 LINE",
"939 -212 LINE",
"909 -180 LINE",
"1089 0 LINE",
"1141 0 LINE",
"837 1400 LINE",
"339 1400 LINE",
"35 0 LINE",
"334 0 LINE",
"393 296 LINE",
"782 296 LINE",
"842 0 LINE",
"868 0 LINE",
"706 -180 LINE",
"869 -369 LINE"
);
},
{
closed = 1;
nodes = (
"807 -180 LINE",
"994 15 LINE",
"994 15 LINE",
"909 426 LINE",
"267 426 LINE",
"203 121 LINE",
"203 121 LINE",
"451 1273 LINE",
"726 1273 LINE",
"994 15 LINE",
"994 15 LINE",
"807 -180 LINE",
"912 -294 LINE",
"1094 -294 LINE",
"1094 -294 LINE",
"912 -294 LINE"
);
},
{
closed = 1;
nodes = (
"909 426 LINE",
"726 1273 LINE",
"451 1273 LINE",
"267 426 LINE"
);
},
{
closed = 1;
nodes = (
"556 1116 LINE",
"616 1116 LINE",
"730 552 LINE",
"444 552 LINE"
);
}
);
width = 1194;
}
);
unicode = 0104;
},
{
color = 6;
glyphname = AE;
lastChange = "2021-04-27 15:17:25 +0000";
layers = (
{
anchors = (
{
name = bottom;
position = "{952, 0}";
},
{
name = top;
position = "{952, 1400}";
}
);
layerId = "0B87BBC7-D91E-4FE2-8C5B-3F1AF694BBA3";
paths = (
{
closed = 1;
nodes = (
"322 0 LINE",
"495 412 LINE",
"924 412 LINE",
"924 0 LINE",
"1757 0 LINE",
"1757 283 LINE",
"1207 283 LINE",
"1207 565 LINE",
"1719 565 LINE",
"1719 848 LINE",
"1207 848 LINE",
"1207 1117 LINE",
"1757 1117 LINE",
"1757 1400 LINE",
"610 1400 LINE",
"15 0 LINE"
);
},
{
closed = 1;
nodes = (
"696 1296 LINE",
"1660 1296 LINE",
"1660 1268 LINE",
"1081 1268 LINE",
"1081 724 LINE",
"1620 724 LINE",
"1620 696 LINE",
"1081 696 LINE",
"1081 140 LINE",
"1660 140 LINE",
"1660 112 LINE",
"1053 112 LINE",
"1053 532 LINE",
"389 532 LINE",
"204 112 LINE",
"174 112 LINE"
);
},
{
closed = 1;
nodes = (
"1053 560 LINE",
"1053 1268 LINE",
"714 1268 LINE",
"402 560 LINE"
);
},
{
closed = 1;
nodes = (
"791 1117 LINE",
"924 1117 LINE",
"924 694 LINE",
"611 694 LINE"
);
}
);
width = 1904;
},
{
anchors = (
{
name = bottom;
position = "{952, 0}";
},
{
name = top;
position = "{952, 1400}";
}
);
layerId = "5C9A105A-DAE9-444D-816C-282B7EF25764";
paths = (
{
closed = 1;
nodes = (
"322 0 LINE",
"495 412 LINE",
"924 412 LINE",
"924 0 LINE",
"1757 0 LINE",
"1757 283 LINE",
"1207 283 LINE",
"1207 565 LINE",
"1719 565 LINE",
"1719 848 LINE",
"1207 848 LINE",
"1207 1117 LINE",
"1757 1117 LINE",
"1757 1400 LINE",
"610 1400 LINE",
"15 0 LINE"
);
},
{
closed = 1;
nodes = (
"628 1373 LINE",
"1730 1373 LINE",
"1730 1144 LINE",
"1180 1144 LINE",
"1180 821 LINE",
"1692 821 LINE",
"1692 592 LINE",
"1180 592 LINE",
"1180 256 LINE",
"1730 256 LINE",
"1730 27 LINE",
"951 27 LINE",
"951 438 LINE",
"476 438 LINE",
"303 27 LINE",
"55 27 LINE"
);
},
{
closed = 1;
nodes = (
"951 667 LINE",
"951 1144 LINE",
"773 1144 LINE",
"571 667 LINE"
);
},
{
closed = 1;
nodes = (
"791 1117 LINE",
"924 1117 LINE",
"924 694 LINE",
"611 694 LINE"
);
}
);
width = 1904;
},
{
anchors = (
{
name = bottom;
position = "{952, 0}";
},
{
name = top;
position = "{952, 1400}";
}
);
layerId = "F883F2BF-97BC-4587-9596-6665658F6F40";
paths = (
{
closed = 1;
nodes = (
"322 0 LINE",
"495 412 LINE",
"924 412 LINE",
"924 0 LINE",
"1757 0 LINE",
"1757 283 LINE",
"1207 283 LINE",
"1207 565 LINE",
"1719 565 LINE",
"1719 848 LINE",
"1207 848 LINE",
"1207 1117 LINE",
"1757 1117 LINE",
"1757 1400 LINE",
"610 1400 LINE",
"15 0 LINE"
);
},
{
closed = 1;
nodes = (
"702 1274 LINE",
"1660 1274 LINE",
"1660 1275 LINE",
"1077 1275 LINE",
"1077 713 LINE",
"1620 713 LINE",
"1620 714 LINE",
"1077 714 LINE",
"1077 126 LINE",
"1660 126 LINE",
"1660 127 LINE",
"1078 127 LINE",
"1078 547 LINE",
"379 547 LINE",
"188 112 LINE",
"189 112 LINE"
);
},
{
closed = 1;
nodes = (
"1078 546 LINE",
"1078 1275 LINE",
"703 1275 LINE",
"380 546 LINE"
);
},
{
closed = 1;
nodes = (
"791 1117 LINE",
"924 1117 LINE",
"924 694 LINE",
"611 694 LINE"
);
}
);
width = 1904;
},
{
anchors = (
{
name = bottom;
position = "{982, 0}";
},
{
name = top;
position = "{982, 1400}";
}
);
layerId = "DDC1C77E-A6A2-4CE9-BB8A-1D9C0DC11BA6";
paths = (
{
closed = 1;
nodes = (
"352 0 LINE",
"525 412 LINE",
"954 412 LINE",
"954 0 LINE",
"1787 0 LINE",
"1787 283 LINE",
"1237 283 LINE",
"1237 565 LINE",
"1749 565 LINE",
"1749 848 LINE",
"1237 848 LINE",
"1237 1117 LINE",
"1787 1117 LINE",
"1787 1400 LINE",
"640 1400 LINE",
"45 0 LINE"
);
},
{
closed = 1;
nodes = (
"658 1373 LINE",
"1760 1373 LINE",
"1760 1144 LINE",
"1210 1144 LINE",
"1210 821 LINE",
"1722 821 LINE",
"1722 592 LINE",
"1210 592 LINE",
"1210 256 LINE",
"1760 256 LINE",
"1760 27 LINE",
"981 27 LINE",
"981 438 LINE",
"506 438 LINE",
"333 27 LINE",
"85 27 LINE"
);
},
{
closed = 1;
nodes = (
"981 667 LINE",
"981 1144 LINE",
"803 1144 LINE",
"601 667 LINE"
);
},
{
closed = 1;
nodes = (
"821 1117 LINE",
"954 1117 LINE",
"954 694 LINE",
"641 694 LINE"
);
}
);
width = 1964;
},
{
anchors = (
{
name = bottom;
position = "{982, 0}";
},
{
name = top;
position = "{982, 1400}";
}
);
layerId = "0A080BD2-62EB-4516-9B42-F4E1F6E1D6F2";
paths = (
{
closed = 1;
nodes = (
"352 0 LINE",
"525 412 LINE",
"954 412 LINE",
"954 0 LINE",
"1787 0 LINE",
"1787 283 LINE",
"1237 283 LINE",
"1237 565 LINE",
"1749 565 LINE",
"1749 848 LINE",
"1237 848 LINE",
"1237 1117 LINE",
"1787 1117 LINE",
"1787 1400 LINE",
"640 1400 LINE",
"45 0 LINE"
);
},
{
closed = 1;
nodes = (
"726 1296 LINE",
"1690 1296 LINE",
"1690 1268 LINE",
"1111 1268 LINE",
"1111 724 LINE",
"1650 724 LINE",
"1650 696 LINE",
"1111 696 LINE",
"1111 140 LINE",
"1690 140 LINE",
"1690 112 LINE",
"1083 112 LINE",
"1083 532 LINE",
"419 532 LINE",
"234 112 LINE",
"204 112 LINE"
);
},
{
closed = 1;
nodes = (
"1083 560 LINE",
"1083 1268 LINE",
"744 1268 LINE",
"432 560 LINE"
);
},
{
closed = 1;
nodes = (
"821 1117 LINE",
"954 1117 LINE",
"954 694 LINE",
"641 694 LINE"
);
}
);
width = 1964;
},
{
anchors = (
{
name = bottom;
position = "{982, 0}";
},
{
name = top;
position = "{982, 1400}";
}
);
layerId = "2B3778D7-DDED-4DCC-ADC4-D63709EF26D1";
paths = (
{
closed = 1;
nodes = (
"352 0 LINE",
"525 412 LINE",
"954 412 LINE",
"954 0 LINE",
"1787 0 LINE",
"1787 283 LINE",
"1237 283 LINE",
"1237 565 LINE",
"1749 565 LINE",
"1749 848 LINE",
"1237 848 LINE",
"1237 1117 LINE",
"1787 1117 LINE",
"1787 1400 LINE",
"640 1400 LINE",
"45 0 LINE"
);
},
{
closed = 1;
nodes = (
"732 1274 LINE",
"1690 1274 LINE",
"1690 1275 LINE",
"1107 1275 LINE",
"1107 713 LINE",
"1650 713 LINE",
"1650 714 LINE",
"1107 714 LINE",
"1107 126 LINE",
"1690 126 LINE",
"1690 127 LINE",
"1108 127 LINE",
"1108 547 LINE",
"409 547 LINE",
"218 112 LINE",
"219 112 LINE"
);
},
{
closed = 1;
nodes = (
"1108 546 LINE",
"1108 1275 LINE",
"733 1275 LINE",
"410 546 LINE"
);
},
{
closed = 1;
nodes = (
"821 1117 LINE",
"954 1117 LINE",
"954 694 LINE",
"641 694 LINE"
);
}
);
width = 1964;
}
);
leftKerningGroup = A;
rightKerningGroup = E;
unicode = 00C6;
},
{
color = 6;
glyphname = B;
lastChange = "2021-04-27 15:17:24 +0000";
layers = (
{
anchors = (
{
name = bottom;
position = "{466, 0}";
},
{
name = top;
position = "{466, 1400}";
}
);
layerId = "0B87BBC7-D91E-4FE2-8C5B-3F1AF694BBA3";
paths = (
{
closed = 1;
nodes = (
"670 0 LINE",
"876 206 LINE",
"876 613 LINE",
"742 748 LINE",
"831 837 LINE",
"831 1194 LINE",
"625 1400 LINE",
"110 1400 LINE",
"110 0 LINE"
);
},
{
closed = 1;
nodes = (
"244 1280 LINE",
"557 1280 LINE",
"701 1136 LINE",
"701 886 LINE",
"547 732 LINE",
"583 732 LINE",
"749 566 LINE",
"749 272 LINE",
"601 124 LINE",
"244 124 LINE"
);
},
{
closed = 1;
nodes = (
"591 152 LINE",
"721 280 LINE",
"721 558 LINE",
"573 704 LINE",
"272 704 LINE",
"272 152 LINE"
);
},
{
closed = 1;
nodes = (
"509 732 LINE",
"673 894 LINE",
"673 1128 LINE",
"547 1252 LINE",
"272 1252 LINE",
"272 732 LINE"
);
},
{
closed = 1;
nodes = (
"393 573 LINE",
"505 573 LINE",
"593 485 LINE",
"593 344 LINE",
"532 283 LINE",
"393 283 LINE"
);
},
{
closed = 1;
nodes = (
"393 1117 LINE",
"488 1117 LINE",
"549 1056 LINE",
"549 955 LINE",
"449 856 LINE",
"393 856 LINE"
);
}
);
width = 976;
},
{
anchors = (
{
name = bottom;
position = "{466, 0}";
},
{
name = top;
position = "{466, 1400}";
}
);
layerId = "5C9A105A-DAE9-444D-816C-282B7EF25764";
paths = (
{
closed = 1;
nodes = (
"670 0 LINE",
"876 206 LINE",
"876 613 LINE",
"742 748 LINE",
"831 837 LINE",
"831 1194 LINE",
"625 1400 LINE",
"110 1400 LINE",
"110 0 LINE"
);
},
{
closed = 1;
nodes = (
"137 1373 LINE",
"614 1373 LINE",
"805 1183 LINE",
"805 848 LINE",
"705 748 LINE",
"705 748 LINE",
"849 602 LINE",
"849 217 LINE",
"658 27 LINE",
"137 27 LINE"
);
},
{
closed = 1;
nodes = (
"543 256 LINE",
"620 333 LINE",
"620 496 LINE",
"516 600 LINE",
"366 600 LINE",
"366 256 LINE"
);
},
{
closed = 1;
nodes = (
"460 829 LINE",
"576 944 LINE",
"576 1067 LINE",
"499 1144 LINE",
"366 1144 LINE",
"366 829 LINE"
);
},
{
closed = 1;
nodes = (
"393 573 LINE",
"505 573 LINE",
"593 485 LINE",
"593 344 LINE",
"532 283 LINE",
"393 283 LINE"
);
},
{
closed = 1;
nodes = (
"393 1117 LINE",
"488 1117 LINE",
"549 1056 LINE",
"549 955 LINE",
"449 856 LINE",
"393 856 LINE"
);
}
);
width = 976;
},
{
anchors = (
{
name = bottom;
position = "{466, 0}";
},
{
name = top;
position = "{466, 1400}";
}
);
layerId = "F883F2BF-97BC-4587-9596-6665658F6F40";
paths = (
{
closed = 1;
nodes = (
"670 0 LINE",
"876 206 LINE",
"876 613 LINE",
"742 748 LINE",
"831 837 LINE",
"831 1194 LINE",
"625 1400 LINE",
"110 1400 LINE",
"110 0 LINE"
);
},
{
closed = 1;
nodes = (
"254 1263 LINE",
"561 1263 LINE",
"690 1119 LINE",
"690 914 LINE",
"510 712 LINE",
"577 712 LINE",
"733 556 LINE",
"733 286 LINE",
"585 138 LINE",
"254 138 LINE"
);
},
{
closed = 1;
nodes = (
"585 138 LINE",
"733 286 LINE",
"733 556 LINE",
"577 712 LINE",
"254 712 LINE",
"254 138 LINE"
);
},
{
closed = 1;
nodes = (
"510 712 LINE",
"690 914 LINE",
"690 1119 LINE",
"561 1263 LINE",
"254 1263 LINE",
"254 712 LINE"
);
},
{
closed = 1;
nodes = (
"393 573 LINE",
"505 573 LINE",
"593 485 LINE",
"593 344 LINE",
"532 283 LINE",
"393 283 LINE"
);
},
{
closed = 1;
nodes = (
"393 1117 LINE",
"488 1117 LINE",
"549 1056 LINE",
"549 955 LINE",
"449 856 LINE",
"393 856 LINE"
);
}
);
width = 976;
},
{
anchors = (
{
name = bottom;
position = "{816, 0}";
},
{
name = top;
position = "{816, 1400}";
}
);
layerId = "DDC1C77E-A6A2-4CE9-BB8A-1D9C0DC11BA6";
paths = (
{
closed = 1;
nodes = (
"1233 0 LINE",
"1439 206 LINE",
"1439 613 LINE",
"1305 748 LINE",
"1394 837 LINE",
"1394 1194 LINE",
"1188 1400 LINE",
"140 1400 LINE",
"140 0 LINE"
);
},
{
closed = 1;
nodes = (
"167 1373 LINE",
"1177 1373 LINE",
"1368 1183 LINE",
"1368 848 LINE",
"1268 748 LINE",
"1268 748 LINE",
"1412 602 LINE",
"1412 217 LINE",
"1221 27 LINE",
"167 27 LINE"
);
},
{
closed = 1;
nodes = (
"1106 256 LINE",
"1183 333 LINE",
"1183 496 LINE",
"1079 600 LINE",
"396 600 LINE",
"396 256 LINE"
);
},
{
closed = 1;
nodes = (
"1023 829 LINE",
"1139 944 LINE",
"1139 1067 LINE",
"1062 1144 LINE",
"396 1144 LINE",
"396 829 LINE"
);
},
{
closed = 1;
nodes = (
"423 573 LINE",
"1068 573 LINE",
"1156 485 LINE",
"1156 344 LINE",
"1095 283 LINE",
"423 283 LINE"
);
},
{
closed = 1;
nodes = (
"423 1117 LINE",
"1051 1117 LINE",
"1112 1056 LINE",
"1112 955 LINE",
"1012 856 LINE",
"423 856 LINE"
);
}
);
width = 1569;
},
{
anchors = (
{
name = bottom;
position = "{816, 0}";
},
{
name = top;
position = "{816, 1400}";
}
);
layerId = "0A080BD2-62EB-4516-9B42-F4E1F6E1D6F2";
paths = (
{
closed = 1;
nodes = (
"1233 0 LINE",
"1439 206 LINE",
"1439 613 LINE",
"1305 748 LINE",
"1394 837 LINE",
"1394 1194 LINE",
"1188 1400 LINE",
"140 1400 LINE",
"140 0 LINE"
);
},
{
closed = 1;
nodes = (
"274 1280 LINE",
"1120 1280 LINE",
"1264 1136 LINE",
"1264 886 LINE",
"1110 732 LINE",
"1146 732 LINE",
"1312 566 LINE",
"1312 272 LINE",
"1164 124 LINE",
"274 124 LINE"
);
},
{
closed = 1;
nodes = (
"1154 152 LINE",
"1284 280 LINE",
"1284 558 LINE",
"1136 704 LINE",
"302 704 LINE",
"302 152 LINE"
);
},
{
closed = 1;
nodes = (
"1072 732 LINE",
"1236 894 LINE",
"1236 1128 LINE",
"1110 1252 LINE",
"302 1252 LINE",
"302 732 LINE"
);
},
{
closed = 1;
nodes = (
"423 573 LINE",
"1068 573 LINE",
"1156 485 LINE",
"1156 344 LINE",
"1095 283 LINE",
"423 283 LINE"
);
},
{
closed = 1;
nodes = (
"423 1117 LINE",
"1051 1117 LINE",
"1112 1056 LINE",
"1112 955 LINE",
"1012 856 LINE",
"423 856 LINE"
);
}
);
width = 1569;
},
{
anchors = (
{
name = bottom;
position = "{816, 0}";
},
{
name = top;
position = "{816, 1400}";
}
);
layerId = "2B3778D7-DDED-4DCC-ADC4-D63709EF26D1";
paths = (
{
closed = 1;
nodes = (
"1233 0 LINE",
"1439 206 LINE",
"1439 613 LINE",
"1305 748 LINE",
"1394 837 LINE",
"1394 1194 LINE",
"1188 1400 LINE",
"140 1400 LINE",
"140 0 LINE"
);
},
{
closed = 1;
nodes = (
"284 1263 LINE",
"1124 1263 LINE",
"1253 1119 LINE",
"1253 914 LINE",
"1073 712 LINE",
"1140 712 LINE",
"1296 556 LINE",
"1296 286 LINE",
"1148 138 LINE",
"284 138 LINE"
);
},
{
closed = 1;
nodes = (
"1148 138 LINE",
"1296 286 LINE",
"1296 556 LINE",
"1140 712 LINE",
"284 712 LINE",
"284 138 LINE"
);
},
{
closed = 1;
nodes = (
"1073 712 LINE",
"1253 914 LINE",
"1253 1119 LINE",
"1124 1263 LINE",
"284 1263 LINE",
"284 712 LINE"
);
},
{
closed = 1;
nodes = (
"423 573 LINE",
"1068 573 LINE",
"1156 485 LINE",
"1156 344 LINE",
"1095 283 LINE",
"423 283 LINE"
);
},
{
closed = 1;
nodes = (
"423 1117 LINE",
"1051 1117 LINE",
"1112 1056 LINE",
"1112 955 LINE",
"1012 856 LINE",
"423 856 LINE"
);
}
);
width = 1569;
}
);
leftKerningGroup = H;
leftMetricsKey = D;
rightKerningGroup = B;
rightMetricsKey = O;
unicode = 0042;
},
{
color = 6;
glyphname = C;
lastChange = "2021-04-27 15:17:25 +0000";
layers = (
{
anchors = (
{
name = bottom;
position = "{451, 0}";
},
{
name = top;
position = "{451, 1400}";
}
);
layerId = "0B87BBC7-D91E-4FE2-8C5B-3F1AF694BBA3";
paths = (
{
closed = 1;
nodes = (
"623 0 LINE",
"830 206 LINE",
"830 528 LINE",
"547 528 LINE",
"547 344 LINE",
"486 283 LINE",
"434 283 LINE",
"373 344 LINE",
"373 1056 LINE",
"434 1117 LINE",
"486 1117 LINE",
"547 1056 LINE",
"547 872 LINE",
"830 872 LINE",
"830 1194 LINE",
"623 1400 LINE",
"296 1400 LINE",
"90 1194 LINE",
"90 206 LINE",
"296 0 LINE"
);
},
{
closed = 1;
nodes = (
"216 272 LINE",
"216 1132 LINE",
"360 1276 LINE",
"559 1276 LINE",
"703 1132 LINE",
"703 988 LINE",
"675 988 LINE",
"675 1124 LINE",
"549 1248 LINE",
"370 1248 LINE",
"244 1124 LINE",
"244 280 LINE",
"370 156 LINE",
"549 156 LINE",
"675 280 LINE",
"675 416 LINE",
"703 416 LINE",
"703 272 LINE",
"559 128 LINE",
"360 128 LINE"
);
}
);
width = 920;
},
{
anchors = (
{
name = bottom;
position = "{451, 0}";
},
{
name = top;
position = "{451, 1400}";
}
);
layerId = "5C9A105A-DAE9-444D-816C-282B7EF25764";
paths = (
{
closed = 1;
nodes = (
"623 0 LINE",
"830 206 LINE",
"830 528 LINE",
"547 528 LINE",
"547 344 LINE",
"486 283 LINE",
"434 283 LINE",
"373 344 LINE",
"373 1056 LINE",
"434 1117 LINE",
"486 1117 LINE",
"547 1056 LINE",
"547 872 LINE",
"830 872 LINE",
"830 1194 LINE",
"623 1400 LINE",
"296 1400 LINE",
"90 1194 LINE",
"90 206 LINE",
"296 0 LINE"
);
},
{
closed = 1;
nodes = (
"117 217 LINE",
"117 1183 LINE",
"307 1373 LINE",
"612 1373 LINE",
"803 1183 LINE",
"803 899 LINE",
"574 899 LINE",
"574 1067 LINE",
"497 1144 LINE",
"423 1144 LINE",
"346 1067 LINE",
"346 333 LINE",
"423 256 LINE",
"497 256 LINE",
"574 333 LINE",
"574 501 LINE",
"803 501 LINE",
"803 217 LINE",
"612 27 LINE",
"307 27 LINE"
);
}
);
width = 920;
},
{
anchors = (
{
name = bottom;
position = "{451, 0}";
},
{
name = top;
position = "{451, 1400}";
}
);
layerId = "F883F2BF-97BC-4587-9596-6665658F6F40";
paths = (
{
closed = 1;
nodes = (
"623 0 LINE",
"830 206 LINE",
"830 528 LINE",
"547 528 LINE",
"547 344 LINE",
"486 283 LINE",
"434 283 LINE",
"373 344 LINE",
"373 1056 LINE",
"434 1117 LINE",
"486 1117 LINE",
"547 1056 LINE",
"547 872 LINE",
"830 872 LINE",
"830 1194 LINE",
"623 1400 LINE",
"296 1400 LINE",
"90 1194 LINE",
"90 206 LINE",
"296 0 LINE"
);
},
{
closed = 1;
nodes = (
"230 281 LINE",
"230 1129 LINE",
"369 1268 LINE",
"547 1268 LINE",
"687 1129 LINE",
"687 1008 LINE",
"687 1008 LINE",
"687 1129 LINE",
"547 1268 LINE",
"369 1268 LINE",
"230 1129 LINE",
"230 281 LINE",
"369 142 LINE",
"553 142 LINE",
"687 276 LINE",
"687 396 LINE",
"687 396 LINE",
"687 276 LINE",
"553 142 LINE",
"369 142 LINE"
);
}
);
width = 920;
},
{
anchors = (
{
name = bottom;
position = "{801, 0}";
},
{
name = top;
position = "{801, 1400}";
}
);
layerId = "DDC1C77E-A6A2-4CE9-BB8A-1D9C0DC11BA6";
paths = (
{
closed = 1;
nodes = (
"1240 0 LINE",
"1447 206 LINE",
"1447 528 LINE",
"1164 528 LINE",
"1164 344 LINE",
"1103 283 LINE",
"464 283 LINE",
"403 344 LINE",
"403 1056 LINE",
"464 1117 LINE",
"1103 1117 LINE",
"1164 1056 LINE",
"1164 872 LINE",
"1447 872 LINE",
"1447 1194 LINE",
"1240 1400 LINE",
"326 1400 LINE",
"120 1194 LINE",
"120 206 LINE",
"326 0 LINE"
);
},
{
closed = 1;
nodes = (
"147 217 LINE",
"147 1183 LINE",
"337 1373 LINE",
"1229 1373 LINE",
"1420 1183 LINE",
"1420 899 LINE",
"1191 899 LINE",
"1191 1067 LINE",
"1114 1144 LINE",
"453 1144 LINE",
"376 1067 LINE",
"376 333 LINE",
"453 256 LINE",
"1114 256 LINE",
"1191 333 LINE",
"1191 501 LINE",
"1420 501 LINE",
"1420 217 LINE",
"1229 27 LINE",
"337 27 LINE"
);
}
);
width = 1567;
},
{
anchors = (
{
name = bottom;
position = "{801, 0}";
},
{
name = top;
position = "{801, 1400}";
}
);
layerId = "0A080BD2-62EB-4516-9B42-F4E1F6E1D6F2";
paths = (
{
closed = 1;
nodes = (
"1240 0 LINE",
"1447 206 LINE",
"1447 528 LINE",
"1164 528 LINE",
"1164 344 LINE",
"1103 283 LINE",
"464 283 LINE",
"403 344 LINE",
"403 1056 LINE",
"464 1117 LINE",
"1103 1117 LINE",
"1164 1056 LINE",
"1164 872 LINE",
"1447 872 LINE",
"1447 1194 LINE",
"1240 1400 LINE",
"326 1400 LINE",
"120 1194 LINE",
"120 206 LINE",
"326 0 LINE"
);
},
{
closed = 1;
nodes = (
"246 272 LINE",
"246 1132 LINE",
"390 1276 LINE",
"1176 1276 LINE",
"1320 1132 LINE",
"1320 988 LINE",
"1292 988 LINE",
"1292 1124 LINE",
"1166 1248 LINE",
"400 1248 LINE",
"274 1124 LINE",
"274 280 LINE",
"400 156 LINE",
"1166 156 LINE",
"1292 280 LINE",
"1292 416 LINE",
"1320 416 LINE",
"1320 272 LINE",
"1176 128 LINE",
"390 128 LINE"
);
}
);
width = 1567;
},
{
anchors = (
{
name = bottom;
position = "{801, 0}";
},
{
name = top;
position = "{801, 1400}";
}
);
layerId = "2B3778D7-DDED-4DCC-ADC4-D63709EF26D1";
paths = (
{
closed = 1;
nodes = (
"1240 0 LINE",
"1447 206 LINE",
"1447 528 LINE",
"1164 528 LINE",
"1164 344 LINE",
"1103 283 LINE",
"464 283 LINE",
"403 344 LINE",
"403 1056 LINE",
"464 1117 LINE",
"1103 1117 LINE",
"1164 1056 LINE",
"1164 872 LINE",
"1447 872 LINE",
"1447 1194 LINE",
"1240 1400 LINE",
"326 1400 LINE",
"120 1194 LINE",
"120 206 LINE",
"326 0 LINE"
);
},
{
closed = 1;
nodes = (
"260 281 LINE",
"260 1129 LINE",
"399 1268 LINE",
"1164 1268 LINE",
"1304 1129 LINE",
"1304 1008 LINE",
"1304 1008 LINE",
"1304 1129 LINE",
"1164 1268 LINE",
"399 1268 LINE",
"260 1129 LINE",
"260 281 LINE",
"399 142 LINE",
"1170 142 LINE",
"1304 276 LINE",
"1304 396 LINE",
"1304 396 LINE",
"1304 276 LINE",
"1170 142 LINE",
"399 142 LINE"
);
}
);
width = 1567;
}
);
leftKerningGroup = O;
rightKerningGroup = C;
unicode = 0043;
},
{
color = 6;
glyphname = Ccedilla;
lastChange = "2021-04-27 15:17:25 +0000";
layers = (
{
layerId = "F883F2BF-97BC-4587-9596-6665658F6F40";
paths = (
{
closed = 1;
nodes = (
"717 -349 LINE",
"880 -160 LINE",
"741 0 LINE",
"863 0 LINE",
"1070 206 LINE",
"1070 528 LINE",
"787 528 LINE",
"787 344 LINE",
"726 283 LINE",
"454 283 LINE",
"393 344 LINE",
"393 1056 LINE",
"454 1117 LINE",
"726 1117 LINE",
"787 1056 LINE",
"787 872 LINE",
"1070 872 LINE",
"1070 1194 LINE",
"863 1400 LINE",
"316 1400 LINE",
"110 1194 LINE",
"110 206 LINE",
"316 0 LINE",
"473 0 LINE",
"473 -130 LINE",
"607 -130 LINE",
"637 -160 LINE",
"607 -192 LINE",
"402 -192 LINE",
"402 -349 LINE"
);
},
{
closed = 1;
nodes = (
"502 -270 LINE",
"670 -270 LINE",
"766 -160 LINE",
"670 -52 LINE",
"574 -52 LINE",
"574 142 LINE",
"380 142 LINE",
"250 272 LINE",
"250 1132 LINE",
"380 1262 LINE",
"799 1262 LINE",
"929 1132 LINE",
"929 988 LINE",
"929 988 LINE",
"929 1132 LINE",
"799 1262 LINE",
"380 1262 LINE",
"250 1132 LINE",
"250 272 LINE",
"380 142 LINE",
"799 142 LINE",
"929 272 LINE",
"929 416 LINE",
"929 416 LINE",
"929 272 LINE",
"799 142 LINE",
"574 142 LINE",
"574 -52 LINE",
"670 -52 LINE",
"766 -160 LINE",
"670 -270 LINE",
"502 -270 LINE"
);
}
);
width = 1181;
},
{
layerId = "0B87BBC7-D91E-4FE2-8C5B-3F1AF694BBA3";
paths = (
{
closed = 1;
nodes = (
"717 -349 LINE",
"880 -160 LINE",
"741 0 LINE",
"863 0 LINE",
"1070 206 LINE",
"1070 528 LINE",
"787 528 LINE",
"787 344 LINE",
"726 283 LINE",
"454 283 LINE",
"393 344 LINE",
"393 1056 LINE",
"454 1117 LINE",
"726 1117 LINE",
"787 1056 LINE",
"787 872 LINE",
"1070 872 LINE",
"1070 1194 LINE",
"863 1400 LINE",
"316 1400 LINE",
"110 1194 LINE",
"110 206 LINE",
"316 0 LINE",
"473 0 LINE",
"473 -130 LINE",
"607 -130 LINE",
"637 -160 LINE",
"607 -192 LINE",
"402 -192 LINE",
"402 -349 LINE"
);
},
{
closed = 1;
nodes = (
"488 -257 LINE",
"657 -257 LINE",
"744 -160 LINE",
"657 -65 LINE",
"560 -65 LINE",
"560 128 LINE",
"380 128 LINE",
"236 272 LINE",
"236 1132 LINE",
"380 1276 LINE",
"799 1276 LINE",
"943 1132 LINE",
"943 988 LINE",
"915 988 LINE",
"915 1124 LINE",
"789 1248 LINE",
"390 1248 LINE",
"264 1124 LINE",
"264 280 LINE",
"390 156 LINE",
"789 156 LINE",
"915 280 LINE",
"915 416 LINE",
"943 416 LINE",
"943 272 LINE",
"799 128 LINE",
"588 128 LINE",
"588 -38 LINE",
"670 -38 LINE",
"780 -160 LINE",
"670 -284 LINE",
"488 -284 LINE"
);
}
);
width = 1181;
},
{
layerId = "5C9A105A-DAE9-444D-816C-282B7EF25764";
paths = (
{
closed = 1;
nodes = (
"717 -349 LINE",
"880 -160 LINE",
"741 0 LINE",
"863 0 LINE",
"1070 206 LINE",
"1070 528 LINE",
"787 528 LINE",
"787 344 LINE",
"726 283 LINE",
"454 283 LINE",
"393 344 LINE",
"393 1056 LINE",
"454 1117 LINE",
"726 1117 LINE",
"787 1056 LINE",
"787 872 LINE",
"1070 872 LINE",
"1070 1194 LINE",
"863 1400 LINE",
"316 1400 LINE",
"110 1194 LINE",
"110 206 LINE",
"316 0 LINE",
"473 0 LINE",
"473 -130 LINE",
"607 -130 LINE",
"637 -160 LINE",
"607 -192 LINE",
"402 -192 LINE",
"402 -349 LINE"
);
},
{
closed = 1;
nodes = (
"428 -219 LINE",
"617 -219 LINE",
"670 -160 LINE",
"617 -103 LINE",
"500 -103 LINE",
"500 27 LINE",
"327 27 LINE",
"137 217 LINE",
"137 1183 LINE",
"327 1373 LINE",
"852 1373 LINE",
"1043 1183 LINE",
"1043 899 LINE",
"814 899 LINE",
"814 1067 LINE",
"737 1144 LINE",
"443 1144 LINE",
"366 1067 LINE",
"366 333 LINE",
"443 256 LINE",
"737 256 LINE",
"814 333 LINE",
"814 501 LINE",
"1043 501 LINE",
"1043 217 LINE",
"852 27 LINE",
"700 27 LINE",
"700 0 LINE",
"701 0 LINE",
"843 -160 LINE",
"700 -322 LINE",
"428 -322 LINE"
);
}
);
width = 1181;
},
{
layerId = "DDC1C77E-A6A2-4CE9-BB8A-1D9C0DC11BA6";
paths = (
{
closed = 1;
nodes = (
"747 -349 LINE",
"910 -160 LINE",
"771 0 LINE",
"893 0 LINE",
"1100 206 LINE",
"1100 528 LINE",
"817 528 LINE",
"817 344 LINE",
"756 283 LINE",
"484 283 LINE",
"423 344 LINE",
"423 1056 LINE",
"484 1117 LINE",
"756 1117 LINE",
"817 1056 LINE",
"817 872 LINE",
"1100 872 LINE",
"1100 1194 LINE",
"893 1400 LINE",
"346 1400 LINE",
"140 1194 LINE",
"140 206 LINE",
"346 0 LINE",
"503 0 LINE",
"503 -130 LINE",
"637 -130 LINE",
"667 -160 LINE",
"637 -192 LINE",
"432 -192 LINE",
"432 -349 LINE"
);
},
{
closed = 1;
nodes = (
"458 -219 LINE",
"647 -219 LINE",
"700 -160 LINE",
"647 -103 LINE",
"530 -103 LINE",
"530 27 LINE",
"357 27 LINE",
"167 217 LINE",
"167 1183 LINE",
"357 1373 LINE",
"882 1373 LINE",
"1073 1183 LINE",
"1073 899 LINE",
"844 899 LINE",
"844 1067 LINE",
"767 1144 LINE",
"473 1144 LINE",
"396 1067 LINE",
"396 333 LINE",
"473 256 LINE",
"767 256 LINE",
"844 333 LINE",
"844 501 LINE",
"1073 501 LINE",
"1073 217 LINE",
"882 27 LINE",
"730 27 LINE",
"730 0 LINE",
"731 0 LINE",
"873 -160 LINE",
"730 -322 LINE",
"458 -322 LINE"
);
}
);
width = 1241;
},
{
layerId = "0A080BD2-62EB-4516-9B42-F4E1F6E1D6F2";
paths = (
{
closed = 1;
nodes = (
"747 -349 LINE",
"910 -160 LINE",
"771 0 LINE",
"893 0 LINE",
"1100 206 LINE",
"1100 528 LINE",
"817 528 LINE",
"817 344 LINE",
"756 283 LINE",
"484 283 LINE",
"423 344 LINE",
"423 1056 LINE",
"484 1117 LINE",
"756 1117 LINE",
"817 1056 LINE",
"817 872 LINE",
"1100 872 LINE",
"1100 1194 LINE",
"893 1400 LINE",
"346 1400 LINE",
"140 1194 LINE",
"140 206 LINE",
"346 0 LINE",
"503 0 LINE",
"503 -130 LINE",
"637 -130 LINE",
"667 -160 LINE",
"637 -192 LINE",
"432 -192 LINE",
"432 -349 LINE"
);
},
{
closed = 1;
nodes = (
"518 -257 LINE",
"687 -257 LINE",
"774 -160 LINE",
"687 -65 LINE",
"590 -65 LINE",
"590 128 LINE",
"410 128 LINE",
"266 272 LINE",
"266 1132 LINE",
"410 1276 LINE",
"829 1276 LINE",
"973 1132 LINE",
"973 988 LINE",
"945 988 LINE",
"945 1124 LINE",
"819 1248 LINE",
"420 1248 LINE",
"294 1124 LINE",
"294 280 LINE",
"420 156 LINE",
"819 156 LINE",
"945 280 LINE",
"945 416 LINE",
"973 416 LINE",
"973 272 LINE",
"829 128 LINE",
"618 128 LINE",
"618 -38 LINE",
"700 -38 LINE",
"810 -160 LINE",
"700 -284 LINE",
"518 -284 LINE"
);
}
);
width = 1241;
},
{
layerId = "2B3778D7-DDED-4DCC-ADC4-D63709EF26D1";
paths = (
{
closed = 1;
nodes = (
"747 -349 LINE",
"910 -160 LINE",
"771 0 LINE",
"893 0 LINE",
"1100 206 LINE",
"1100 528 LINE",
"817 528 LINE",
"817 344 LINE",
"756 283 LINE",
"484 283 LINE",
"423 344 LINE",
"423 1056 LINE",
"484 1117 LINE",
"756 1117 LINE",
"817 1056 LINE",
"817 872 LINE",
"1100 872 LINE",
"1100 1194 LINE",
"893 1400 LINE",
"346 1400 LINE",
"140 1194 LINE",
"140 206 LINE",
"346 0 LINE",
"503 0 LINE",
"503 -130 LINE",
"637 -130 LINE",
"667 -160 LINE",
"637 -192 LINE",
"432 -192 LINE",
"432 -349 LINE"
);
},
{
closed = 1;
nodes = (
"532 -270 LINE",
"700 -270 LINE",
"796 -160 LINE",
"700 -52 LINE",
"604 -52 LINE",
"604 142 LINE",
"410 142 LINE",
"280 272 LINE",
"280 1132 LINE",
"410 1262 LINE",
"829 1262 LINE",
"959 1132 LINE",
"959 988 LINE",
"959 988 LINE",
"959 1132 LINE",
"829 1262 LINE",
"410 1262 LINE",
"280 1132 LINE",
"280 272 LINE",
"410 142 LINE",
"829 142 LINE",
"959 272 LINE",
"959 416 LINE",
"959 416 LINE",
"959 272 LINE",
"829 142 LINE",
"604 142 LINE",
"604 -52 LINE",
"700 -52 LINE",
"796 -160 LINE",
"700 -270 LINE",
"532 -270 LINE"
);
}
);
width = 1241;
}
);
unicode = 00C7;
},
{
color = 6;
glyphname = D;
lastChange = "2021-04-27 15:17:23 +0000";
layers = (
{
anchors = (
{
name = bottom;
position = "{483, 0}";
},
{
name = center;
position = "{483, 700}";
},
{
name = top;
position = "{483, 1400}";
}
);
layerId = "0B87BBC7-D91E-4FE2-8C5B-3F1AF694BBA3";
paths = (
{
closed = 1;
nodes = (
"649 0 LINE",
"855 206 LINE",
"855 1194 LINE",
"649 1400 LINE",
"110 1400 LINE",
"110 0 LINE"
);
},
{
closed = 1;
nodes = (
"393 1117 LINE",
"512 1117 LINE",
"573 1056 LINE",
"573 344 LINE",
"512 283 LINE",
"393 283 LINE"
);
},
{
closed = 1;
nodes = (
"239 1271 LINE",
"581 1271 LINE",
"725 1127 LINE",
"725 271 LINE",
"581 127 LINE",
"239 127 LINE"
);
},
{
closed = 1;
nodes = (
"571 155 LINE",
"697 279 LINE",
"697 1119 LINE",
"571 1243 LINE",
"267 1243 LINE",
"267 155 LINE"
);
}
);
width = 965;
},
{
anchors = (
{
name = bottom;
position = "{483, 0}";
},
{
name = center;
position = "{475, 700}";
},
{
name = top;
position = "{483, 1400}";
}
);
layerId = "5C9A105A-DAE9-444D-816C-282B7EF25764";
paths = (
{
closed = 1;
nodes = (
"649 0 LINE",
"855 206 LINE",
"855 1194 LINE",
"649 1400 LINE",
"110 1400 LINE",
"110 0 LINE"
);
},
{
closed = 1;
nodes = (
"393 1117 LINE",
"512 1117 LINE",
"573 1056 LINE",
"573 344 LINE",
"512 283 LINE",
"393 283 LINE"
);
},
{
closed = 1;
nodes = (
"137 1373 LINE",
"638 1373 LINE",
"828 1183 LINE",
"828 217 LINE",
"638 27 LINE",
"137 27 LINE"
);
},
{
closed = 1;
nodes = (
"523 256 LINE",
"600 333 LINE",
"600 1067 LINE",
"523 1144 LINE",
"366 1144 LINE",
"366 256 LINE"
);
}
);
width = 965;
},
{
anchors = (
{
name = bottom;
position = "{483, 0}";
},
{
name = center;
position = "{475, 700}";
},
{
name = top;
position = "{483, 1400}";
}
);
layerId = "F883F2BF-97BC-4587-9596-6665658F6F40";
paths = (
{
closed = 1;
nodes = (
"649 0 LINE",
"855 206 LINE",
"855 1194 LINE",
"649 1400 LINE",
"110 1400 LINE",
"110 0 LINE"
);
},
{
closed = 1;
nodes = (
"393 1117 LINE",
"512 1117 LINE",
"573 1056 LINE",
"573 344 LINE",
"512 283 LINE",
"393 283 LINE"
);
},
{
closed = 1;
nodes = (
"256 1259 LINE",
"572 1259 LINE",
"716 1115 LINE",
"716 286 LINE",
"572 142 LINE",
"256 142 LINE"
);
},
{
closed = 1;
nodes = (
"572 142 LINE",
"716 286 LINE",
"716 1115 LINE",
"572 1259 LINE",
"256 1259 LINE",
"256 142 LINE"
);
}
);
width = 965;
},
{
anchors = (
{
name = bottom;
position = "{806, 0}";
},
{
name = center;
position = "{798, 700}";
},
{
name = top;
position = "{806, 1400}";
}
);
layerId = "DDC1C77E-A6A2-4CE9-BB8A-1D9C0DC11BA6";
paths = (
{
closed = 1;
nodes = (
"1266 0 LINE",
"1472 206 LINE",
"1472 1194 LINE",
"1266 1400 LINE",
"140 1400 LINE",
"140 0 LINE"
);
},
{
closed = 1;
nodes = (
"423 1117 LINE",
"1129 1117 LINE",
"1190 1056 LINE",
"1190 344 LINE",
"1129 283 LINE",
"423 283 LINE"
);
},
{
closed = 1;
nodes = (
"167 1373 LINE",
"1255 1373 LINE",
"1445 1183 LINE",
"1445 217 LINE",
"1255 27 LINE",
"167 27 LINE"
);
},
{
closed = 1;
nodes = (
"1140 256 LINE",
"1217 333 LINE",
"1217 1067 LINE",
"1140 1144 LINE",
"396 1144 LINE",
"396 256 LINE"
);
}
);
width = 1612;
},
{
anchors = (
{
name = bottom;
position = "{806, 0}";
},
{
name = center;
position = "{806, 700}";
},
{
name = top;
position = "{806, 1400}";
}
);
layerId = "0A080BD2-62EB-4516-9B42-F4E1F6E1D6F2";
paths = (
{
closed = 1;
nodes = (
"1266 0 LINE",
"1472 206 LINE",
"1472 1194 LINE",
"1266 1400 LINE",
"140 1400 LINE",
"140 0 LINE"
);
},
{
closed = 1;
nodes = (
"423 1117 LINE",
"1129 1117 LINE",
"1190 1056 LINE",
"1190 344 LINE",
"1129 283 LINE",
"423 283 LINE"
);
},
{
closed = 1;
nodes = (
"269 1271 LINE",
"1198 1271 LINE",
"1342 1127 LINE",
"1342 271 LINE",
"1198 127 LINE",
"269 127 LINE"
);
},
{
closed = 1;
nodes = (
"1188 155 LINE",
"1314 279 LINE",
"1314 1119 LINE",
"1188 1243 LINE",
"297 1243 LINE",
"297 155 LINE"
);
}
);
width = 1612;
},
{
anchors = (
{
name = bottom;
position = "{806, 0}";
},
{
name = center;
position = "{798, 700}";
},
{
name = top;
position = "{806, 1400}";
}
);
layerId = "2B3778D7-DDED-4DCC-ADC4-D63709EF26D1";
paths = (
{
closed = 1;
nodes = (
"1266 0 LINE",
"1472 206 LINE",
"1472 1194 LINE",
"1266 1400 LINE",
"140 1400 LINE",
"140 0 LINE"
);
},
{
closed = 1;
nodes = (
"423 1117 LINE",
"1129 1117 LINE",
"1190 1056 LINE",
"1190 344 LINE",
"1129 283 LINE",
"423 283 LINE"
);
},
{
closed = 1;
nodes = (
"286 1259 LINE",
"1189 1259 LINE",
"1333 1115 LINE",
"1333 286 LINE",
"1189 142 LINE",
"286 142 LINE"
);
},
{
closed = 1;
nodes = (
"1189 142 LINE",
"1333 286 LINE",
"1333 1115 LINE",
"1189 1259 LINE",
"286 1259 LINE",
"286 142 LINE"
);
}
);
width = 1612;
}
);
leftKerningGroup = H;
rightKerningGroup = O;
unicode = 0044;
},
{
color = 6;
glyphname = Dcroat;
lastChange = "2021-04-27 15:17:25 +0000";
layers = (
{
layerId = "F883F2BF-97BC-4587-9596-6665658F6F40";
paths = (
{
closed = 1;
nodes = (
"922 0 LINE",
"1128 206 LINE",
"1128 1194 LINE",
"922 1400 LINE",
"163 1400 LINE",
"163 818 LINE",
"-10 818 LINE",
"-10 562 LINE",
"163 562 LINE",
"163 0 LINE"
);
},
{
closed = 1;
nodes = (
"306 687 LINE",
"130 687 LINE",
"130 687 LINE",
"306 687 LINE",
"306 1259 LINE",
"854 1259 LINE",
"983 1122 LINE",
"983 276 LINE",
"854 142 LINE",
"306 142 LINE"
);
},
{
closed = 1;
nodes = (
"854 142 LINE",
"983 276 LINE",
"983 1122 LINE",
"854 1259 LINE",
"306 1259 LINE",
"306 687 LINE",
"574 687 LINE",
"574 687 LINE",
"306 687 LINE",
"306 142 LINE"
);
},
{
closed = 1;
nodes = (
"446 562 LINE",
"702 562 LINE",
"702 818 LINE",
"446 818 LINE",
"446 1117 LINE",
"785 1117 LINE",
"846 1056 LINE",
"846 344 LINE",
"785 283 LINE",
"446 283 LINE"
);
}
);
width = 1193;
},
{
layerId = "0B87BBC7-D91E-4FE2-8C5B-3F1AF694BBA3";
paths = (
{
closed = 1;
nodes = (
"922 0 LINE",
"1128 206 LINE",
"1128 1194 LINE",
"922 1400 LINE",
"163 1400 LINE",
"163 818 LINE",
"-10 818 LINE",
"-10 562 LINE",
"163 562 LINE",
"163 0 LINE"
);
},
{
closed = 1;
nodes = (
"292 672 LINE",
"120 672 LINE",
"120 700 LINE",
"292 700 LINE",
"292 1271 LINE",
"854 1271 LINE",
"998 1127 LINE",
"998 271 LINE",
"854 127 LINE",
"292 127 LINE"
);
},
{
closed = 1;
nodes = (
"844 155 LINE",
"970 279 LINE",
"970 1119 LINE",
"844 1243 LINE",
"320 1243 LINE",
"320 700 LINE",
"584 700 LINE",
"584 672 LINE",
"320 672 LINE",
"320 155 LINE"
);
},
{
closed = 1;
nodes = (
"446 562 LINE",
"702 562 LINE",
"702 818 LINE",
"446 818 LINE",
"446 1117 LINE",
"785 1117 LINE",
"846 1056 LINE",
"846 344 LINE",
"785 283 LINE",
"446 283 LINE"
);
}
);
width = 1193;
},
{
layerId = "5C9A105A-DAE9-444D-816C-282B7EF25764";
paths = (
{
closed = 1;
nodes = (
"922 0 LINE",
"1128 206 LINE",
"1128 1194 LINE",
"922 1400 LINE",
"163 1400 LINE",
"163 818 LINE",
"-10 818 LINE",
"-10 562 LINE",
"163 562 LINE",
"163 0 LINE"
);
},
{
closed = 1;
nodes = (
"190 589 LINE",
"17 589 LINE",
"17 791 LINE",
"190 791 LINE",
"190 1373 LINE",
"911 1373 LINE",
"1101 1183 LINE",
"1101 217 LINE",
"911 27 LINE",
"190 27 LINE"
);
},
{
closed = 1;
nodes = (
"796 256 LINE",
"873 333 LINE",
"873 1067 LINE",
"796 1144 LINE",
"419 1144 LINE",
"419 791 LINE",
"675 791 LINE",
"675 589 LINE",
"419 589 LINE",
"419 256 LINE"
);
},
{
closed = 1;
nodes = (
"446 562 LINE",
"702 562 LINE",
"702 818 LINE",
"446 818 LINE",
"446 1117 LINE",
"785 1117 LINE",
"846 1056 LINE",
"846 344 LINE",
"785 283 LINE",
"446 283 LINE"
);
}
);
width = 1193;
},
{
layerId = "DDC1C77E-A6A2-4CE9-BB8A-1D9C0DC11BA6";
paths = (
{
closed = 1;
nodes = (
"952 0 LINE",
"1158 206 LINE",
"1158 1194 LINE",
"952 1400 LINE",
"193 1400 LINE",
"193 818 LINE",
"20 818 LINE",
"20 562 LINE",
"193 562 LINE",
"193 0 LINE"
);
},
{
closed = 1;
nodes = (
"220 589 LINE",
"47 589 LINE",
"47 791 LINE",
"220 791 LINE",
"220 1373 LINE",
"941 1373 LINE",
"1131 1183 LINE",
"1131 217 LINE",
"941 27 LINE",
"220 27 LINE"
);
},
{
closed = 1;
nodes = (
"826 256 LINE",
"903 333 LINE",
"903 1067 LINE",
"826 1144 LINE",
"449 1144 LINE",
"449 791 LINE",
"705 791 LINE",
"705 589 LINE",
"449 589 LINE",
"449 256 LINE"
);
},
{
closed = 1;
nodes = (
"476 562 LINE",
"732 562 LINE",
"732 818 LINE",
"476 818 LINE",
"476 1117 LINE",
"815 1117 LINE",
"876 1056 LINE",
"876 344 LINE",
"815 283 LINE",
"476 283 LINE"
);
}
);
width = 1253;
},
{
layerId = "0A080BD2-62EB-4516-9B42-F4E1F6E1D6F2";
paths = (
{
closed = 1;
nodes = (
"952 0 LINE",
"1158 206 LINE",
"1158 1194 LINE",
"952 1400 LINE",
"193 1400 LINE",
"193 818 LINE",
"20 818 LINE",
"20 562 LINE",
"193 562 LINE",
"193 0 LINE"
);
},
{
closed = 1;
nodes = (
"322 672 LINE",
"150 672 LINE",
"150 700 LINE",
"322 700 LINE",
"322 1271 LINE",
"884 1271 LINE",
"1028 1127 LINE",
"1028 271 LINE",
"884 127 LINE",
"322 127 LINE"
);
},
{
closed = 1;
nodes = (
"874 155 LINE",
"1000 279 LINE",
"1000 1119 LINE",
"874 1243 LINE",
"350 1243 LINE",
"350 700 LINE",
"614 700 LINE",
"614 672 LINE",
"350 672 LINE",
"350 155 LINE"
);
},
{
closed = 1;
nodes = (
"476 562 LINE",
"732 562 LINE",
"732 818 LINE",
"476 818 LINE",
"476 1117 LINE",
"815 1117 LINE",
"876 1056 LINE",
"876 344 LINE",
"815 283 LINE",
"476 283 LINE"
);
}
);
width = 1253;
},
{
layerId = "2B3778D7-DDED-4DCC-ADC4-D63709EF26D1";
paths = (
{
closed = 1;
nodes = (
"952 0 LINE",
"1158 206 LINE",
"1158 1194 LINE",
"952 1400 LINE",
"193 1400 LINE",
"193 818 LINE",
"20 818 LINE",
"20 562 LINE",
"193 562 LINE",
"193 0 LINE"
);
},
{
closed = 1;
nodes = (
"336 687 LINE",
"160 687 LINE",
"160 687 LINE",
"336 687 LINE",
"336 1259 LINE",
"884 1259 LINE",
"1013 1122 LINE",
"1013 276 LINE",
"884 142 LINE",
"336 142 LINE"
);
},
{
closed = 1;
nodes = (
"884 142 LINE",
"1013 276 LINE",
"1013 1122 LINE",
"884 1259 LINE",
"336 1259 LINE",
"336 687 LINE",
"604 687 LINE",
"604 687 LINE",
"336 687 LINE",
"336 142 LINE"
);
},
{
closed = 1;
nodes = (
"476 562 LINE",
"732 562 LINE",
"732 818 LINE",
"476 818 LINE",
"476 1117 LINE",
"815 1117 LINE",
"876 1056 LINE",
"876 344 LINE",
"815 283 LINE",
"476 283 LINE"
);
}
);
width = 1253;
}
);
rightKerningGroup = D;
unicode = 0110;
},
{
color = 6;
glyphname = E;
lastChange = "2021-04-27 15:17:25 +0000";
layers = (
{
anchors = (
{
name = bottom;
position = "{427, 0}";
},
{
name = ogonek;
position = "{561, 10}";
},
{
name = top;
position = "{427, 1400}";
},
{
name = topleft;
position = "{100, 1400}";
}
);
layerId = "0B87BBC7-D91E-4FE2-8C5B-3F1AF694BBA3";
paths = (
{
closed = 1;
nodes = (
"703 0 LINE",
"703 283 LINE",
"383 283 LINE",
"383 565 LINE",
"634 565 LINE",
"634 848 LINE",
"383 848 LINE",
"383 1117 LINE",
"703 1117 LINE",
"703 1400 LINE",
"100 1400 LINE",
"100 0 LINE"
);
},
{
closed = 1;
nodes = (
"231 1276 LINE",
"593 1276 LINE",
"593 1248 LINE",
"259 1248 LINE",
"259 721 LINE",
"523 721 LINE",
"523 693 LINE",
"259 693 LINE",
"259 160 LINE",
"593 160 LINE",
"593 132 LINE",
"231 132 LINE"
);
}
);
width = 803;
},
{
anchors = (
{
name = bottom;
position = "{427, 0}";
},
{
name = ogonek;
position = "{561, 10}";
},
{
name = top;
position = "{427, 1400}";
},
{
name = topleft;
position = "{100, 1400}";
}
);
layerId = "5C9A105A-DAE9-444D-816C-282B7EF25764";
paths = (
{
closed = 1;
nodes = (
"703 0 LINE",
"703 283 LINE",
"383 283 LINE",
"383 565 LINE",
"634 565 LINE",
"634 848 LINE",
"383 848 LINE",
"383 1117 LINE",
"703 1117 LINE",
"703 1400 LINE",
"100 1400 LINE",
"100 0 LINE"
);
},
{
closed = 1;
nodes = (
"127 1373 LINE",
"676 1373 LINE",
"676 1144 LINE",
"356 1144 LINE",
"356 821 LINE",
"607 821 LINE",
"607 592 LINE",
"356 592 LINE",
"356 256 LINE",
"676 256 LINE",
"676 27 LINE",
"127 27 LINE"
);
}
);
width = 803;
},
{
anchors = (
{
name = bottom;
position = "{427, 0}";
},
{
name = ogonek;
position = "{561, 10}";
},
{
name = top;
position = "{427, 1400}";
},
{
name = topleft;
position = "{100, 1400}";
}
);
layerId = "F883F2BF-97BC-4587-9596-6665658F6F40";
paths = (
{
closed = 1;
nodes = (
"703 0 LINE",
"703 283 LINE",
"383 283 LINE",
"383 565 LINE",
"634 565 LINE",
"634 848 LINE",
"383 848 LINE",
"383 1117 LINE",
"703 1117 LINE",
"703 1400 LINE",
"100 1400 LINE",
"100 0 LINE"
);
},
{
closed = 1;
nodes = (
"245 1259 LINE",
"573 1259 LINE",
"573 1259 LINE",
"245 1259 LINE",
"245 707 LINE",
"503 707 LINE",
"503 707 LINE",
"245 707 LINE",
"245 142 LINE",
"573 142 LINE",
"573 142 LINE",
"245 142 LINE"
);
}
);
width = 803;
},
{
anchors = (
{
name = bottom;
position = "{697, 0}";
},
{
name = ogonek;
position = "{1639, 10}";
},
{
name = top;
position = "{697, 1400}";
},
{
name = topleft;
position = "{-107, 1400}";
}
);
layerId = "DDC1C77E-A6A2-4CE9-BB8A-1D9C0DC11BA6";
paths = (
{
closed = 1;
nodes = (
"1346 0 LINE",
"1346 283 LINE",
"413 283 LINE",
"413 565 LINE",
"1277 565 LINE",
"1277 848 LINE",
"413 848 LINE",
"413 1117 LINE",
"1346 1117 LINE",
"1346 1400 LINE",
"130 1400 LINE",
"130 0 LINE"
);
},
{
closed = 1;
nodes = (
"157 1373 LINE",
"1319 1373 LINE",
"1319 1144 LINE",
"386 1144 LINE",
"386 821 LINE",
"1250 821 LINE",
"1250 592 LINE",
"386 592 LINE",
"386 256 LINE",
"1319 256 LINE",
"1319 27 LINE",
"157 27 LINE"
);
}
);
width = 1476;
},
{
anchors = (
{
name = bottom;
position = "{697, 0}";
},
{
name = ogonek;
position = "{1639, 10}";
},
{
name = top;
position = "{697, 1400}";
},
{
name = topleft;
position = "{-107, 1400}";
}
);
layerId = "0A080BD2-62EB-4516-9B42-F4E1F6E1D6F2";
paths = (
{
closed = 1;
nodes = (
"1346 0 LINE",
"1346 283 LINE",
"413 283 LINE",
"413 565 LINE",
"1277 565 LINE",
"1277 848 LINE",
"413 848 LINE",
"413 1117 LINE",
"1346 1117 LINE",
"1346 1400 LINE",
"130 1400 LINE",
"130 0 LINE"
);
},
{
closed = 1;
nodes = (
"261 1276 LINE",
"1236 1276 LINE",
"1236 1248 LINE",
"289 1248 LINE",
"289 721 LINE",
"1166 721 LINE",
"1166 693 LINE",
"289 693 LINE",
"289 160 LINE",
"1236 160 LINE",
"1236 132 LINE",
"261 132 LINE"
);
}
);
width = 1476;
},
{
anchors = (
{
name = bottom;
position = "{697, 0}";
},
{
name = ogonek;
position = "{1639, 10}";
},
{
name = top;
position = "{697, 1400}";
},
{
name = topleft;
position = "{-107, 1400}";
}
);
layerId = "2B3778D7-DDED-4DCC-ADC4-D63709EF26D1";
paths = (
{
closed = 1;
nodes = (
"1346 0 LINE",
"1346 283 LINE",
"413 283 LINE",
"413 565 LINE",
"1277 565 LINE",
"1277 848 LINE",
"413 848 LINE",
"413 1117 LINE",
"1346 1117 LINE",
"1346 1400 LINE",
"130 1400 LINE",
"130 0 LINE"
);
},
{
closed = 1;
nodes = (
"275 1259 LINE",
"1216 1259 LINE",
"1216 1259 LINE",
"275 1259 LINE",
"275 707 LINE",
"1146 707 LINE",
"1146 707 LINE",
"275 707 LINE",
"275 142 LINE",
"1216 142 LINE",
"1216 142 LINE",
"275 142 LINE"
);
}
);
width = 1476;
}
);
leftKerningGroup = H;
leftMetricsKey = O;
rightKerningGroup = E;
rightMetricsKey = O;
unicode = 0045;
},
{
color = 6;
glyphname = Eogonek;
lastChange = "2021-04-27 15:17:24 +0000";
layers = (
{
layerId = "F883F2BF-97BC-4587-9596-6665658F6F40";
paths = (
{
closed = 1;
nodes = (
"885 -369 LINE",
"885 -212 LINE",
"650 -212 LINE",
"620 -180 LINE",
"800 0 LINE",
"933 0 LINE",
"933 283 LINE",
"383 283 LINE",
"383 565 LINE",
"864 565 LINE",
"864 848 LINE",
"383 848 LINE",
"383 1117 LINE",
"933 1117 LINE",
"933 1400 LINE",
"100 1400 LINE",
"100 0 LINE",
"579 0 LINE",
"417 -180 LINE",
"580 -369 LINE"
);
},
{
closed = 1;
nodes = (
"514 -180 LINE",
"813 142 LINE",
"813 142 LINE",
"245 142 LINE",
"245 1259 LINE",
"809 1259 LINE",
"809 1259 LINE",
"245 1259 LINE",
"245 707 LINE",
"733 707 LINE",
"733 707 LINE",
"245 707 LINE",
"245 142 LINE",
"813 142 LINE",
"813 142 LINE",
"813 142 LINE",
"514 -180 LINE",
"611 -290 LINE",
"798 -290 LINE",
"798 -290 LINE",
"611 -290 LINE"
);
}
);
width = 1033;
},
{
layerId = "0B87BBC7-D91E-4FE2-8C5B-3F1AF694BBA3";
paths = (
{
closed = 1;
nodes = (
"885 -369 LINE",
"885 -212 LINE",
"650 -212 LINE",
"620 -180 LINE",
"800 0 LINE",
"933 0 LINE",
"933 283 LINE",
"383 283 LINE",
"383 565 LINE",
"864 565 LINE",
"864 848 LINE",
"383 848 LINE",
"383 1117 LINE",
"933 1117 LINE",
"933 1400 LINE",
"100 1400 LINE",
"100 0 LINE",
"579 0 LINE",
"417 -180 LINE",
"580 -369 LINE"
);
},
{
closed = 1;
nodes = (
"496 -180 LINE",
"791 132 LINE",
"791 132 LINE",
"231 132 LINE",
"231 1276 LINE",
"823 1276 LINE",
"823 1248 LINE",
"259 1248 LINE",
"259 721 LINE",
"753 721 LINE",
"753 693 LINE",
"259 693 LINE",
"259 160 LINE",
"823 160 LINE",
"823 132 LINE",
"823 132 LINE",
"532 -180 LINE",
"619 -277 LINE",
"818 -277 LINE",
"818 -304 LINE",
"606 -304 LINE"
);
}
);
width = 1033;
},
{
layerId = "5C9A105A-DAE9-444D-816C-282B7EF25764";
paths = (
{
closed = 1;
nodes = (
"885 -369 LINE",
"885 -212 LINE",
"650 -212 LINE",
"620 -180 LINE",
"800 0 LINE",
"933 0 LINE",
"933 283 LINE",
"383 283 LINE",
"383 565 LINE",
"864 565 LINE",
"864 848 LINE",
"383 848 LINE",
"383 1117 LINE",
"933 1117 LINE",
"933 1400 LINE",
"100 1400 LINE",
"100 0 LINE",
"579 0 LINE",
"417 -180 LINE",
"580 -369 LINE"
);
},
{
closed = 1;
nodes = (
"454 -180 LINE",
"617 0 LINE",
"617 27 LINE",
"127 27 LINE",
"127 1373 LINE",
"906 1373 LINE",
"906 1144 LINE",
"356 1144 LINE",
"356 821 LINE",
"837 821 LINE",
"837 592 LINE",
"356 592 LINE",
"356 256 LINE",
"906 256 LINE",
"906 27 LINE",
"787 27 LINE",
"580 -180 LINE",
"637 -239 LINE",
"859 -239 LINE",
"859 -342 LINE",
"596 -342 LINE"
);
}
);
width = 1033;
},
{
layerId = "DDC1C77E-A6A2-4CE9-BB8A-1D9C0DC11BA6";
paths = (
{
closed = 1;
nodes = (
"915 -369 LINE",
"915 -212 LINE",
"680 -212 LINE",
"650 -180 LINE",
"830 0 LINE",
"963 0 LINE",
"963 283 LINE",
"413 283 LINE",
"413 565 LINE",
"894 565 LINE",
"894 848 LINE",
"413 848 LINE",
"413 1117 LINE",
"963 1117 LINE",
"963 1400 LINE",
"130 1400 LINE",
"130 0 LINE",
"609 0 LINE",
"447 -180 LINE",
"610 -369 LINE"
);
},
{
closed = 1;
nodes = (
"484 -180 LINE",
"647 0 LINE",
"647 27 LINE",
"157 27 LINE",
"157 1373 LINE",
"936 1373 LINE",
"936 1144 LINE",
"386 1144 LINE",
"386 821 LINE",
"867 821 LINE",
"867 592 LINE",
"386 592 LINE",
"386 256 LINE",
"936 256 LINE",
"936 27 LINE",
"817 27 LINE",
"610 -180 LINE",
"667 -239 LINE",
"889 -239 LINE",
"889 -342 LINE",
"626 -342 LINE"
);
}
);
width = 1093;
},
{
layerId = "0A080BD2-62EB-4516-9B42-F4E1F6E1D6F2";
paths = (
{
closed = 1;
nodes = (
"915 -369 LINE",
"915 -212 LINE",
"680 -212 LINE",
"650 -180 LINE",
"830 0 LINE",
"963 0 LINE",
"963 283 LINE",
"413 283 LINE",
"413 565 LINE",
"894 565 LINE",
"894 848 LINE",
"413 848 LINE",
"413 1117 LINE",
"963 1117 LINE",
"963 1400 LINE",
"130 1400 LINE",
"130 0 LINE",
"609 0 LINE",
"447 -180 LINE",
"610 -369 LINE"
);
},
{
closed = 1;
nodes = (
"526 -180 LINE",
"821 132 LINE",
"821 132 LINE",
"261 132 LINE",
"261 1276 LINE",
"853 1276 LINE",
"853 1248 LINE",
"289 1248 LINE",
"289 721 LINE",
"783 721 LINE",
"783 693 LINE",
"289 693 LINE",
"289 160 LINE",
"853 160 LINE",
"853 132 LINE",
"853 132 LINE",
"562 -180 LINE",
"649 -277 LINE",
"848 -277 LINE",
"848 -304 LINE",
"636 -304 LINE"
);
}
);
width = 1093;
},
{
layerId = "2B3778D7-DDED-4DCC-ADC4-D63709EF26D1";
paths = (
{
closed = 1;
nodes = (
"915 -369 LINE",
"915 -212 LINE",
"680 -212 LINE",
"650 -180 LINE",
"830 0 LINE",
"963 0 LINE",
"963 283 LINE",
"413 283 LINE",
"413 565 LINE",
"894 565 LINE",
"894 848 LINE",
"413 848 LINE",
"413 1117 LINE",
"963 1117 LINE",
"963 1400 LINE",
"130 1400 LINE",
"130 0 LINE",
"609 0 LINE",
"447 -180 LINE",
"610 -369 LINE"
);
},
{
closed = 1;
nodes = (
"544 -180 LINE",
"843 142 LINE",
"843 142 LINE",
"275 142 LINE",
"275 1259 LINE",
"839 1259 LINE",
"839 1259 LINE",
"275 1259 LINE",
"275 707 LINE",
"763 707 LINE",
"763 707 LINE",
"275 707 LINE",
"275 142 LINE",
"843 142 LINE",
"843 142 LINE",
"843 142 LINE",
"544 -180 LINE",
"641 -290 LINE",
"828 -290 LINE",
"828 -290 LINE",
"641 -290 LINE"
);
}
);
width = 1093;
}
);
unicode = 0118;
},
{
color = 6;
glyphname = F;
lastChange = "2021-04-27 15:17:23 +0000";
layers = (
{
anchors = (
{
name = bottom;
position = "{376, 0}";
},
{
name = top;
position = "{376, 1400}";
}
);
layerId = "0B87BBC7-D91E-4FE2-8C5B-3F1AF694BBA3";
paths = (
{
closed = 1;
nodes = (
"383 0 LINE",
"383 565 LINE",
"645 565 LINE",
"645 848 LINE",
"383 848 LINE",
"383 1117 LINE",
"683 1117 LINE",
"683 1400 LINE",
"100 1400 LINE",
"100 0 LINE"
);
},
{
closed = 1;
nodes = (
"227 1276 LINE",
"558 1276 LINE",
"558 1248 LINE",
"255 1248 LINE",
"255 724 LINE",
"518 724 LINE",
"518 696 LINE",
"255 696 LINE",
"255 122 LINE",
"227 122 LINE"
);
}
);
width = 743;
},
{
anchors = (
{
name = bottom;
position = "{376, 0}";
},
{
name = top;
position = "{376, 1400}";
}
);
layerId = "5C9A105A-DAE9-444D-816C-282B7EF25764";
paths = (
{
closed = 1;
nodes = (
"383 0 LINE",
"383 565 LINE",
"645 565 LINE",
"645 848 LINE",
"383 848 LINE",
"383 1117 LINE",
"683 1117 LINE",
"683 1400 LINE",
"100 1400 LINE",
"100 0 LINE"
);
},
{
closed = 1;
nodes = (
"127 1373 LINE",
"657 1373 LINE",
"657 1144 LINE",
"356 1144 LINE",
"356 821 LINE",
"618 821 LINE",
"618 592 LINE",
"356 592 LINE",
"356 27 LINE",
"127 27 LINE"
);
}
);
width = 743;
},
{
anchors = (
{
name = bottom;
position = "{376, 0}";
},
{
name = top;
position = "{376, 1400}";
}
);
layerId = "F883F2BF-97BC-4587-9596-6665658F6F40";
paths = (
{
closed = 1;
nodes = (
"383 0 LINE",
"383 565 LINE",
"645 565 LINE",
"645 848 LINE",
"383 848 LINE",
"383 1117 LINE",
"683 1117 LINE",
"683 1400 LINE",
"100 1400 LINE",
"100 0 LINE"
);
},
{
closed = 1;
nodes = (
"241 1258 LINE",
"538 1258 LINE",
"538 1259 LINE",
"240 1259 LINE",
"240 710 LINE",
"498 710 LINE",
"498 711 LINE",
"240 711 LINE",
"240 142 LINE",
"241 142 LINE"
);
}
);
width = 743;
},
{
anchors = (
{
name = bottom;
position = "{753, 0}";
},
{
name = top;
position = "{753, 1400}";
}
);
layerId = "DDC1C77E-A6A2-4CE9-BB8A-1D9C0DC11BA6";
paths = (
{
closed = 1;
nodes = (
"413 0 LINE",
"413 565 LINE",
"1288 565 LINE",
"1288 848 LINE",
"413 848 LINE",
"413 1117 LINE",
"1326 1117 LINE",
"1326 1400 LINE",
"130 1400 LINE",
"130 0 LINE"
);
},
{
closed = 1;
nodes = (
"157 1373 LINE",
"1300 1373 LINE",
"1300 1144 LINE",
"386 1144 LINE",
"386 821 LINE",
"1261 821 LINE",
"1261 592 LINE",
"386 592 LINE",
"386 27 LINE",
"157 27 LINE"
);
}
);
width = 1416;
},
{
anchors = (
{
name = bottom;
position = "{753, 0}";
},
{
name = top;
position = "{753, 1400}";
}
);
layerId = "0A080BD2-62EB-4516-9B42-F4E1F6E1D6F2";
paths = (
{
closed = 1;
nodes = (
"413 0 LINE",
"413 565 LINE",
"1288 565 LINE",
"1288 848 LINE",
"413 848 LINE",
"413 1117 LINE",
"1326 1117 LINE",
"1326 1400 LINE",
"130 1400 LINE",
"130 0 LINE"
);
},
{
closed = 1;
nodes = (
"257 1276 LINE",
"1201 1276 LINE",
"1201 1248 LINE",
"285 1248 LINE",
"285 724 LINE",
"1161 724 LINE",
"1161 696 LINE",
"285 696 LINE",
"285 122 LINE",
"257 122 LINE"
);
}
);
width = 1416;
},
{
anchors = (
{
name = bottom;
position = "{753, 0}";
},
{
name = top;
position = "{753, 1400}";
}
);
layerId = "2B3778D7-DDED-4DCC-ADC4-D63709EF26D1";
paths = (
{
closed = 1;
nodes = (
"413 0 LINE",
"413 565 LINE",
"1288 565 LINE",
"1288 848 LINE",
"413 848 LINE",
"413 1117 LINE",
"1326 1117 LINE",
"1326 1400 LINE",
"130 1400 LINE",
"130 0 LINE"
);
},
{
closed = 1;
nodes = (
"271 1258 LINE",
"1181 1258 LINE",
"1181 1259 LINE",
"270 1259 LINE",
"270 710 LINE",
"1141 710 LINE",
"1141 711 LINE",
"270 711 LINE",
"270 142 LINE",
"271 142 LINE"
);
}
);
width = 1416;
}
);
leftKerningGroup = H;
leftMetricsKey = O;
rightKerningGroup = F;
rightMetricsKey = T;
unicode = 0046;
},
{
color = 6;
glyphname = G;
lastChange = "2021-04-27 15:17:23 +0000";
layers = (
{
anchors = (
{
name = bottom;
position = "{490, 0}";
},
{
name = top;
position = "{490, 1400}";
}
);
layerId = "0B87BBC7-D91E-4FE2-8C5B-3F1AF694BBA3";
paths = (
{
closed = 1;
nodes = (
"662 0 LINE",
"868 206 LINE",
"868 764 LINE",
"455 764 LINE",
"455 482 LINE",
"586 482 LINE",
"586 344 LINE",
"525 283 LINE",
"442 283 LINE",
"382 343 LINE",
"382 1054 LINE",
"442 1117 LINE",
"525 1117 LINE",
"586 1056 LINE",
"586 942 LINE",
"868 942 LINE",
"868 1194 LINE",
"662 1400 LINE",
"306 1400 LINE",
"100 1194 LINE",
"100 206 LINE",
"306 0 LINE"
);
},
{
closed = 1;
nodes = (
"229 276 LINE",
"229 1132 LINE",
"373 1276 LINE",
"597 1276 LINE",
"741 1132 LINE",
"741 1062 LINE",
"713 1062 LINE",
"713 1124 LINE",
"587 1248 LINE",
"383 1248 LINE",
"257 1124 LINE",
"257 284 LINE",
"383 160 LINE",
"587 160 LINE",
"713 284 LINE",
"713 606 LINE",
"583 606 LINE",
"583 634 LINE",
"741 634 LINE",
"741 276 LINE",
"597 132 LINE",
"373 132 LINE"
);
}
);
width = 968;
},
{
anchors = (
{
name = bottom;
position = "{490, 0}";
},
{
name = top;
position = "{490, 1400}";
}
);
layerId = "5C9A105A-DAE9-444D-816C-282B7EF25764";
paths = (
{
closed = 1;
nodes = (
"662 0 LINE",
"868 206 LINE",
"868 764 LINE",
"455 764 LINE",
"455 482 LINE",
"586 482 LINE",
"586 344 LINE",
"525 283 LINE",
"442 283 LINE",
"382 343 LINE",
"382 1054 LINE",
"442 1117 LINE",
"525 1117 LINE",
"586 1056 LINE",
"586 942 LINE",
"868 942 LINE",
"868 1194 LINE",
"662 1400 LINE",
"306 1400 LINE",
"100 1194 LINE",
"100 206 LINE",
"306 0 LINE"
);
},
{
closed = 1;
nodes = (
"127 217 LINE",
"127 1183 LINE",
"317 1373 LINE",
"651 1373 LINE",
"842 1183 LINE",
"842 969 LINE",
"613 969 LINE",
"613 1067 LINE",
"536 1144 LINE",
"432 1144 LINE",
"355 1067 LINE",
"355 330 LINE",
"433 256 LINE",
"536 256 LINE",
"613 333 LINE",
"613 508 LINE",
"482 508 LINE",
"482 737 LINE",
"842 737 LINE",
"842 217 LINE",
"651 27 LINE",
"317 27 LINE"
);
}
);
width = 968;
},
{
anchors = (
{
name = bottom;
position = "{490, 0}";
},
{
name = top;
position = "{490, 1400}";
}
);
layerId = "F883F2BF-97BC-4587-9596-6665658F6F40";
paths = (
{
closed = 1;
nodes = (
"662 0 LINE",
"868 206 LINE",
"868 764 LINE",
"455 764 LINE",
"455 482 LINE",
"586 482 LINE",
"586 344 LINE",
"525 283 LINE",
"442 283 LINE",
"382 343 LINE",
"382 1054 LINE",
"442 1117 LINE",
"525 1117 LINE",
"586 1056 LINE",
"586 942 LINE",
"868 942 LINE",
"868 1194 LINE",
"662 1400 LINE",
"306 1400 LINE",
"100 1194 LINE",
"100 206 LINE",
"306 0 LINE"
);
},
{
closed = 1;
nodes = (
"242 282 LINE",
"242 1125 LINE",
"376 1259 LINE",
"597 1259 LINE",
"727 1125 LINE",
"727 1072 LINE",
"727 1072 LINE",
"727 1125 LINE",
"597 1259 LINE",
"376 1259 LINE",
"242 1125 LINE",
"242 282 LINE",
"382 142 LINE",
"587 142 LINE",
"727 282 LINE",
"727 620 LINE",
"604 620 LINE",
"604 620 LINE",
"727 620 LINE",
"727 282 LINE",
"587 142 LINE",
"382 142 LINE"
);
}
);
width = 968;
},
{
anchors = (
{
name = bottom;
position = "{787, 0}";
},
{
name = top;
position = "{787, 1400}";
}
);
layerId = "DDC1C77E-A6A2-4CE9-BB8A-1D9C0DC11BA6";
paths = (
{
closed = 1;
nodes = (
"1252 0 LINE",
"1458 206 LINE",
"1458 764 LINE",
"752 764 LINE",
"752 482 LINE",
"1176 482 LINE",
"1176 344 LINE",
"1115 283 LINE",
"472 283 LINE",
"412 343 LINE",
"412 1054 LINE",
"472 1117 LINE",
"1115 1117 LINE",
"1176 1056 LINE",
"1176 942 LINE",
"1458 942 LINE",
"1458 1194 LINE",
"1252 1400 LINE",
"336 1400 LINE",
"130 1194 LINE",
"130 206 LINE",
"336 0 LINE"
);
},
{
closed = 1;
nodes = (
"157 217 LINE",
"157 1183 LINE",
"347 1373 LINE",
"1241 1373 LINE",
"1432 1183 LINE",
"1432 969 LINE",
"1203 969 LINE",
"1203 1067 LINE",
"1126 1144 LINE",
"462 1144 LINE",
"385 1067 LINE",
"385 330 LINE",
"463 256 LINE",
"1126 256 LINE",
"1203 333 LINE",
"1203 508 LINE",
"779 508 LINE",
"779 737 LINE",
"1432 737 LINE",
"1432 217 LINE",
"1241 27 LINE",
"347 27 LINE"
);
}
);
width = 1588;
},
{
anchors = (
{
name = bottom;
position = "{787, 0}";
},
{
name = top;
position = "{787, 1400}";
}
);
layerId = "0A080BD2-62EB-4516-9B42-F4E1F6E1D6F2";
paths = (
{
closed = 1;
nodes = (
"1252 0 LINE",
"1458 206 LINE",
"1458 764 LINE",
"752 764 LINE",
"752 482 LINE",
"1176 482 LINE",
"1176 344 LINE",
"1115 283 LINE",
"472 283 LINE",
"412 343 LINE",
"412 1054 LINE",
"472 1117 LINE",
"1115 1117 LINE",
"1176 1056 LINE",
"1176 942 LINE",
"1458 942 LINE",
"1458 1194 LINE",
"1252 1400 LINE",
"336 1400 LINE",
"130 1194 LINE",
"130 206 LINE",
"336 0 LINE"
);
},
{
closed = 1;
nodes = (
"259 276 LINE",
"259 1132 LINE",
"403 1276 LINE",
"1187 1276 LINE",
"1331 1132 LINE",
"1331 1062 LINE",
"1303 1062 LINE",
"1303 1124 LINE",
"1177 1248 LINE",
"413 1248 LINE",
"287 1124 LINE",
"287 284 LINE",
"413 160 LINE",
"1177 160 LINE",
"1303 284 LINE",
"1303 606 LINE",
"880 606 LINE",
"880 634 LINE",
"1331 634 LINE",
"1331 276 LINE",
"1187 132 LINE",
"403 132 LINE"
);
}
);
width = 1588;
},
{
anchors = (
{
name = bottom;
position = "{787, 0}";
},
{
name = top;
position = "{787, 1400}";
}
);
layerId = "2B3778D7-DDED-4DCC-ADC4-D63709EF26D1";
paths = (
{
closed = 1;
nodes = (
"1252 0 LINE",
"1458 206 LINE",
"1458 764 LINE",
"752 764 LINE",
"752 482 LINE",
"1176 482 LINE",
"1176 344 LINE",
"1115 283 LINE",
"472 283 LINE",
"412 343 LINE",
"412 1054 LINE",
"472 1117 LINE",
"1115 1117 LINE",
"1176 1056 LINE",
"1176 942 LINE",
"1458 942 LINE",
"1458 1194 LINE",
"1252 1400 LINE",
"336 1400 LINE",
"130 1194 LINE",
"130 206 LINE",
"336 0 LINE"
);
},
{
closed = 1;
nodes = (
"272 282 LINE",
"272 1125 LINE",
"406 1259 LINE",
"1187 1259 LINE",
"1317 1125 LINE",
"1317 1072 LINE",
"1317 1072 LINE",
"1317 1125 LINE",
"1187 1259 LINE",
"406 1259 LINE",
"272 1125 LINE",
"272 282 LINE",
"412 142 LINE",
"1177 142 LINE",
"1317 282 LINE",
"1317 620 LINE",
"901 620 LINE",
"901 620 LINE",
"1317 620 LINE",
"1317 282 LINE",
"1177 142 LINE",
"412 142 LINE"
);
}
);
width = 1588;
}
);
leftKerningGroup = O;
leftMetricsKey = O;
rightKerningGroup = G;
rightMetricsKey = O;
unicode = 0047;
},
{
color = 6;
glyphname = H;
lastChange = "2021-04-27 15:17:24 +0000";
layers = (
{
anchors = (
{
name = bottom;
position = "{473, 0}";
},
{
name = center;
position = "{483, 700}";
},
{
name = top;
position = "{473, 1400}";
},
{
name = topleft;
position = "{-97, 1400}";
}
);
layerId = "0B87BBC7-D91E-4FE2-8C5B-3F1AF694BBA3";
paths = (
{
closed = 1;
nodes = (
"393 0 LINE",
"393 565 LINE",
"553 565 LINE",
"553 0 LINE",
"835 0 LINE",
"835 1400 LINE",
"553 1400 LINE",
"553 848 LINE",
"393 848 LINE",
"393 1400 LINE",
"110 1400 LINE",
"110 0 LINE"
);
},
{
closed = 1;
nodes = (
"238 1276 LINE",
"266 1276 LINE",
"266 724 LINE",
"681 724 LINE",
"681 1276 LINE",
"709 1276 LINE",
"709 124 LINE",
"681 124 LINE",
"681 696 LINE",
"266 696 LINE",
"266 124 LINE",
"238 124 LINE"
);
}
);
width = 945;
},
{
anchors = (
{
name = bottom;
position = "{473, 0}";
},
{
name = center;
position = "{483, 700}";
},
{
name = top;
position = "{473, 1400}";
},
{
name = topleft;
position = "{110, 1400}";
}
);
layerId = "5C9A105A-DAE9-444D-816C-282B7EF25764";
paths = (
{
closed = 1;
nodes = (
"393 0 LINE",
"393 565 LINE",
"553 565 LINE",
"553 0 LINE",
"835 0 LINE",
"835 1400 LINE",
"553 1400 LINE",
"553 848 LINE",
"393 848 LINE",
"393 1400 LINE",
"110 1400 LINE",
"110 0 LINE"
);
},
{
closed = 1;
nodes = (
"137 1373 LINE",
"366 1373 LINE",
"366 821 LINE",
"580 821 LINE",
"580 1373 LINE",
"808 1373 LINE",
"808 27 LINE",
"580 27 LINE",
"580 592 LINE",
"366 592 LINE",
"366 27 LINE",
"137 27 LINE"
);
}
);
width = 945;
},
{
anchors = (
{
name = bottom;
position = "{473, 0}";
},
{
name = center;
position = "{483, 700}";
},
{
name = top;
position = "{473, 1400}";
},
{
name = topleft;
position = "{110, 1400}";
}
);
layerId = "F883F2BF-97BC-4587-9596-6665658F6F40";
paths = (
{
closed = 1;
nodes = (
"393 0 LINE",
"393 565 LINE",
"553 565 LINE",
"553 0 LINE",
"835 0 LINE",
"835 1400 LINE",
"553 1400 LINE",
"553 848 LINE",
"393 848 LINE",
"393 1400 LINE",
"110 1400 LINE",
"110 0 LINE"
);
},
{
closed = 1;
nodes = (
"251 1259 LINE",
"250 1259 LINE",
"250 707 LINE",
"696 707 LINE",
"696 1259 LINE",
"695 1259 LINE",
"695 142 LINE",
"696 142 LINE",
"696 707 LINE",
"250 707 LINE",
"250 142 LINE",
"251 142 LINE"
);
}
);
width = 945;
},
{
anchors = (
{
name = bottom;
position = "{806, 0}";
},
{
name = center;
position = "{850, 1867}";
},
{
name = top;
position = "{823, 1400}";
},
{
name = topleft;
position = "{-92, 1400}";
}
);
layerId = "DDC1C77E-A6A2-4CE9-BB8A-1D9C0DC11BA6";
paths = (
{
closed = 1;
nodes = (
"423 0 LINE",
"423 565 LINE",
"1223 565 LINE",
"1223 0 LINE",
"1505 0 LINE",
"1505 1400 LINE",
"1223 1400 LINE",
"1223 848 LINE",
"423 848 LINE",
"423 1400 LINE",
"140 1400 LINE",
"140 0 LINE"
);
},
{
closed = 1;
nodes = (
"167 1373 LINE",
"396 1373 LINE",
"396 821 LINE",
"1250 821 LINE",
"1250 1373 LINE",
"1478 1373 LINE",
"1478 27 LINE",
"1250 27 LINE",
"1250 592 LINE",
"396 592 LINE",
"396 27 LINE",
"167 27 LINE"
);
}
);
width = 1645;
},
{
anchors = (
{
name = bottom;
position = "{806, 0}";
},
{
name = center;
position = "{850, 1867}";
},
{
name = top;
position = "{823, 1400}";
},
{
name = topleft;
position = "{253, 1400}";
}
);
layerId = "0A080BD2-62EB-4516-9B42-F4E1F6E1D6F2";
paths = (
{
closed = 1;
nodes = (
"423 0 LINE",
"423 565 LINE",
"1223 565 LINE",
"1223 0 LINE",
"1505 0 LINE",
"1505 1400 LINE",
"1223 1400 LINE",
"1223 848 LINE",
"423 848 LINE",
"423 1400 LINE",
"140 1400 LINE",
"140 0 LINE"
);
},
{
closed = 1;
nodes = (
"268 1276 LINE",
"296 1276 LINE",
"296 724 LINE",
"1351 724 LINE",
"1351 1276 LINE",
"1379 1276 LINE",
"1379 124 LINE",
"1351 124 LINE",
"1351 696 LINE",
"296 696 LINE",
"296 124 LINE",
"268 124 LINE"
);
}
);
width = 1645;
},
{
anchors = (
{
name = bottom;
position = "{806, 0}";
},
{
name = center;
position = "{850, 1867}";
},
{
name = top;
position = "{823, 1400}";
},
{
name = topleft;
position = "{-92, 1400}";
}
);
layerId = "2B3778D7-DDED-4DCC-ADC4-D63709EF26D1";
paths = (
{
closed = 1;
nodes = (
"423 0 LINE",
"423 565 LINE",
"1223 565 LINE",
"1223 0 LINE",
"1505 0 LINE",
"1505 1400 LINE",
"1223 1400 LINE",
"1223 848 LINE",
"423 848 LINE",
"423 1400 LINE",
"140 1400 LINE",
"140 0 LINE"
);
},
{
closed = 1;
nodes = (
"281 1259 LINE",
"280 1259 LINE",
"280 707 LINE",
"1366 707 LINE",
"1366 1259 LINE",
"1365 1259 LINE",
"1365 142 LINE",
"1366 142 LINE",
"1366 707 LINE",
"280 707 LINE",
"280 142 LINE",
"281 142 LINE"
);
}
);
width = 1645;
}
);
leftKerningGroup = H;
rightKerningGroup = H;
unicode = 0048;
},
{
color = 6;
glyphname = Hbar;
lastChange = "2021-04-27 15:17:23 +0000";
layers = (
{
layerId = "0B87BBC7-D91E-4FE2-8C5B-3F1AF694BBA3";
paths = (
{
closed = 1;
nodes = (
"410 0 LINE",
"410 565 LINE",
"810 565 LINE",
"810 0 LINE",
"1093 0 LINE",
"1093 979 LINE",
"1193 979 LINE",
"1193 1225 LINE",
"1093 1225 LINE",
"1093 1400 LINE",
"810 1400 LINE",
"810 1225 LINE",
"410 1225 LINE",
"410 1400 LINE",
"127 1400 LINE",
"127 1225 LINE",
"18 1225 LINE",
"18 979 LINE",
"127 979 LINE",
"127 0 LINE"
);
},
{
closed = 1;
nodes = (
"255 1101 LINE",
"126 1101 LINE",
"126 1129 LINE",
"255 1129 LINE",
"255 1286 LINE",
"283 1286 LINE",
"283 1129 LINE",
"937 1129 LINE",
"937 1286 LINE",
"965 1286 LINE",
"965 1129 LINE",
"1094 1129 LINE",
"1094 1101 LINE",
"965 1101 LINE",
"965 122 LINE",
"937 122 LINE",
"937 696 LINE",
"283 696 LINE",
"283 122 LINE",
"255 122 LINE"
);
},
{
closed = 1;
nodes = (
"937 724 LINE",
"937 1101 LINE",
"283 1101 LINE",
"283 724 LINE"
);
},
{
closed = 1;
nodes = (
"410 979 LINE",
"810 979 LINE",
"810 848 LINE",
"410 848 LINE"
);
}
);
width = 1240;
},
{
layerId = "5C9A105A-DAE9-444D-816C-282B7EF25764";
paths = (
{
closed = 1;
nodes = (
"410 0 LINE",
"410 565 LINE",
"810 565 LINE",
"810 0 LINE",
"1093 0 LINE",
"1093 979 LINE",
"1193 979 LINE",
"1193 1225 LINE",
"1093 1225 LINE",
"1093 1400 LINE",
"810 1400 LINE",
"810 1225 LINE",
"410 1225 LINE",
"410 1400 LINE",
"127 1400 LINE",
"127 1225 LINE",
"18 1225 LINE",
"18 979 LINE",
"127 979 LINE",
"127 0 LINE"
);
},
{
closed = 1;
nodes = (
"154 1006 LINE",
"44 1006 LINE",
"44 1198 LINE",
"154 1198 LINE",
"154 1373 LINE",
"383 1373 LINE",
"383 1198 LINE",
"837 1198 LINE",
"837 1373 LINE",
"1066 1373 LINE",
"1066 1198 LINE",
"1166 1198 LINE",
"1166 1006 LINE",
"1066 1006 LINE",
"1066 27 LINE",
"837 27 LINE",
"837 592 LINE",
"383 592 LINE",
"383 27 LINE",
"154 27 LINE"
);
},
{
closed = 1;
nodes = (
"837 821 LINE",
"837 1006 LINE",
"383 1006 LINE",
"383 821 LINE"
);
},
{
closed = 1;
nodes = (
"410 979 LINE",
"810 979 LINE",
"810 848 LINE",
"410 848 LINE"
);
}
);
width = 1240;
},
{
layerId = "F883F2BF-97BC-4587-9596-6665658F6F40";
paths = (
{
closed = 1;
nodes = (
"410 0 LINE",
"410 565 LINE",
"810 565 LINE",
"810 0 LINE",
"1093 0 LINE",
"1093 979 LINE",
"1193 979 LINE",
"1193 1225 LINE",
"1093 1225 LINE",
"1093 1400 LINE",
"810 1400 LINE",
"810 1225 LINE",
"410 1225 LINE",
"410 1400 LINE",
"127 1400 LINE",
"127 1225 LINE",
"18 1225 LINE",
"18 979 LINE",
"127 979 LINE",
"127 0 LINE"
);
},
{
closed = 1;
nodes = (
"270 1115 LINE",
"146 1115 LINE",
"146 1115 LINE",
"269 1115 LINE",
"269 1259 LINE",
"269 1259 LINE",
"269 1114 LINE",
"951 1114 LINE",
"951 1259 LINE",
"951 1259 LINE",
"951 1115 LINE",
"1074 1115 LINE",
"1074 1115 LINE",
"950 1115 LINE",
"950 142 LINE",
"951 142 LINE",
"951 711 LINE",
"269 711 LINE",
"269 142 LINE",
"270 142 LINE"
);
},
{
closed = 1;
nodes = (
"951 710 LINE",
"951 1115 LINE",
"269 1115 LINE",
"269 710 LINE"
);
},
{
closed = 1;
nodes = (
"410 979 LINE",
"810 979 LINE",
"810 848 LINE",
"410 848 LINE"
);
}
);
width = 1240;
},
{
layerId = "DDC1C77E-A6A2-4CE9-BB8A-1D9C0DC11BA6";
paths = (
{
closed = 1;
nodes = (
"440 0 LINE",
"440 565 LINE",
"840 565 LINE",
"840 0 LINE",
"1123 0 LINE",
"1123 979 LINE",
"1223 979 LINE",
"1223 1225 LINE",
"1123 1225 LINE",
"1123 1400 LINE",
"840 1400 LINE",
"840 1225 LINE",
"440 1225 LINE",
"440 1400 LINE",
"157 1400 LINE",
"157 1225 LINE",
"48 1225 LINE",
"48 979 LINE",
"157 979 LINE",
"157 0 LINE"
);
},
{
closed = 1;
nodes = (
"184 1006 LINE",
"74 1006 LINE",
"74 1198 LINE",
"184 1198 LINE",
"184 1373 LINE",
"413 1373 LINE",
"413 1198 LINE",
"867 1198 LINE",
"867 1373 LINE",
"1096 1373 LINE",
"1096 1198 LINE",
"1196 1198 LINE",
"1196 1006 LINE",
"1096 1006 LINE",
"1096 27 LINE",
"867 27 LINE",
"867 592 LINE",
"413 592 LINE",
"413 27 LINE",
"184 27 LINE"
);
},
{
closed = 1;
nodes = (
"867 821 LINE",
"867 1006 LINE",
"413 1006 LINE",
"413 821 LINE"
);
},
{
closed = 1;
nodes = (
"440 979 LINE",
"840 979 LINE",
"840 848 LINE",
"440 848 LINE"
);
}
);
width = 1300;
},
{
layerId = "0A080BD2-62EB-4516-9B42-F4E1F6E1D6F2";
paths = (
{
closed = 1;
nodes = (
"440 0 LINE",
"440 565 LINE",
"840 565 LINE",
"840 0 LINE",
"1123 0 LINE",
"1123 979 LINE",
"1223 979 LINE",
"1223 1225 LINE",
"1123 1225 LINE",
"1123 1400 LINE",
"840 1400 LINE",
"840 1225 LINE",
"440 1225 LINE",
"440 1400 LINE",
"157 1400 LINE",
"157 1225 LINE",
"48 1225 LINE",
"48 979 LINE",
"157 979 LINE",
"157 0 LINE"
);
},
{
closed = 1;
nodes = (
"285 1101 LINE",
"156 1101 LINE",
"156 1129 LINE",
"285 1129 LINE",
"285 1286 LINE",
"313 1286 LINE",
"313 1129 LINE",
"967 1129 LINE",
"967 1286 LINE",
"995 1286 LINE",
"995 1129 LINE",
"1124 1129 LINE",
"1124 1101 LINE",
"995 1101 LINE",
"995 122 LINE",
"967 122 LINE",
"967 696 LINE",
"313 696 LINE",
"313 122 LINE",
"285 122 LINE"
);
},
{
closed = 1;
nodes = (
"967 724 LINE",
"967 1101 LINE",
"313 1101 LINE",
"313 724 LINE"
);
},
{
closed = 1;
nodes = (
"440 979 LINE",
"840 979 LINE",
"840 848 LINE",
"440 848 LINE"
);
}
);
width = 1300;
},
{
layerId = "2B3778D7-DDED-4DCC-ADC4-D63709EF26D1";
paths = (
{
closed = 1;
nodes = (
"440 0 LINE",
"440 565 LINE",
"840 565 LINE",
"840 0 LINE",
"1123 0 LINE",
"1123 979 LINE",
"1223 979 LINE",
"1223 1225 LINE",
"1123 1225 LINE",
"1123 1400 LINE",
"840 1400 LINE",
"840 1225 LINE",
"440 1225 LINE",
"440 1400 LINE",
"157 1400 LINE",
"157 1225 LINE",
"48 1225 LINE",
"48 979 LINE",
"157 979 LINE",
"157 0 LINE"
);
},
{
closed = 1;
nodes = (
"300 1115 LINE",
"176 1115 LINE",
"176 1115 LINE",
"299 1115 LINE",
"299 1259 LINE",
"299 1259 LINE",
"299 1114 LINE",
"981 1114 LINE",
"981 1259 LINE",
"981 1259 LINE",
"981 1115 LINE",
"1104 1115 LINE",
"1104 1115 LINE",
"980 1115 LINE",
"980 142 LINE",
"981 142 LINE",
"981 711 LINE",
"299 711 LINE",
"299 142 LINE",
"300 142 LINE"
);
},
{
closed = 1;
nodes = (
"981 710 LINE",
"981 1115 LINE",
"299 1115 LINE",
"299 710 LINE"
);
},
{
closed = 1;
nodes = (
"440 979 LINE",
"840 979 LINE",
"840 848 LINE",
"440 848 LINE"
);
}
);
width = 1300;
}
);
leftKerningGroup = H;
rightKerningGroup = H;
unicode = 0126;
},
{
color = 6;
glyphname = I;
lastChange = "2021-04-27 15:17:23 +0000";
layers = (
{
anchors = (
{
name = bottom;
position = "{381, 0}";
},
{
name = ogonek;
position = "{542, 10}";
},
{
name = top;
position = "{381, 1400}";
},
{
name = topleft;
position = "{100, 1400}";
}
);
layerId = "0B87BBC7-D91E-4FE2-8C5B-3F1AF694BBA3";
paths = (
{
closed = 1;
nodes = (
"662 0 LINE",
"662 283 LINE",
"522 283 LINE",
"522 1117 LINE",
"662 1117 LINE",
"662 1400 LINE",
"100 1400 LINE",
"100 1117 LINE",
"240 1117 LINE",
"240 283 LINE",
"100 283 LINE",
"100 0 LINE"
);
},
{
closed = 1;
nodes = (
"226 154 LINE",
"357 154 LINE",
"357 1248 LINE",
"226 1248 LINE",
"226 1276 LINE",
"537 1276 LINE",
"537 1248 LINE",
"385 1248 LINE",
"385 154 LINE",
"537 154 LINE",
"537 126 LINE",
"226 126 LINE"
);
}
);
width = 762;
},
{
anchors = (
{
name = bottom;
position = "{381, 0}";
},
{
name = ogonek;
position = "{542, 10}";
},
{
name = top;
position = "{381, 1400}";
},
{
name = topleft;
position = "{100, 1400}";
}
);
layerId = "5C9A105A-DAE9-444D-816C-282B7EF25764";
paths = (
{
closed = 1;
nodes = (
"662 0 LINE",
"662 283 LINE",
"522 283 LINE",
"522 1117 LINE",
"662 1117 LINE",
"662 1400 LINE",
"100 1400 LINE",
"100 1117 LINE",
"240 1117 LINE",
"240 283 LINE",
"100 283 LINE",
"100 0 LINE"
);
},
{
closed = 1;
nodes = (
"127 256 LINE",
"267 256 LINE",
"267 1144 LINE",
"127 1144 LINE",
"127 1373 LINE",
"635 1373 LINE",
"635 1144 LINE",
"495 1144 LINE",
"495 256 LINE",
"635 256 LINE",
"635 27 LINE",
"127 27 LINE"
);
}
);
width = 762;
},
{
anchors = (
{
name = bottom;
position = "{381, 0}";
},
{
name = ogonek;
position = "{542, 10}";
},
{
name = top;
position = "{381, 1400}";
},
{
name = topleft;
position = "{100, 1400}";
}
);
layerId = "F883F2BF-97BC-4587-9596-6665658F6F40";
paths = (
{
closed = 1;
nodes = (
"662 0 LINE",
"662 283 LINE",
"522 283 LINE",
"522 1117 LINE",
"662 1117 LINE",
"662 1400 LINE",
"100 1400 LINE",
"100 1117 LINE",
"240 1117 LINE",
"240 283 LINE",
"100 283 LINE",
"100 0 LINE"
);
},
{
closed = 1;
nodes = (
"226 142 LINE",
"381 142 LINE",
"381 1259 LINE",
"226 1259 LINE",
"226 1259 LINE",
"537 1259 LINE",
"537 1259 LINE",
"381 1259 LINE",
"381 142 LINE",
"537 142 LINE",
"537 142 LINE",
"226 142 LINE"
);
}
);
width = 762;
},
{
anchors = (
{
name = bottom;
position = "{678, 0}";
},
{
name = ogonek;
position = "{1497, 10}";
},
{
name = top;
position = "{678, 1400}";
},
{
name = topleft;
position = "{-27, 1400}";
}
);
layerId = "DDC1C77E-A6A2-4CE9-BB8A-1D9C0DC11BA6";
paths = (
{
closed = 1;
nodes = (
"1225 0 LINE",
"1225 283 LINE",
"819 283 LINE",
"819 1117 LINE",
"1225 1117 LINE",
"1225 1400 LINE",
"130 1400 LINE",
"130 1117 LINE",
"537 1117 LINE",
"537 283 LINE",
"130 283 LINE",
"130 0 LINE"
);
},
{
closed = 1;
nodes = (
"157 256 LINE",
"564 256 LINE",
"564 1144 LINE",
"157 1144 LINE",
"157 1373 LINE",
"1198 1373 LINE",
"1198 1144 LINE",
"792 1144 LINE",
"792 256 LINE",
"1198 256 LINE",
"1198 27 LINE",
"157 27 LINE"
);
}
);
width = 1355;
},
{
anchors = (
{
name = bottom;
position = "{678, 0}";
},
{
name = ogonek;
position = "{1497, 10}";
},
{
name = top;
position = "{678, 1400}";
},
{
name = topleft;
position = "{-27, 1400}";
}
);
layerId = "0A080BD2-62EB-4516-9B42-F4E1F6E1D6F2";
paths = (
{
closed = 1;
nodes = (
"1225 0 LINE",
"1225 283 LINE",
"819 283 LINE",
"819 1117 LINE",
"1225 1117 LINE",
"1225 1400 LINE",
"130 1400 LINE",
"130 1117 LINE",
"537 1117 LINE",
"537 283 LINE",
"130 283 LINE",
"130 0 LINE"
);
},
{
closed = 1;
nodes = (
"256 154 LINE",
"654 154 LINE",
"654 1248 LINE",
"256 1248 LINE",
"256 1276 LINE",
"1100 1276 LINE",
"1100 1248 LINE",
"682 1248 LINE",
"682 154 LINE",
"1100 154 LINE",
"1100 126 LINE",
"256 126 LINE"
);
}
);
width = 1355;
},
{
anchors = (
{
name = bottom;
position = "{678, 0}";
},
{
name = ogonek;
position = "{1497, 10}";
},
{
name = top;
position = "{678, 1400}";
},
{
name = topleft;
position = "{-27, 1400}";
}
);
layerId = "2B3778D7-DDED-4DCC-ADC4-D63709EF26D1";
paths = (
{
closed = 1;
nodes = (
"1225 0 LINE",
"1225 283 LINE",
"819 283 LINE",
"819 1117 LINE",
"1225 1117 LINE",
"1225 1400 LINE",
"130 1400 LINE",
"130 1117 LINE",
"537 1117 LINE",
"537 283 LINE",
"130 283 LINE",
"130 0 LINE"
);
},
{
closed = 1;
nodes = (
"256 142 LINE",
"678 142 LINE",
"678 1259 LINE",
"256 1259 LINE",
"256 1259 LINE",
"1100 1259 LINE",
"1100 1259 LINE",
"678 1259 LINE",
"678 142 LINE",
"1100 142 LINE",
"1100 142 LINE",
"256 142 LINE"
);
}
);
width = 1355;
}
);
leftKerningGroup = H;
leftMetricsKey = O;
rightKerningGroup = H;
rightMetricsKey = O;
unicode = 0049;
},
{
color = 6;
glyphname = I.ss01;
lastChange = "2021-04-27 15:17:25 +0000";
layers = (
{
anchors = (
{
name = bottom;
position = "{279, 0}";
},
{
name = ogonek;
position = "{526, 10}";
},
{
name = top;
position = "{279, 1400}";
},
{
name = topleft;
position = "{40, 1400}";
}
);
layerId = "0B87BBC7-D91E-4FE2-8C5B-3F1AF694BBA3";
paths = (
{
closed = 1;
nodes = (
"420 0 LINE",
"420 1400 LINE",
"138 1400 LINE",
"138 0 LINE"
);
},
{
closed = 1;
nodes = (
"267 1296 LINE",
"295 1296 LINE",
"295 112 LINE",
"267 112 LINE"
);
}
);
width = 558;
},
{
anchors = (
{
name = bottom;
position = "{279, 0}";
},
{
name = ogonek;
position = "{526, 10}";
},
{
name = top;
position = "{279, 1400}";
},
{
name = topleft;
position = "{40, 1400}";
}
);
layerId = "5C9A105A-DAE9-444D-816C-282B7EF25764";
paths = (
{
closed = 1;
nodes = (
"420 0 LINE",
"420 1400 LINE",
"138 1400 LINE",
"138 0 LINE"
);
},
{
closed = 1;
nodes = (
"165 1373 LINE",
"393 1373 LINE",
"393 27 LINE",
"165 27 LINE"
);
}
);
width = 558;
},
{
anchors = (
{
name = bottom;
position = "{279, 0}";
},
{
name = ogonek;
position = "{526, 10}";
},
{
name = top;
position = "{279, 1400}";
},
{
name = topleft;
position = "{40, 1400}";
}
);
layerId = "F883F2BF-97BC-4587-9596-6665658F6F40";
paths = (
{
closed = 1;
nodes = (
"420 0 LINE",
"420 1400 LINE",
"138 1400 LINE",
"138 0 LINE"
);
},
{
closed = 1;
nodes = (
"282 1259 LINE",
"281 1259 LINE",
"281 142 LINE",
"282 142 LINE"
);
}
);
width = 558;
},
{
anchors = (
{
name = bottom;
position = "{309, 0}";
},
{
name = ogonek;
position = "{556, 10}";
},
{
name = top;
position = "{309, 1400}";
},
{
name = topleft;
position = "{70, 1400}";
}
);
layerId = "DDC1C77E-A6A2-4CE9-BB8A-1D9C0DC11BA6";
paths = (
{
closed = 1;
nodes = (
"450 0 LINE",
"450 1400 LINE",
"168 1400 LINE",
"168 0 LINE"
);
},
{
closed = 1;
nodes = (
"195 1373 LINE",
"423 1373 LINE",
"423 27 LINE",
"195 27 LINE"
);
}
);
width = 618;
},
{
anchors = (
{
name = bottom;
position = "{309, 0}";
},
{
name = ogonek;
position = "{556, 10}";
},
{
name = top;
position = "{309, 1400}";
},
{
name = topleft;
position = "{70, 1400}";
}
);
layerId = "0A080BD2-62EB-4516-9B42-F4E1F6E1D6F2";
paths = (
{
closed = 1;
nodes = (
"450 0 LINE",
"450 1400 LINE",
"168 1400 LINE",
"168 0 LINE"
);
},
{
closed = 1;
nodes = (
"297 1296 LINE",
"325 1296 LINE",
"325 112 LINE",
"297 112 LINE"
);
}
);
width = 618;
},
{
anchors = (
{
name = bottom;
position = "{309, 0}";
},
{
name = ogonek;
position = "{556, 10}";
},
{
name = top;
position = "{309, 1400}";
},
{
name = topleft;
position = "{70, 1400}";
}
);
layerId = "2B3778D7-DDED-4DCC-ADC4-D63709EF26D1";
paths = (
{
closed = 1;
nodes = (
"450 0 LINE",
"450 1400 LINE",
"168 1400 LINE",
"168 0 LINE"
);
},
{
closed = 1;
nodes = (
"312 1259 LINE",
"311 1259 LINE",
"311 142 LINE",
"312 142 LINE"
);
}
);
width = 618;
}
);
leftKerningGroup = H;
rightKerningGroup = H;
},
{
color = 6;
glyphname = Iogonek;
lastChange = "2021-04-27 15:17:24 +0000";
layers = (
{
layerId = "F883F2BF-97BC-4587-9596-6665658F6F40";
paths = (
{
closed = 1;
nodes = (
"672 -368 LINE",
"672 -211 LINE",
"437 -211 LINE",
"407 -179 LINE",
"586 0 LINE",
"861 0 LINE",
"861 283 LINE",
"621 283 LINE",
"621 1117 LINE",
"861 1117 LINE",
"861 1400 LINE",
"99 1400 LINE",
"99 1117 LINE",
"339 1117 LINE",
"339 283 LINE",
"99 283 LINE",
"99 0 LINE",
"365 0 LINE",
"204 -179 LINE",
"367 -368 LINE"
);
},
{
closed = 1;
nodes = (
"306 -180 LINE",
"608 142 LINE",
"236 142 LINE",
"235 142 LINE",
"469 142 LINE",
"469 1259 LINE",
"227 1259 LINE",
"226 1259 LINE",
"734 1259 LINE",
"735 1259 LINE",
"469 1259 LINE",
"469 142 LINE",
"725 142 LINE",
"726 142 LINE",
"608 142 LINE",
"306 -180 LINE",
"401 -289 LINE",
"592 -289 LINE",
"593 -289 LINE",
"401 -289 LINE"
);
}
);
width = 960;
},
{
layerId = "0B87BBC7-D91E-4FE2-8C5B-3F1AF694BBA3";
paths = (
{
closed = 1;
nodes = (
"672 -368 LINE",
"672 -211 LINE",
"437 -211 LINE",
"407 -179 LINE",
"586 0 LINE",
"861 0 LINE",
"861 283 LINE",
"621 283 LINE",
"621 1117 LINE",
"861 1117 LINE",
"861 1400 LINE",
"99 1400 LINE",
"99 1117 LINE",
"339 1117 LINE",
"339 283 LINE",
"99 283 LINE",
"99 0 LINE",
"365 0 LINE",
"204 -179 LINE",
"367 -368 LINE"
);
},
{
closed = 1;
nodes = (
"291 -180 LINE",
"578 126 LINE",
"215 126 LINE",
"215 154 LINE",
"456 154 LINE",
"456 1248 LINE",
"215 1248 LINE",
"215 1276 LINE",
"746 1276 LINE",
"746 1248 LINE",
"484 1248 LINE",
"484 154 LINE",
"746 154 LINE",
"746 126 LINE",
"613 126 LINE",
"327 -180 LINE",
"414 -277 LINE",
"613 -277 LINE",
"613 -304 LINE",
"401 -304 LINE"
);
}
);
width = 960;
},
{
layerId = "5C9A105A-DAE9-444D-816C-282B7EF25764";
paths = (
{
closed = 1;
nodes = (
"672 -368 LINE",
"672 -211 LINE",
"437 -211 LINE",
"407 -179 LINE",
"586 0 LINE",
"861 0 LINE",
"861 283 LINE",
"621 283 LINE",
"621 1117 LINE",
"861 1117 LINE",
"861 1400 LINE",
"99 1400 LINE",
"99 1117 LINE",
"339 1117 LINE",
"339 283 LINE",
"99 283 LINE",
"99 0 LINE",
"365 0 LINE",
"204 -179 LINE",
"367 -368 LINE"
);
},
{
closed = 1;
nodes = (
"241 -179 LINE",
"428 27 LINE",
"126 27 LINE",
"126 256 LINE",
"366 256 LINE",
"366 1144 LINE",
"126 1144 LINE",
"126 1373 LINE",
"834 1373 LINE",
"834 1144 LINE",
"594 1144 LINE",
"594 256 LINE",
"834 256 LINE",
"834 27 LINE",
"575 27 LINE",
"367 -179 LINE",
"424 -238 LINE",
"646 -238 LINE",
"646 -341 LINE",
"383 -341 LINE"
);
}
);
width = 960;
},
{
layerId = "DDC1C77E-A6A2-4CE9-BB8A-1D9C0DC11BA6";
paths = (
{
closed = 1;
nodes = (
"702 -368 LINE",
"702 -211 LINE",
"467 -211 LINE",
"437 -179 LINE",
"616 0 LINE",
"891 0 LINE",
"891 283 LINE",
"651 283 LINE",
"651 1117 LINE",
"891 1117 LINE",
"891 1400 LINE",
"129 1400 LINE",
"129 1117 LINE",
"369 1117 LINE",
"369 283 LINE",
"129 283 LINE",
"129 0 LINE",
"395 0 LINE",
"234 -179 LINE",
"397 -368 LINE"
);
},
{
closed = 1;
nodes = (
"271 -179 LINE",
"458 27 LINE",
"156 27 LINE",
"156 256 LINE",
"396 256 LINE",
"396 1144 LINE",
"156 1144 LINE",
"156 1373 LINE",
"864 1373 LINE",
"864 1144 LINE",
"624 1144 LINE",
"624 256 LINE",
"864 256 LINE",
"864 27 LINE",
"605 27 LINE",
"397 -179 LINE",
"454 -238 LINE",
"676 -238 LINE",
"676 -341 LINE",
"413 -341 LINE"
);
}
);
width = 1020;
},
{
layerId = "0A080BD2-62EB-4516-9B42-F4E1F6E1D6F2";
paths = (
{
closed = 1;
nodes = (
"702 -368 LINE",
"702 -211 LINE",
"467 -211 LINE",
"437 -179 LINE",
"616 0 LINE",
"891 0 LINE",
"891 283 LINE",
"651 283 LINE",
"651 1117 LINE",
"891 1117 LINE",
"891 1400 LINE",
"129 1400 LINE",
"129 1117 LINE",
"369 1117 LINE",
"369 283 LINE",
"129 283 LINE",
"129 0 LINE",
"395 0 LINE",
"234 -179 LINE",
"397 -368 LINE"
);
},
{
closed = 1;
nodes = (
"321 -180 LINE",
"608 126 LINE",
"245 126 LINE",
"245 154 LINE",
"486 154 LINE",
"486 1248 LINE",
"245 1248 LINE",
"245 1276 LINE",
"776 1276 LINE",
"776 1248 LINE",
"514 1248 LINE",
"514 154 LINE",
"776 154 LINE",
"776 126 LINE",
"643 126 LINE",
"357 -180 LINE",
"444 -277 LINE",
"643 -277 LINE",
"643 -304 LINE",
"431 -304 LINE"
);
}
);
width = 1020;
},
{
layerId = "2B3778D7-DDED-4DCC-ADC4-D63709EF26D1";
paths = (
{
closed = 1;
nodes = (
"702 -368 LINE",
"702 -211 LINE",
"467 -211 LINE",
"437 -179 LINE",
"616 0 LINE",
"891 0 LINE",
"891 283 LINE",
"651 283 LINE",
"651 1117 LINE",
"891 1117 LINE",
"891 1400 LINE",
"129 1400 LINE",
"129 1117 LINE",
"369 1117 LINE",
"369 283 LINE",
"129 283 LINE",
"129 0 LINE",
"395 0 LINE",
"234 -179 LINE",
"397 -368 LINE"
);
},
{
closed = 1;
nodes = (
"336 -180 LINE",
"638 142 LINE",
"266 142 LINE",
"265 142 LINE",
"499 142 LINE",
"499 1259 LINE",
"257 1259 LINE",
"256 1259 LINE",
"764 1259 LINE",
"765 1259 LINE",
"499 1259 LINE",
"499 142 LINE",
"755 142 LINE",
"756 142 LINE",
"638 142 LINE",
"336 -180 LINE",
"431 -289 LINE",
"622 -289 LINE",
"623 -289 LINE",
"431 -289 LINE"
);
}
);
width = 1020;
}
);
unicode = 012E;
},
{
color = 6;
glyphname = J;
lastChange = "2021-04-27 15:17:24 +0000";
layers = (
{
anchors = (
{
name = bottom;
position = "{466, 0}";
},
{
name = top;
position = "{546, 1400}";
}
);
layerId = "0B87BBC7-D91E-4FE2-8C5B-3F1AF694BBA3";
paths = (
{
closed = 1;
nodes = (
"625 0 LINE",
"832 206 LINE",
"832 1400 LINE",
"291 1400 LINE",
"291 1117 LINE",
"549 1117 LINE",
"549 344 LINE",
"488 283 LINE",
"444 283 LINE",
"383 344 LINE",
"383 563 LINE",
"100 563 LINE",
"100 206 LINE",
"307 0 LINE"
);
},
{
closed = 1;
nodes = (
"228 278 LINE",
"228 438 LINE",
"256 438 LINE",
"256 287 LINE",
"382 162 LINE",
"556 162 LINE",
"682 287 LINE",
"682 1248 LINE",
"412 1248 LINE",
"412 1276 LINE",
"710 1276 LINE",
"710 278 LINE",
"566 134 LINE",
"372 134 LINE"
);
}
);
width = 932;
},
{
anchors = (
{
name = bottom;
position = "{466, 0}";
},
{
name = top;
position = "{546, 1400}";
}
);
layerId = "5C9A105A-DAE9-444D-816C-282B7EF25764";
paths = (
{
closed = 1;
nodes = (
"625 0 LINE",
"832 206 LINE",
"832 1400 LINE",
"291 1400 LINE",
"291 1117 LINE",
"549 1117 LINE",
"549 344 LINE",
"488 283 LINE",
"444 283 LINE",
"383 344 LINE",
"383 563 LINE",
"100 563 LINE",
"100 206 LINE",
"307 0 LINE"
);
},
{
closed = 1;
nodes = (
"127 217 LINE",
"127 537 LINE",
"356 537 LINE",
"356 333 LINE",
"433 256 LINE",
"499 256 LINE",
"576 333 LINE",
"576 1144 LINE",
"318 1144 LINE",
"318 1373 LINE",
"805 1373 LINE",
"805 217 LINE",
"614 27 LINE",
"318 27 LINE"
);
}
);
width = 932;
},
{
anchors = (
{
name = bottom;
position = "{466, 0}";
},
{
name = top;
position = "{546, 1400}";
}
);
layerId = "F883F2BF-97BC-4587-9596-6665658F6F40";
paths = (
{
closed = 1;
nodes = (
"625 0 LINE",
"832 206 LINE",
"832 1400 LINE",
"291 1400 LINE",
"291 1117 LINE",
"549 1117 LINE",
"549 344 LINE",
"488 283 LINE",
"444 283 LINE",
"383 344 LINE",
"383 563 LINE",
"100 563 LINE",
"100 206 LINE",
"307 0 LINE"
);
},
{
closed = 1;
nodes = (
"241 283 LINE",
"241 432 LINE",
"241 432 LINE",
"241 283 LINE",
"377 147 LINE",
"557 147 LINE",
"697 286 LINE",
"697 1259 LINE",
"434 1259 LINE",
"434 1259 LINE",
"697 1259 LINE",
"697 286 LINE",
"557 147 LINE",
"377 147 LINE"
);
}
);
width = 932;
},
{
anchors = (
{
name = bottom;
position = "{789, 0}";
},
{
name = top;
position = "{869, 1400}";
}
);
layerId = "DDC1C77E-A6A2-4CE9-BB8A-1D9C0DC11BA6";
paths = (
{
closed = 1;
nodes = (
"1162 0 LINE",
"1369 206 LINE",
"1369 1400 LINE",
"321 1400 LINE",
"321 1117 LINE",
"1086 1117 LINE",
"1086 344 LINE",
"1025 283 LINE",
"474 283 LINE",
"413 344 LINE",
"413 563 LINE",
"130 563 LINE",
"130 206 LINE",
"337 0 LINE"
);
},
{
closed = 1;
nodes = (
"157 217 LINE",
"157 537 LINE",
"386 537 LINE",
"386 333 LINE",
"463 256 LINE",
"1036 256 LINE",
"1113 333 LINE",
"1113 1144 LINE",
"348 1144 LINE",
"348 1373 LINE",
"1342 1373 LINE",
"1342 217 LINE",
"1151 27 LINE",
"348 27 LINE"
);
}
);
width = 1499;
},
{
anchors = (
{
name = bottom;
position = "{789, 0}";
},
{
name = top;
position = "{869, 1400}";
}
);
layerId = "0A080BD2-62EB-4516-9B42-F4E1F6E1D6F2";
paths = (
{
closed = 1;
nodes = (
"1162 0 LINE",
"1369 206 LINE",
"1369 1400 LINE",
"321 1400 LINE",
"321 1117 LINE",
"1086 1117 LINE",
"1086 344 LINE",
"1025 283 LINE",
"474 283 LINE",
"413 344 LINE",
"413 563 LINE",
"130 563 LINE",
"130 206 LINE",
"337 0 LINE"
);
},
{
closed = 1;
nodes = (
"258 278 LINE",
"258 438 LINE",
"286 438 LINE",
"286 287 LINE",
"412 162 LINE",
"1093 162 LINE",
"1219 287 LINE",
"1219 1248 LINE",
"442 1248 LINE",
"442 1276 LINE",
"1247 1276 LINE",
"1247 278 LINE",
"1103 134 LINE",
"402 134 LINE"
);
}
);
width = 1499;
},
{
anchors = (
{
name = bottom;
position = "{789, 0}";
},
{
name = top;
position = "{869, 1400}";
}
);
layerId = "2B3778D7-DDED-4DCC-ADC4-D63709EF26D1";
paths = (
{
closed = 1;
nodes = (
"1162 0 LINE",
"1369 206 LINE",
"1369 1400 LINE",
"321 1400 LINE",
"321 1117 LINE",
"1086 1117 LINE",
"1086 344 LINE",
"1025 283 LINE",
"474 283 LINE",
"413 344 LINE",
"413 563 LINE",
"130 563 LINE",
"130 206 LINE",
"337 0 LINE"
);
},
{
closed = 1;
nodes = (
"271 283 LINE",
"271 432 LINE",
"271 432 LINE",
"271 283 LINE",
"407 147 LINE",
"1094 147 LINE",
"1234 286 LINE",
"1234 1259 LINE",
"464 1259 LINE",
"464 1259 LINE",
"1234 1259 LINE",
"1234 286 LINE",
"1094 147 LINE",
"407 147 LINE"
);
}
);
width = 1499;
}
);
leftKerningGroup = J;
leftMetricsKey = O;
rightKerningGroup = J;
rightMetricsKey = O;
unicode = 004A;
},
{
color = 6;
glyphname = K;
lastChange = "2021-04-27 15:17:24 +0000";
layers = (
{
anchors = (
{
name = bottom;
position = "{481, 0}";
},
{
name = top;
position = "{481, 1400}";
}
);
layerId = "0B87BBC7-D91E-4FE2-8C5B-3F1AF694BBA3";
paths = (
{
closed = 1;
nodes = (
"393 0 LINE",
"393 565 LINE",
"448 565 LINE",
"567 447 LINE",
"567 0 LINE",
"850 0 LINE",
"850 565 LINE",
"709 708 LINE",
"850 848 LINE",
"850 1400 LINE",
"567 1400 LINE",
"567 967 LINE",
"448 848 LINE",
"393 848 LINE",
"393 1400 LINE",
"110 1400 LINE",
"110 0 LINE"
);
},
{
closed = 1;
nodes = (
"237 1276 LINE",
"265 1276 LINE",
"265 732 LINE",
"519 732 LINE",
"695 906 LINE",
"695 1276 LINE",
"723 1276 LINE",
"723 898 LINE",
"541 716 LINE",
"723 526 LINE",
"723 128 LINE",
"695 128 LINE",
"695 518 LINE",
"515 704 LINE",
"265 704 LINE",
"265 128 LINE",
"237 128 LINE"
);
}
);
width = 970;
},
{
anchors = (
{
name = bottom;
position = "{481, 0}";
},
{
name = top;
position = "{481, 1400}";
}
);
layerId = "5C9A105A-DAE9-444D-816C-282B7EF25764";
paths = (
{
closed = 1;
nodes = (
"393 0 LINE",
"393 565 LINE",
"448 565 LINE",
"567 447 LINE",
"567 0 LINE",
"850 0 LINE",
"850 565 LINE",
"709 708 LINE",
"850 848 LINE",
"850 1400 LINE",
"567 1400 LINE",
"567 967 LINE",
"448 848 LINE",
"393 848 LINE",
"393 1400 LINE",
"110 1400 LINE",
"110 0 LINE"
);
},
{
closed = 1;
nodes = (
"137 1373 LINE",
"366 1373 LINE",
"366 821 LINE",
"459 821 LINE",
"594 956 LINE",
"594 1373 LINE",
"823 1373 LINE",
"823 860 LINE",
"671 708 LINE",
"823 554 LINE",
"823 27 LINE",
"594 27 LINE",
"594 458 LINE",
"459 592 LINE",
"366 592 LINE",
"366 27 LINE",
"137 27 LINE"
);
}
);
width = 970;
},
{
anchors = (
{
name = bottom;
position = "{481, 0}";
},
{
name = top;
position = "{481, 1400}";
}
);
layerId = "F883F2BF-97BC-4587-9596-6665658F6F40";
paths = (
{
closed = 1;
nodes = (
"393 0 LINE",
"393 565 LINE",
"448 565 LINE",
"567 447 LINE",
"567 0 LINE",
"850 0 LINE",
"850 565 LINE",
"709 708 LINE",
"850 848 LINE",
"850 1400 LINE",
"567 1400 LINE",
"567 967 LINE",
"448 848 LINE",
"393 848 LINE",
"393 1400 LINE",
"110 1400 LINE",
"110 0 LINE"
);
},
{
closed = 1;
nodes = (
"253 1259 LINE",
"252 1259 LINE",
"252 716 LINE",
"524 716 LINE",
"710 902 LINE",
"710 1259 LINE",
"710 1259 LINE",
"710 902 LINE",
"524 716 LINE",
"710 522 LINE",
"710 142 LINE",
"710 142 LINE",
"710 522 LINE",
"524 716 LINE",
"252 716 LINE",
"252 142 LINE",
"253 142 LINE"
);
}
);
width = 970;
},
{
anchors = (
{
name = bottom;
position = "{804, 0}";
},
{
name = top;
position = "{804, 1400}";
}
);
layerId = "DDC1C77E-A6A2-4CE9-BB8A-1D9C0DC11BA6";
paths = (
{
closed = 1;
nodes = (
"423 0 LINE",
"423 565 LINE",
"1065 565 LINE",
"1184 447 LINE",
"1184 0 LINE",
"1467 0 LINE",
"1467 565 LINE",
"1326 708 LINE",
"1467 848 LINE",
"1467 1400 LINE",
"1184 1400 LINE",
"1184 967 LINE",
"1065 848 LINE",
"423 848 LINE",
"423 1400 LINE",
"140 1400 LINE",
"140 0 LINE"
);
},
{
closed = 1;
nodes = (
"167 1373 LINE",
"396 1373 LINE",
"396 821 LINE",
"1076 821 LINE",
"1211 956 LINE",
"1211 1373 LINE",
"1440 1373 LINE",
"1440 860 LINE",
"1288 708 LINE",
"1440 554 LINE",
"1440 27 LINE",
"1211 27 LINE",
"1211 458 LINE",
"1076 592 LINE",
"396 592 LINE",
"396 27 LINE",
"167 27 LINE"
);
}
);
width = 1625;
},
{
anchors = (
{
name = bottom;
position = "{804, 0}";
},
{
name = top;
position = "{804, 1400}";
}
);
layerId = "0A080BD2-62EB-4516-9B42-F4E1F6E1D6F2";
paths = (
{
closed = 1;
nodes = (
"423 0 LINE",
"423 565 LINE",
"1065 565 LINE",
"1184 447 LINE",
"1184 0 LINE",
"1467 0 LINE",
"1467 565 LINE",
"1326 708 LINE",
"1467 848 LINE",
"1467 1400 LINE",
"1184 1400 LINE",
"1184 967 LINE",
"1065 848 LINE",
"423 848 LINE",
"423 1400 LINE",
"140 1400 LINE",
"140 0 LINE"
);
},
{
closed = 1;
nodes = (
"267 1276 LINE",
"295 1276 LINE",
"295 732 LINE",
"1136 732 LINE",
"1312 906 LINE",
"1312 1276 LINE",
"1340 1276 LINE",
"1340 898 LINE",
"1158 716 LINE",
"1340 526 LINE",
"1340 128 LINE",
"1312 128 LINE",
"1312 518 LINE",
"1132 704 LINE",
"295 704 LINE",
"295 128 LINE",
"267 128 LINE"
);
}
);
width = 1625;
},
{
anchors = (
{
name = bottom;
position = "{804, 0}";
},
{
name = top;
position = "{804, 1400}";
}
);
layerId = "2B3778D7-DDED-4DCC-ADC4-D63709EF26D1";
paths = (
{
closed = 1;
nodes = (
"423 0 LINE",
"423 565 LINE",
"1065 565 LINE",
"1184 447 LINE",
"1184 0 LINE",
"1467 0 LINE",
"1467 565 LINE",
"1326 708 LINE",
"1467 848 LINE",
"1467 1400 LINE",
"1184 1400 LINE",
"1184 967 LINE",
"1065 848 LINE",
"423 848 LINE",
"423 1400 LINE",
"140 1400 LINE",
"140 0 LINE"
);
},
{
closed = 1;
nodes = (
"283 1259 LINE",
"282 1259 LINE",
"282 716 LINE",
"1141 716 LINE",
"1327 902 LINE",
"1327 1259 LINE",
"1327 1259 LINE",
"1327 902 LINE",
"1141 716 LINE",
"1327 522 LINE",
"1327 142 LINE",
"1327 142 LINE",
"1327 522 LINE",
"1141 716 LINE",
"282 716 LINE",
"282 142 LINE",
"283 142 LINE"
);
}
);
width = 1625;
}
);
leftKerningGroup = H;
leftMetricsKey = D;
rightKerningGroup = K;
unicode = 004B;
},
{
color = 6;
glyphname = L;
lastChange = "2021-04-27 15:17:23 +0000";
layers = (
{
anchors = (
{
name = bottom;
position = "{407, 0}";
},
{
name = center;
position = "{407, 700}";
},
{
name = top;
position = "{263, 1400}";
},
{
name = topright;
position = "{472, 932}";
}
);
layerId = "0B87BBC7-D91E-4FE2-8C5B-3F1AF694BBA3";
paths = (
{
closed = 1;
nodes = (
"694 0 LINE",
"694 283 LINE",
"393 283 LINE",
"393 1400 LINE",
"110 1400 LINE",
"110 0 LINE"
);
},
{
closed = 1;
nodes = (
"238 1276 LINE",
"266 1276 LINE",
"266 153 LINE",
"568 153 LINE",
"568 125 LINE",
"238 125 LINE"
);
}
);
width = 754;
},
{
anchors = (
{
name = bottom;
position = "{407, 0}";
},
{
name = center;
position = "{407, 700}";
},
{
name = top;
position = "{263, 1400}";
},
{
name = topright;
position = "{472, 932}";
}
);
layerId = "5C9A105A-DAE9-444D-816C-282B7EF25764";
paths = (
{
closed = 1;
nodes = (
"694 0 LINE",
"694 283 LINE",
"393 283 LINE",
"393 1400 LINE",
"110 1400 LINE",
"110 0 LINE"
);
},
{
closed = 1;
nodes = (
"137 1373 LINE",
"366 1373 LINE",
"366 256 LINE",
"667 256 LINE",
"667 27 LINE",
"137 27 LINE"
);
}
);
width = 754;
},
{
anchors = (
{
name = bottom;
position = "{407, 0}";
},
{
name = center;
position = "{407, 700}";
},
{
name = top;
position = "{263, 1400}";
},
{
name = topright;
position = "{472, 932}";
}
);
layerId = "F883F2BF-97BC-4587-9596-6665658F6F40";
paths = (
{
closed = 1;
nodes = (
"694 0 LINE",
"694 283 LINE",
"393 283 LINE",
"393 1400 LINE",
"110 1400 LINE",
"110 0 LINE"
);
},
{
closed = 1;
nodes = (
"252 1259 LINE",
"252 1259 LINE",
"252 142 LINE",
"558 142 LINE",
"558 142 LINE",
"252 142 LINE"
);
}
);
width = 754;
},
{
anchors = (
{
name = bottom;
position = "{704, 0}";
},
{
name = center;
position = "{704, 1867}";
},
{
name = top;
position = "{263, 1400}";
},
{
name = topright;
position = "{1139, 932}";
}
);
layerId = "DDC1C77E-A6A2-4CE9-BB8A-1D9C0DC11BA6";
paths = (
{
closed = 1;
nodes = (
"1337 0 LINE",
"1337 283 LINE",
"423 283 LINE",
"423 1400 LINE",
"140 1400 LINE",
"140 0 LINE"
);
},
{
closed = 1;
nodes = (
"167 1373 LINE",
"396 1373 LINE",
"396 256 LINE",
"1310 256 LINE",
"1310 27 LINE",
"167 27 LINE"
);
}
);
width = 1427;
},
{
anchors = (
{
name = bottom;
position = "{704, 0}";
},
{
name = center;
position = "{704, 1867}";
},
{
name = top;
position = "{263, 1400}";
},
{
name = topright;
position = "{1139, 932}";
}
);
layerId = "0A080BD2-62EB-4516-9B42-F4E1F6E1D6F2";
paths = (
{
closed = 1;
nodes = (
"1337 0 LINE",
"1337 283 LINE",
"423 283 LINE",
"423 1400 LINE",
"140 1400 LINE",
"140 0 LINE"
);
},
{
closed = 1;
nodes = (
"268 1276 LINE",
"296 1276 LINE",
"296 153 LINE",
"1211 153 LINE",
"1211 125 LINE",
"268 125 LINE"
);
}
);
width = 1427;
},
{
anchors = (
{
name = bottom;
position = "{704, 0}";
},
{
name = center;
position = "{704, 1867}";
},
{
name = top;
position = "{263, 1400}";
},
{
name = topright;
position = "{1139, 932}";
}
);
layerId = "2B3778D7-DDED-4DCC-ADC4-D63709EF26D1";
paths = (
{
closed = 1;
nodes = (
"1337 0 LINE",
"1337 283 LINE",
"423 283 LINE",
"423 1400 LINE",
"140 1400 LINE",
"140 0 LINE"
);
},
{
closed = 1;
nodes = (
"282 1259 LINE",
"282 1259 LINE",
"282 142 LINE",
"1201 142 LINE",
"1201 142 LINE",
"282 142 LINE"
);
}
);
width = 1427;
}
);
leftKerningGroup = H;
leftMetricsKey = D;
rightKerningGroup = L;
rightMetricsKey = T;
unicode = 004C;
},
{
color = 6;
glyphname = Lslash;
lastChange = "2021-04-27 15:17:24 +0000";
layers = (
{
layerId = "0B87BBC7-D91E-4FE2-8C5B-3F1AF694BBA3";
paths = (
{
closed = 1;
nodes = (
"979 0 LINE",
"979 283 LINE",
"449 283 LINE",
"449 597 LINE",
"791 732 LINE",
"791 982 LINE",
"449 847 LINE",
"449 1400 LINE",
"166 1400 LINE",
"166 738 LINE",
"49 691 LINE",
"49 441 LINE",
"166 488 LINE",
"166 0 LINE"
);
},
{
closed = 1;
nodes = (
"291 644 LINE",
"154 592 LINE",
"154 620 LINE",
"291 672 LINE",
"291 1296 LINE",
"319 1296 LINE",
"319 683 LINE",
"664 820 LINE",
"664 792 LINE",
"319 655 LINE",
"319 154 LINE",
"886 154 LINE",
"886 126 LINE",
"291 126 LINE"
);
}
);
width = 1070;
},
{
layerId = "5C9A105A-DAE9-444D-816C-282B7EF25764";
paths = (
{
closed = 1;
nodes = (
"979 0 LINE",
"979 283 LINE",
"449 283 LINE",
"449 597 LINE",
"791 732 LINE",
"791 982 LINE",
"449 847 LINE",
"449 1400 LINE",
"166 1400 LINE",
"166 738 LINE",
"49 691 LINE",
"49 441 LINE",
"166 488 LINE",
"166 0 LINE"
);
},
{
closed = 1;
nodes = (
"193 527 LINE",
"76 481 LINE",
"76 673 LINE",
"193 719 LINE",
"193 1373 LINE",
"422 1373 LINE",
"422 808 LINE",
"764 942 LINE",
"764 750 LINE",
"422 615 LINE",
"422 256 LINE",
"952 256 LINE",
"952 27 LINE",
"193 27 LINE"
);
}
);
width = 1070;
},
{
layerId = "F883F2BF-97BC-4587-9596-6665658F6F40";
paths = (
{
closed = 1;
nodes = (
"979 0 LINE",
"979 283 LINE",
"449 283 LINE",
"449 597 LINE",
"791 732 LINE",
"791 982 LINE",
"449 847 LINE",
"449 1400 LINE",
"166 1400 LINE",
"166 738 LINE",
"49 691 LINE",
"49 441 LINE",
"166 488 LINE",
"166 0 LINE"
);
},
{
closed = 1;
nodes = (
"304 663 LINE",
"642 797 LINE",
"642 797 LINE",
"304 663 LINE",
"304 1262 LINE",
"304 1262 LINE",
"304 663 LINE",
"182 614 LINE",
"182 614 LINE",
"304 663 LINE",
"304 142 LINE",
"886 142 LINE",
"886 142 LINE",
"304 142 LINE"
);
}
);
width = 1070;
},
{
layerId = "DDC1C77E-A6A2-4CE9-BB8A-1D9C0DC11BA6";
paths = (
{
closed = 1;
nodes = (
"1009 0 LINE",
"1009 283 LINE",
"479 283 LINE",
"479 597 LINE",
"821 732 LINE",
"821 982 LINE",
"479 847 LINE",
"479 1400 LINE",
"196 1400 LINE",
"196 738 LINE",
"79 691 LINE",
"79 441 LINE",
"196 488 LINE",
"196 0 LINE"
);
},
{
closed = 1;
nodes = (
"223 527 LINE",
"106 481 LINE",
"106 673 LINE",
"223 719 LINE",
"223 1373 LINE",
"452 1373 LINE",
"452 808 LINE",
"794 942 LINE",
"794 750 LINE",
"452 615 LINE",
"452 256 LINE",
"982 256 LINE",
"982 27 LINE",
"223 27 LINE"
);
}
);
width = 1130;
},
{
layerId = "0A080BD2-62EB-4516-9B42-F4E1F6E1D6F2";
paths = (
{
closed = 1;
nodes = (
"1009 0 LINE",
"1009 283 LINE",
"479 283 LINE",
"479 597 LINE",
"821 732 LINE",
"821 982 LINE",
"479 847 LINE",
"479 1400 LINE",
"196 1400 LINE",
"196 738 LINE",
"79 691 LINE",
"79 441 LINE",
"196 488 LINE",
"196 0 LINE"
);
},
{
closed = 1;
nodes = (
"321 644 LINE",
"184 592 LINE",
"184 620 LINE",
"321 672 LINE",
"321 1296 LINE",
"349 1296 LINE",
"349 683 LINE",
"694 820 LINE",
"694 792 LINE",
"349 655 LINE",
"349 154 LINE",
"916 154 LINE",
"916 126 LINE",
"321 126 LINE"
);
}
);
width = 1130;
},
{
layerId = "2B3778D7-DDED-4DCC-ADC4-D63709EF26D1";
paths = (
{
closed = 1;
nodes = (
"1009 0 LINE",
"1009 283 LINE",
"479 283 LINE",
"479 597 LINE",
"821 732 LINE",
"821 982 LINE",
"479 847 LINE",
"479 1400 LINE",
"196 1400 LINE",
"196 738 LINE",
"79 691 LINE",
"79 441 LINE",
"196 488 LINE",
"196 0 LINE"
);
},
{
closed = 1;
nodes = (
"334 663 LINE",
"672 797 LINE",
"672 797 LINE",
"334 663 LINE",
"334 1262 LINE",
"334 1262 LINE",
"334 663 LINE",
"212 614 LINE",
"212 614 LINE",
"334 663 LINE",
"334 142 LINE",
"916 142 LINE",
"916 142 LINE",
"334 142 LINE"
);
}
);
width = 1130;
}
);
leftKerningGroup = H;
rightKerningGroup = L;
unicode = 0141;
},
{
color = 6;
glyphname = M;
lastChange = "2021-04-27 15:17:24 +0000";
layers = (
{
anchors = (
{
name = bottom;
position = "{727, 0}";
},
{
name = top;
position = "{727, 1400}";
}
);
layerId = "0B87BBC7-D91E-4FE2-8C5B-3F1AF694BBA3";
paths = (
{
closed = 1;
nodes = (
"393 0 LINE",
"393 1116 LINE",
"420 1116 LINE",
"488 120 LINE",
"963 120 LINE",
"1032 1116 LINE",
"1058 1116 LINE",
"1058 0 LINE",
"1341 0 LINE",
"1341 1400 LINE",
"802 1400 LINE",
"736 407 LINE",
"715 407 LINE",
"649 1400 LINE",
"110 1400 LINE",
"110 0 LINE"
);
},
{
closed = 1;
nodes = (
"236 1274 LINE",
"538 1274 LINE",
"623 292 LINE",
"826 292 LINE",
"911 1274 LINE",
"1213 1274 LINE",
"1213 126 LINE",
"1185 126 LINE",
"1185 1242 LINE",
"939 1242 LINE",
"854 262 LINE",
"595 262 LINE",
"510 1242 LINE",
"264 1242 LINE",
"264 126 LINE",
"236 126 LINE"
);
}
);
width = 1451;
},
{
anchors = (
{
name = bottom;
position = "{726, 0}";
},
{
name = top;
position = "{726, 1400}";
}
);
layerId = "5C9A105A-DAE9-444D-816C-282B7EF25764";
paths = (
{
closed = 1;
nodes = (
"393 0 LINE",
"393 1116 LINE",
"420 1116 LINE",
"488 120 LINE",
"963 120 LINE",
"1032 1116 LINE",
"1058 1116 LINE",
"1058 0 LINE",
"1341 0 LINE",
"1341 1400 LINE",
"802 1400 LINE",
"736 407 LINE",
"715 407 LINE",
"649 1400 LINE",
"110 1400 LINE",
"110 0 LINE"
);
},
{
closed = 1;
nodes = (
"137 1373 LINE",
"623 1373 LINE",
"693 379 LINE",
"759 379 LINE",
"828 1373 LINE",
"1314 1373 LINE",
"1314 27 LINE",
"1085 27 LINE",
"1085 1145 LINE",
"1009 1145 LINE",
"937 147 LINE",
"514 147 LINE",
"442 1145 LINE",
"366 1145 LINE",
"366 27 LINE",
"137 27 LINE"
);
}
);
width = 1451;
},
{
anchors = (
{
name = bottom;
position = "{727, 0}";
},
{
name = top;
position = "{727, 1400}";
}
);
layerId = "F883F2BF-97BC-4587-9596-6665658F6F40";
paths = (
{
closed = 1;
nodes = (
"393 0 LINE",
"393 1116 LINE",
"420 1116 LINE",
"488 120 LINE",
"963 120 LINE",
"1032 1116 LINE",
"1058 1116 LINE",
"1058 0 LINE",
"1341 0 LINE",
"1341 1400 LINE",
"802 1400 LINE",
"736 407 LINE",
"715 407 LINE",
"649 1400 LINE",
"110 1400 LINE",
"110 0 LINE"
);
},
{
closed = 1;
nodes = (
"250 1259 LINE",
"527 1259 LINE",
"608 277 LINE",
"841 277 LINE",
"922 1259 LINE",
"1198 1259 LINE",
"1198 142 LINE",
"1199 142 LINE",
"1199 1259 LINE",
"922 1259 LINE",
"841 277 LINE",
"608 277 LINE",
"527 1259 LINE",
"249 1259 LINE",
"249 142 LINE",
"250 142 LINE"
);
}
);
width = 1451;
},
{
anchors = (
{
name = bottom;
position = "{1019, 0}";
},
{
name = top;
position = "{1019, 1400}";
}
);
layerId = "DDC1C77E-A6A2-4CE9-BB8A-1D9C0DC11BA6";
paths = (
{
closed = 1;
nodes = (
"423 0 LINE",
"423 1116 LINE",
"477 1116 LINE",
"751 120 LINE",
"1280 120 LINE",
"1555 1116 LINE",
"1608 1116 LINE",
"1608 0 LINE",
"1891 0 LINE",
"1891 1400 LINE",
"1325 1400 LINE",
"1053 407 LINE",
"978 407 LINE",
"706 1400 LINE",
"140 1400 LINE",
"140 0 LINE"
);
},
{
closed = 1;
nodes = (
"167 1373 LINE",
"683 1373 LINE",
"956 379 LINE",
"1076 379 LINE",
"1348 1373 LINE",
"1864 1373 LINE",
"1864 27 LINE",
"1635 27 LINE",
"1635 1145 LINE",
"1532 1145 LINE",
"1258 147 LINE",
"773 147 LINE",
"499 1145 LINE",
"396 1145 LINE",
"396 27 LINE",
"167 27 LINE"
);
}
);
width = 2031;
},
{
anchors = (
{
name = bottom;
position = "{1017, 0}";
},
{
name = top;
position = "{1017, 1400}";
}
);
layerId = "0A080BD2-62EB-4516-9B42-F4E1F6E1D6F2";
paths = (
{
closed = 1;
nodes = (
"423 0 LINE",
"423 1116 LINE",
"477 1116 LINE",
"751 120 LINE",
"1280 120 LINE",
"1555 1116 LINE",
"1608 1116 LINE",
"1608 0 LINE",
"1891 0 LINE",
"1891 1400 LINE",
"1325 1400 LINE",
"1053 407 LINE",
"978 407 LINE",
"706 1400 LINE",
"140 1400 LINE",
"140 0 LINE"
);
},
{
closed = 1;
nodes = (
"266 1274 LINE",
"595 1274 LINE",
"886 292 LINE",
"1143 292 LINE",
"1434 1274 LINE",
"1763 1274 LINE",
"1763 126 LINE",
"1735 126 LINE",
"1735 1242 LINE",
"1459 1242 LINE",
"1168 262 LINE",
"861 262 LINE",
"570 1242 LINE",
"294 1242 LINE",
"294 126 LINE",
"266 126 LINE"
);
}
);
width = 2031;
},
{
anchors = (
{
name = bottom;
position = "{1017, 0}";
},
{
name = top;
position = "{1017, 1400}";
}
);
layerId = "2B3778D7-DDED-4DCC-ADC4-D63709EF26D1";
paths = (
{
closed = 1;
nodes = (
"423 0 LINE",
"423 1116 LINE",
"477 1116 LINE",
"751 120 LINE",
"1280 120 LINE",
"1555 1116 LINE",
"1608 1116 LINE",
"1608 0 LINE",
"1891 0 LINE",
"1891 1400 LINE",
"1325 1400 LINE",
"1053 407 LINE",
"978 407 LINE",
"706 1400 LINE",
"140 1400 LINE",
"140 0 LINE"
);
},
{
closed = 1;
nodes = (
"280 1259 LINE",
"584 1259 LINE",
"871 277 LINE",
"1158 277 LINE",
"1445 1259 LINE",
"1748 1259 LINE",
"1748 142 LINE",
"1749 142 LINE",
"1749 1259 LINE",
"1445 1259 LINE",
"1158 277 LINE",
"871 277 LINE",
"584 1259 LINE",
"279 1259 LINE",
"279 142 LINE",
"280 142 LINE"
);
}
);
width = 2031;
}
);
leftKerningGroup = H;
leftMetricsKey = H;
rightKerningGroup = H;
rightMetricsKey = H;
unicode = 004D;
},
{
color = 6;
glyphname = N;
lastChange = "2021-04-27 15:17:24 +0000";
layers = (
{
anchors = (
{
name = bottom;
position = "{579, 0}";
},
{
name = top;
position = "{579, 1400}";
}
);
layerId = "0B87BBC7-D91E-4FE2-8C5B-3F1AF694BBA3";
paths = (
{
closed = 1;
nodes = (
"236 1271 LINE",
"527 1271 LINE",
"650 157 LINE",
"888 157 LINE",
"888 1276 LINE",
"916 1276 LINE",
"916 127 LINE",
"626 127 LINE",
"503 1239 LINE",
"264 1239 LINE",
"264 122 LINE",
"236 122 LINE"
);
},
{
closed = 1;
nodes = (
"393 0 LINE",
"393 1116 LINE",
"410 1116 LINE",
"512 0 LINE",
"1041 0 LINE",
"1041 1400 LINE",
"758 1400 LINE",
"758 287 LINE",
"739 287 LINE",
"639 1400 LINE",
"110 1400 LINE",
"110 0 LINE"
);
}
);
width = 1151;
},
{
anchors = (
{
name = bottom;
position = "{579, 0}";
},
{
name = top;
position = "{579, 1400}";
}
);
layerId = "5C9A105A-DAE9-444D-816C-282B7EF25764";
paths = (
{
closed = 1;
nodes = (
"137 1373 LINE",
"613 1373 LINE",
"717 259 LINE",
"785 259 LINE",
"785 1373 LINE",
"1014 1373 LINE",
"1014 27 LINE",
"538 27 LINE",
"430 1145 LINE",
"366 1145 LINE",
"366 27 LINE",
"137 27 LINE"
);
},
{
closed = 1;
nodes = (
"393 0 LINE",
"393 1116 LINE",
"410 1116 LINE",
"512 0 LINE",
"1041 0 LINE",
"1041 1400 LINE",
"758 1400 LINE",
"758 287 LINE",
"739 287 LINE",
"639 1400 LINE",
"110 1400 LINE",
"110 0 LINE"
);
}
);
width = 1151;
},
{
anchors = (
{
name = bottom;
position = "{579, 0}";
},
{
name = top;
position = "{579, 1400}";
}
);
layerId = "F883F2BF-97BC-4587-9596-6665658F6F40";
paths = (
{
closed = 1;
nodes = (
"251 1259 LINE",
"527 1259 LINE",
"626 142 LINE",
"900 142 LINE",
"900 1259 LINE",
"899 1259 LINE",
"899 142 LINE",
"626 142 LINE",
"527 1259 LINE",
"250 1259 LINE",
"250 142 LINE",
"251 142 LINE"
);
},
{
closed = 1;
nodes = (
"393 0 LINE",
"393 1116 LINE",
"410 1116 LINE",
"512 0 LINE",
"1041 0 LINE",
"1041 1400 LINE",
"758 1400 LINE",
"758 287 LINE",
"739 287 LINE",
"639 1400 LINE",
"110 1400 LINE",
"110 0 LINE"
);
}
);
width = 1151;
},
{
anchors = (
{
name = bottom;
position = "{892, 0}";
},
{
name = top;
position = "{892, 1400}";
}
);
layerId = "DDC1C77E-A6A2-4CE9-BB8A-1D9C0DC11BA6";
paths = (
{
closed = 1;
nodes = (
"167 1373 LINE",
"680 1373 LINE",
"1269 259 LINE",
"1382 259 LINE",
"1382 1373 LINE",
"1611 1373 LINE",
"1611 27 LINE",
"1100 27 LINE",
"505 1145 LINE",
"396 1145 LINE",
"396 27 LINE",
"167 27 LINE"
);
},
{
closed = 1;
nodes = (
"423 0 LINE",
"423 1116 LINE",
"487 1116 LINE",
"1082 0 LINE",
"1638 0 LINE",
"1638 1400 LINE",
"1355 1400 LINE",
"1355 287 LINE",
"1289 287 LINE",
"696 1400 LINE",
"140 1400 LINE",
"140 0 LINE"
);
}
);
width = 1778;
},
{
anchors = (
{
name = bottom;
position = "{892, 0}";
},
{
name = top;
position = "{892, 1400}";
}
);
layerId = "0A080BD2-62EB-4516-9B42-F4E1F6E1D6F2";
paths = (
{
closed = 1;
nodes = (
"266 1271 LINE",
"594 1271 LINE",
"1205 157 LINE",
"1485 157 LINE",
"1485 1276 LINE",
"1513 1276 LINE",
"1513 127 LINE",
"1186 127 LINE",
"574 1239 LINE",
"294 1239 LINE",
"294 122 LINE",
"266 122 LINE"
);
},
{
closed = 1;
nodes = (
"423 0 LINE",
"423 1116 LINE",
"487 1116 LINE",
"1082 0 LINE",
"1638 0 LINE",
"1638 1400 LINE",
"1355 1400 LINE",
"1355 287 LINE",
"1289 287 LINE",
"696 1400 LINE",
"140 1400 LINE",
"140 0 LINE"
);
}
);
width = 1778;
},
{
anchors = (
{
name = bottom;
position = "{892, 0}";
},
{
name = top;
position = "{892, 1400}";
}
);
layerId = "2B3778D7-DDED-4DCC-ADC4-D63709EF26D1";
paths = (
{
closed = 1;
nodes = (
"281 1259 LINE",
"585 1259 LINE",
"1193 142 LINE",
"1497 142 LINE",
"1497 1259 LINE",
"1496 1259 LINE",
"1496 142 LINE",
"1193 142 LINE",
"585 1259 LINE",
"280 1259 LINE",
"280 142 LINE",
"281 142 LINE"
);
},
{
closed = 1;
nodes = (
"423 0 LINE",
"423 1116 LINE",
"487 1116 LINE",
"1082 0 LINE",
"1638 0 LINE",
"1638 1400 LINE",
"1355 1400 LINE",
"1355 287 LINE",
"1289 287 LINE",
"696 1400 LINE",
"140 1400 LINE",
"140 0 LINE"
);
}
);
width = 1778;
}
);
leftKerningGroup = H;
leftMetricsKey = H;
rightKerningGroup = H;
rightMetricsKey = H;
unicode = 004E;
},
{
color = 6;
glyphname = Eng;
lastChange = "2021-04-27 15:17:23 +0000";
layers = (
{
layerId = "F883F2BF-97BC-4587-9596-6665658F6F40";
paths = (
{
closed = 1;
nodes = (
"919 -400 LINE",
"1125 -194 LINE",
"1125 1400 LINE",
"842 1400 LINE",
"842 590 LINE",
"371 1400 LINE",
"94 1400 LINE",
"94 0 LINE",
"377 0 LINE",
"377 810 LINE",
"842 10 LINE",
"842 -37 LINE",
"762 -118 LINE",
"581 -118 LINE",
"581 -400 LINE"
);
},
{
closed = 1;
nodes = (
"760 -252 LINE",
"858 -252 LINE",
"986 -118 LINE",
"986 61 LINE",
"286 1259 LINE",
"234 1259 LINE",
"234 142 LINE",
"234 142 LINE",
"234 1259 LINE",
"286 1259 LINE",
"986 61 LINE",
"986 1259 LINE",
"986 1259 LINE",
"986 -118 LINE",
"858 -252 LINE",
"760 -252 LINE"
);
}
);
width = 1219;
},
{
layerId = "0B87BBC7-D91E-4FE2-8C5B-3F1AF694BBA3";
paths = (
{
closed = 1;
nodes = (
"919 -400 LINE",
"1125 -194 LINE",
"1125 1400 LINE",
"842 1400 LINE",
"842 590 LINE",
"371 1400 LINE",
"94 1400 LINE",
"94 0 LINE",
"377 0 LINE",
"377 810 LINE",
"842 10 LINE",
"842 -37 LINE",
"762 -118 LINE",
"581 -118 LINE",
"581 -400 LINE"
);
},
{
closed = 1;
nodes = (
"746 -238 LINE",
"848 -238 LINE",
"972 -110 LINE",
"972 61 LINE",
"264 1264 LINE",
"248 1264 LINE",
"248 112 LINE",
"220 112 LINE",
"220 1296 LINE",
"280 1296 LINE",
"972 117 LINE",
"972 1296 LINE",
"1000 1296 LINE",
"1000 -118 LINE",
"858 -266 LINE",
"746 -266 LINE"
);
}
);
width = 1219;
},
{
layerId = "5C9A105A-DAE9-444D-816C-282B7EF25764";
paths = (
{
closed = 1;
nodes = (
"919 -400 LINE",
"1125 -194 LINE",
"1125 1400 LINE",
"842 1400 LINE",
"842 590 LINE",
"371 1400 LINE",
"94 1400 LINE",
"94 0 LINE",
"377 0 LINE",
"377 810 LINE",
"842 10 LINE",
"842 -37 LINE",
"762 -118 LINE",
"581 -118 LINE",
"581 -400 LINE"
);
},
{
closed = 1;
nodes = (
"608 -145 LINE",
"773 -145 LINE",
"869 -48 LINE",
"869 18 LINE",
"350 913 LINE",
"350 913 LINE",
"350 27 LINE",
"121 27 LINE",
"121 1373 LINE",
"355 1373 LINE",
"869 487 LINE",
"869 1373 LINE",
"1098 1373 LINE",
"1098 -183 LINE",
"907 -373 LINE",
"608 -373 LINE"
);
}
);
width = 1219;
},
{
layerId = "DDC1C77E-A6A2-4CE9-BB8A-1D9C0DC11BA6";
paths = (
{
closed = 1;
nodes = (
"949 -400 LINE",
"1155 -194 LINE",
"1155 1400 LINE",
"872 1400 LINE",
"872 590 LINE",
"401 1400 LINE",
"124 1400 LINE",
"124 0 LINE",
"407 0 LINE",
"407 810 LINE",
"872 10 LINE",
"872 -37 LINE",
"792 -118 LINE",
"611 -118 LINE",
"611 -400 LINE"
);
},
{
closed = 1;
nodes = (
"638 -145 LINE",
"803 -145 LINE",
"899 -48 LINE",
"899 18 LINE",
"380 913 LINE",
"380 913 LINE",
"380 27 LINE",
"151 27 LINE",
"151 1373 LINE",
"385 1373 LINE",
"899 487 LINE",
"899 1373 LINE",
"1128 1373 LINE",
"1128 -183 LINE",
"937 -373 LINE",
"638 -373 LINE"
);
}
);
width = 1279;
},
{
layerId = "0A080BD2-62EB-4516-9B42-F4E1F6E1D6F2";
paths = (
{
closed = 1;
nodes = (
"949 -400 LINE",
"1155 -194 LINE",
"1155 1400 LINE",
"872 1400 LINE",
"872 590 LINE",
"401 1400 LINE",
"124 1400 LINE",
"124 0 LINE",
"407 0 LINE",
"407 810 LINE",
"872 10 LINE",
"872 -37 LINE",
"792 -118 LINE",
"611 -118 LINE",
"611 -400 LINE"
);
},
{
closed = 1;
nodes = (
"776 -238 LINE",
"878 -238 LINE",
"1002 -110 LINE",
"1002 61 LINE",
"294 1264 LINE",
"278 1264 LINE",
"278 112 LINE",
"250 112 LINE",
"250 1296 LINE",
"310 1296 LINE",
"1002 117 LINE",
"1002 1296 LINE",
"1030 1296 LINE",
"1030 -118 LINE",
"888 -266 LINE",
"776 -266 LINE"
);
}
);
width = 1279;
},
{
layerId = "2B3778D7-DDED-4DCC-ADC4-D63709EF26D1";
paths = (
{
closed = 1;
nodes = (
"949 -400 LINE",
"1155 -194 LINE",
"1155 1400 LINE",
"872 1400 LINE",
"872 590 LINE",
"401 1400 LINE",
"124 1400 LINE",
"124 0 LINE",
"407 0 LINE",
"407 810 LINE",
"872 10 LINE",
"872 -37 LINE",
"792 -118 LINE",
"611 -118 LINE",
"611 -400 LINE"
);
},
{
closed = 1;
nodes = (
"790 -252 LINE",
"888 -252 LINE",
"1016 -118 LINE",
"1016 61 LINE",
"316 1259 LINE",
"264 1259 LINE",
"264 142 LINE",
"264 142 LINE",
"264 1259 LINE",
"316 1259 LINE",
"1016 61 LINE",
"1016 1259 LINE",
"1016 1259 LINE",
"1016 -118 LINE",
"888 -252 LINE",
"790 -252 LINE"
);
}
);
width = 1279;
}
);
unicode = 014A;
},
{
color = 6;
glyphname = O;
lastChange = "2021-04-27 15:17:23 +0000";
layers = (
{
anchors = (
{
name = bottom;
position = "{491, 0}";
},
{
name = center;
position = "{482, 700}";
},
{
name = ogonek;
position = "{509, 10}";
},
{
name = top;
position = "{491, 1400}";
},
{
name = topleft;
position = "{110, 1400}";
},
{
name = topright;
position = "{922, 969}";
}
);
layerId = "0B87BBC7-D91E-4FE2-8C5B-3F1AF694BBA3";
paths = (
{
closed = 1;
nodes = (
"676 0 LINE",
"882 206 LINE",
"882 1194 LINE",
"676 1400 LINE",
"306 1400 LINE",
"100 1194 LINE",
"100 206 LINE",
"306 0 LINE"
);
},
{
closed = 1;
nodes = (
"383 344 LINE",
"383 1056 LINE",
"444 1117 LINE",
"538 1117 LINE",
"599 1056 LINE",
"599 344 LINE",
"538 283 LINE",
"444 283 LINE"
);
},
{
closed = 1;
nodes = (
"230 276 LINE",
"230 1132 LINE",
"374 1276 LINE",
"610 1276 LINE",
"754 1132 LINE",
"754 276 LINE",
"610 132 LINE",
"374 132 LINE"
);
},
{
closed = 1;
nodes = (
"600 160 LINE",
"726 284 LINE",
"726 1124 LINE",
"600 1248 LINE",
"384 1248 LINE",
"258 1124 LINE",
"258 284 LINE",
"384 160 LINE"
);
}
);
width = 982;
},
{
anchors = (
{
name = bottom;
position = "{491, 0}";
},
{
name = center;
position = "{482, 700}";
},
{
name = ogonek;
position = "{509, 10}";
},
{
name = top;
position = "{491, 1400}";
},
{
name = topleft;
position = "{110, 1400}";
},
{
name = topright;
position = "{922, 969}";
}
);
layerId = "5C9A105A-DAE9-444D-816C-282B7EF25764";
paths = (
{
closed = 1;
nodes = (
"676 0 LINE",
"882 206 LINE",
"882 1194 LINE",
"676 1400 LINE",
"306 1400 LINE",
"100 1194 LINE",
"100 206 LINE",
"306 0 LINE"
);
},
{
closed = 1;
nodes = (
"383 344 LINE",
"383 1056 LINE",
"444 1117 LINE",
"538 1117 LINE",
"599 1056 LINE",
"599 344 LINE",
"538 283 LINE",
"444 283 LINE"
);
},
{
closed = 1;
nodes = (
"127 217 LINE",
"127 1183 LINE",
"317 1373 LINE",
"664 1373 LINE",
"855 1183 LINE",
"855 217 LINE",
"664 27 LINE",
"317 27 LINE"
);
},
{
closed = 1;
nodes = (
"549 256 LINE",
"626 333 LINE",
"626 1067 LINE",
"549 1144 LINE",
"433 1144 LINE",
"356 1067 LINE",
"356 333 LINE",
"433 256 LINE"
);
}
);
width = 982;
},
{
anchors = (
{
name = bottom;
position = "{491, 0}";
},
{
name = center;
position = "{482, 700}";
},
{
name = ogonek;
position = "{509, 10}";
},
{
name = top;
position = "{491, 1400}";
},
{
name = topleft;
position = "{100, 1400}";
},
{
name = topright;
position = "{871, 969}";
}
);
layerId = "F883F2BF-97BC-4587-9596-6665658F6F40";
paths = (
{
closed = 1;
nodes = (
"676 0 LINE",
"882 206 LINE",
"882 1194 LINE",
"676 1400 LINE",
"306 1400 LINE",
"100 1194 LINE",
"100 206 LINE",
"306 0 LINE"
);
},
{
closed = 1;
nodes = (
"383 344 LINE",
"383 1056 LINE",
"444 1117 LINE",
"538 1117 LINE",
"599 1056 LINE",
"599 344 LINE",
"538 283 LINE",
"444 283 LINE"
);
},
{
closed = 1;
nodes = (
"245 276 LINE",
"245 1125 LINE",
"379 1259 LINE",
"606 1259 LINE",
"740 1125 LINE",
"740 276 LINE",
"606 142 LINE",
"379 142 LINE"
);
},
{
closed = 1;
nodes = (
"606 142 LINE",
"740 276 LINE",
"740 1125 LINE",
"606 1259 LINE",
"379 1259 LINE",
"245 1125 LINE",
"245 276 LINE",
"379 142 LINE"
);
}
);
width = 982;
},
{
anchors = (
{
name = bottom;
position = "{829, 0}";
},
{
name = center;
position = "{790, 1867}";
},
{
name = ogonek;
position = "{832, 10}";
},
{
name = top;
position = "{814, 1400}";
},
{
name = topleft;
position = "{-201, 1400}";
},
{
name = topright;
position = "{1245, 969}";
}
);
layerId = "DDC1C77E-A6A2-4CE9-BB8A-1D9C0DC11BA6";
paths = (
{
closed = 1;
nodes = (
"1293 0 LINE",
"1499 206 LINE",
"1499 1194 LINE",
"1293 1400 LINE",
"336 1400 LINE",
"130 1194 LINE",
"130 206 LINE",
"336 0 LINE"
);
},
{
closed = 1;
nodes = (
"413 344 LINE",
"413 1056 LINE",
"474 1117 LINE",
"1155 1117 LINE",
"1216 1056 LINE",
"1216 344 LINE",
"1155 283 LINE",
"474 283 LINE"
);
},
{
closed = 1;
nodes = (
"157 217 LINE",
"157 1183 LINE",
"347 1373 LINE",
"1281 1373 LINE",
"1472 1183 LINE",
"1472 217 LINE",
"1281 27 LINE",
"347 27 LINE"
);
},
{
closed = 1;
nodes = (
"1166 256 LINE",
"1243 333 LINE",
"1243 1067 LINE",
"1166 1144 LINE",
"463 1144 LINE",
"386 1067 LINE",
"386 333 LINE",
"463 256 LINE"
);
}
);
width = 1629;
},
{
anchors = (
{
name = bottom;
position = "{829, 0}";
},
{
name = center;
position = "{790, 1867}";
},
{
name = ogonek;
position = "{832, 10}";
},
{
name = top;
position = "{814, 1400}";
},
{
name = topleft;
position = "{-201, 1400}";
},
{
name = topright;
position = "{1245, 969}";
}
);
layerId = "0A080BD2-62EB-4516-9B42-F4E1F6E1D6F2";
paths = (
{
closed = 1;
nodes = (
"1293 0 LINE",
"1499 206 LINE",
"1499 1194 LINE",
"1293 1400 LINE",
"336 1400 LINE",
"130 1194 LINE",
"130 206 LINE",
"336 0 LINE"
);
},
{
closed = 1;
nodes = (
"413 344 LINE",
"413 1056 LINE",
"474 1117 LINE",
"1155 1117 LINE",
"1216 1056 LINE",
"1216 344 LINE",
"1155 283 LINE",
"474 283 LINE"
);
},
{
closed = 1;
nodes = (
"260 276 LINE",
"260 1132 LINE",
"404 1276 LINE",
"1227 1276 LINE",
"1371 1132 LINE",
"1371 276 LINE",
"1227 132 LINE",
"404 132 LINE"
);
},
{
closed = 1;
nodes = (
"1217 160 LINE",
"1343 284 LINE",
"1343 1124 LINE",
"1217 1248 LINE",
"414 1248 LINE",
"288 1124 LINE",
"288 284 LINE",
"414 160 LINE"
);
}
);
width = 1629;
},
{
anchors = (
{
name = bottom;
position = "{829, 0}";
},
{
name = center;
position = "{790, 1867}";
},
{
name = ogonek;
position = "{832, 10}";
},
{
name = top;
position = "{814, 1400}";
},
{
name = topleft;
position = "{-185, 1400}";
},
{
name = topright;
position = "{1330, 969}";
}
);
layerId = "2B3778D7-DDED-4DCC-ADC4-D63709EF26D1";
paths = (
{
closed = 1;
nodes = (
"1293 0 LINE",
"1499 206 LINE",
"1499 1194 LINE",
"1293 1400 LINE",
"336 1400 LINE",
"130 1194 LINE",
"130 206 LINE",
"336 0 LINE"
);
},
{
closed = 1;
nodes = (
"413 344 LINE",
"413 1056 LINE",
"474 1117 LINE",
"1155 1117 LINE",
"1216 1056 LINE",
"1216 344 LINE",
"1155 283 LINE",
"474 283 LINE"
);
},
{
closed = 1;
nodes = (
"275 276 LINE",
"275 1125 LINE",
"409 1259 LINE",
"1223 1259 LINE",
"1357 1125 LINE",
"1357 276 LINE",
"1223 142 LINE",
"409 142 LINE"
);
},
{
closed = 1;
nodes = (
"1223 142 LINE",
"1357 276 LINE",
"1357 1125 LINE",
"1223 1259 LINE",
"409 1259 LINE",
"275 1125 LINE",
"275 276 LINE",
"409 142 LINE"
);
}
);
width = 1629;
}
);
leftKerningGroup = O;
rightKerningGroup = O;
unicode = 004F;
},
{
color = 6;
glyphname = Ohorn;
lastChange = "2021-04-27 15:17:24 +0000";
layers = (
{
anchors = (
{
name = bottom;
position = "{491, 0}";
},
{
name = center;
position = "{482, 700}";
},
{
name = ogonek;
position = "{996, 10}";
},
{
name = top;
position = "{491, 1400}";
},
{
name = topleft;
position = "{-128, 1400}";
},
{
name = topright;
position = "{1349, 1355}";
}
);
layerId = "F883F2BF-97BC-4587-9596-6665658F6F40";
paths = (
{
closed = 1;
nodes = (
"383 344 LINE",
"383 1056 LINE",
"444 1117 LINE",
"538 1117 LINE",
"599 1056 LINE",
"599 344 LINE",
"538 283 LINE",
"444 283 LINE"
);
},
{
closed = 1;
nodes = (
"245 276 LINE",
"245 1125 LINE",
"379 1259 LINE",
"606 1259 LINE",
"740 1125 LINE",
"740 276 LINE",
"606 142 LINE",
"379 142 LINE"
);
},
{
closed = 1;
nodes = (
"606 142 LINE",
"740 276 LINE",
"740 1125 LINE",
"606 1259 LINE",
"379 1259 LINE",
"245 1125 LINE",
"245 276 LINE",
"379 142 LINE"
);
},
{
closed = 1;
nodes = (
"1105 1280 LINE",
"1105 1159 LINE",
"1001 1047 LINE",
"740 1047 LINE",
"740 1047 LINE",
"1001 1047 LINE",
"1105 1159 LINE",
"1105 1280 LINE"
);
},
{
closed = 1;
nodes = (
"991 1171 LINE",
"946 1126 LINE",
"882 1126 LINE",
"882 1194 LINE",
"676 1400 LINE",
"306 1400 LINE",
"100 1194 LINE",
"100 206 LINE",
"306 0 LINE",
"676 0 LINE",
"882 206 LINE",
"882 969 LINE",
"1056 969 LINE",
"1219 1156 LINE",
"1219 1355 LINE",
"991 1355 LINE"
);
}
);
width = 1189;
},
{
anchors = (
{
name = bottom;
position = "{491, 0}";
},
{
name = center;
position = "{482, 700}";
},
{
name = ogonek;
position = "{996, 10}";
},
{
name = top;
position = "{491, 1400}";
},
{
name = topleft;
position = "{-128, 1400}";
},
{
name = topright;
position = "{1349, 1355}";
}
);
layerId = "0B87BBC7-D91E-4FE2-8C5B-3F1AF694BBA3";
paths = (
{
closed = 1;
nodes = (
"383 344 LINE",
"383 1056 LINE",
"444 1117 LINE",
"538 1117 LINE",
"599 1056 LINE",
"599 344 LINE",
"538 283 LINE",
"444 283 LINE"
);
},
{
closed = 1;
nodes = (
"230 276 LINE",
"230 1132 LINE",
"374 1276 LINE",
"610 1276 LINE",
"754 1132 LINE",
"754 276 LINE",
"610 132 LINE",
"374 132 LINE"
);
},
{
closed = 1;
nodes = (
"600 160 LINE",
"726 284 LINE",
"726 1124 LINE",
"600 1248 LINE",
"384 1248 LINE",
"258 1124 LINE",
"258 284 LINE",
"384 160 LINE"
);
},
{
closed = 1;
nodes = (
"1119 1280 LINE",
"1119 1156 LINE",
"1009 1034 LINE",
"754 1034 LINE",
"754 1061 LINE",
"996 1061 LINE",
"1092 1166 LINE",
"1092 1280 LINE"
);
},
{
closed = 1;
nodes = (
"991 1171 LINE",
"946 1126 LINE",
"882 1126 LINE",
"882 1194 LINE",
"676 1400 LINE",
"306 1400 LINE",
"100 1194 LINE",
"100 206 LINE",
"306 0 LINE",
"676 0 LINE",
"882 206 LINE",
"882 969 LINE",
"1056 969 LINE",
"1219 1156 LINE",
"1219 1355 LINE",
"991 1355 LINE"
);
}
);
width = 1189;
},
{
anchors = (
{
name = bottom;
position = "{491, 0}";
},
{
name = center;
position = "{482, 700}";
},
{
name = ogonek;
position = "{996, 10}";
},
{
name = top;
position = "{491, 1400}";
},
{
name = topleft;
position = "{-128, 1400}";
},
{
name = topright;
position = "{1349, 1355}";
}
);
layerId = "5C9A105A-DAE9-444D-816C-282B7EF25764";
paths = (
{
closed = 1;
nodes = (
"383 344 LINE",
"383 1056 LINE",
"444 1117 LINE",
"538 1117 LINE",
"599 1056 LINE",
"599 344 LINE",
"538 283 LINE",
"444 283 LINE"
);
},
{
closed = 1;
nodes = (
"127 217 LINE",
"127 1183 LINE",
"317 1373 LINE",
"664 1373 LINE",
"855 1183 LINE",
"855 217 LINE",
"664 27 LINE",
"317 27 LINE"
);
},
{
closed = 1;
nodes = (
"549 256 LINE",
"626 333 LINE",
"626 1067 LINE",
"549 1144 LINE",
"433 1144 LINE",
"356 1067 LINE",
"356 333 LINE",
"433 256 LINE"
);
},
{
closed = 1;
nodes = (
"1192 1328 LINE",
"1192 1164 LINE",
"1044 996 LINE",
"855 996 LINE",
"855 1099 LINE",
"960 1099 LINE",
"1018 1159 LINE",
"1018 1328 LINE"
);
},
{
closed = 1;
nodes = (
"991 1171 LINE",
"946 1126 LINE",
"882 1126 LINE",
"882 1194 LINE",
"676 1400 LINE",
"306 1400 LINE",
"100 1194 LINE",
"100 206 LINE",
"306 0 LINE",
"676 0 LINE",
"882 206 LINE",
"882 969 LINE",
"1056 969 LINE",
"1219 1156 LINE",
"1219 1355 LINE",
"991 1355 LINE"
);
}
);
width = 1189;
},
{
anchors = (
{
name = bottom;
position = "{631, 0}";
},
{
name = center;
position = "{622, 700}";
},
{
name = ogonek;
position = "{1136, 10}";
},
{
name = top;
position = "{631, 1400}";
},
{
name = topleft;
position = "{12, 1400}";
},
{
name = topright;
position = "{1489, 1355}";
}
);
layerId = "DDC1C77E-A6A2-4CE9-BB8A-1D9C0DC11BA6";
paths = (
{
closed = 1;
nodes = (
"413 344 LINE",
"413 1056 LINE",
"474 1117 LINE",
"788 1117 LINE",
"849 1056 LINE",
"849 344 LINE",
"788 283 LINE",
"474 283 LINE"
);
},
{
closed = 1;
nodes = (
"157 217 LINE",
"157 1183 LINE",
"347 1373 LINE",
"914 1373 LINE",
"1105 1183 LINE",
"1105 217 LINE",
"914 27 LINE",
"347 27 LINE"
);
},
{
closed = 1;
nodes = (
"799 256 LINE",
"876 333 LINE",
"876 1067 LINE",
"799 1144 LINE",
"463 1144 LINE",
"386 1067 LINE",
"386 333 LINE",
"463 256 LINE"
);
},
{
closed = 1;
nodes = (
"1442 1328 LINE",
"1442 1164 LINE",
"1294 996 LINE",
"1105 996 LINE",
"1105 1099 LINE",
"1210 1099 LINE",
"1268 1159 LINE",
"1268 1328 LINE"
);
},
{
closed = 1;
nodes = (
"1241 1171 LINE",
"1196 1126 LINE",
"1132 1126 LINE",
"1132 1194 LINE",
"926 1400 LINE",
"336 1400 LINE",
"130 1194 LINE",
"130 206 LINE",
"336 0 LINE",
"926 0 LINE",
"1132 206 LINE",
"1132 969 LINE",
"1306 969 LINE",
"1469 1156 LINE",
"1469 1355 LINE",
"1241 1355 LINE"
);
}
);
width = 1469;
},
{
anchors = (
{
name = bottom;
position = "{631, 0}";
},
{
name = center;
position = "{622, 700}";
},
{
name = ogonek;
position = "{1136, 10}";
},
{
name = top;
position = "{631, 1400}";
},
{
name = topleft;
position = "{12, 1400}";
},
{
name = topright;
position = "{1489, 1355}";
}
);
layerId = "0A080BD2-62EB-4516-9B42-F4E1F6E1D6F2";
paths = (
{
closed = 1;
nodes = (
"413 344 LINE",
"413 1056 LINE",
"474 1117 LINE",
"788 1117 LINE",
"849 1056 LINE",
"849 344 LINE",
"788 283 LINE",
"474 283 LINE"
);
},
{
closed = 1;
nodes = (
"260 276 LINE",
"260 1132 LINE",
"404 1276 LINE",
"860 1276 LINE",
"1004 1132 LINE",
"1004 276 LINE",
"860 132 LINE",
"404 132 LINE"
);
},
{
closed = 1;
nodes = (
"850 160 LINE",
"976 284 LINE",
"976 1124 LINE",
"850 1248 LINE",
"414 1248 LINE",
"288 1124 LINE",
"288 284 LINE",
"414 160 LINE"
);
},
{
closed = 1;
nodes = (
"1369 1280 LINE",
"1369 1156 LINE",
"1259 1034 LINE",
"1004 1034 LINE",
"1004 1061 LINE",
"1246 1061 LINE",
"1342 1166 LINE",
"1342 1280 LINE"
);
},
{
closed = 1;
nodes = (
"1241 1171 LINE",
"1196 1126 LINE",
"1132 1126 LINE",
"1132 1194 LINE",
"926 1400 LINE",
"336 1400 LINE",
"130 1194 LINE",
"130 206 LINE",
"336 0 LINE",
"926 0 LINE",
"1132 206 LINE",
"1132 969 LINE",
"1306 969 LINE",
"1469 1156 LINE",
"1469 1355 LINE",
"1241 1355 LINE"
);
}
);
width = 1469;
},
{
anchors = (
{
name = bottom;
position = "{631, 0}";
},
{
name = center;
position = "{622, 700}";
},
{
name = ogonek;
position = "{1136, 10}";
},
{
name = top;
position = "{631, 1400}";
},
{
name = topleft;
position = "{12, 1400}";
},
{
name = topright;
position = "{1489, 1355}";
}
);
layerId = "2B3778D7-DDED-4DCC-ADC4-D63709EF26D1";
paths = (
{
closed = 1;
nodes = (
"413 344 LINE",
"413 1056 LINE",
"474 1117 LINE",
"788 1117 LINE",
"849 1056 LINE",
"849 344 LINE",
"788 283 LINE",
"474 283 LINE"
);
},
{
closed = 1;
nodes = (
"275 276 LINE",
"275 1125 LINE",
"409 1259 LINE",
"856 1259 LINE",
"990 1125 LINE",
"990 276 LINE",
"856 142 LINE",
"409 142 LINE"
);
},
{
closed = 1;
nodes = (
"856 142 LINE",
"990 276 LINE",
"990 1125 LINE",
"856 1259 LINE",
"409 1259 LINE",
"275 1125 LINE",
"275 276 LINE",
"409 142 LINE"
);
},
{
closed = 1;
nodes = (
"1355 1280 LINE",
"1355 1159 LINE",
"1251 1047 LINE",
"990 1047 LINE",
"990 1047 LINE",
"1251 1047 LINE",
"1355 1159 LINE",
"1355 1280 LINE"
);
},
{
closed = 1;
nodes = (
"1241 1171 LINE",
"1196 1126 LINE",
"1132 1126 LINE",
"1132 1194 LINE",
"926 1400 LINE",
"336 1400 LINE",
"130 1194 LINE",
"130 206 LINE",
"336 0 LINE",
"926 0 LINE",
"1132 206 LINE",
"1132 969 LINE",
"1306 969 LINE",
"1469 1156 LINE",
"1469 1355 LINE",
"1241 1355 LINE"
);
}
);
width = 1469;
}
);
rightKerningGroup = T;
unicode = 01A0;
},
{
color = 6;
glyphname = Oogonek;
lastChange = "2021-04-27 15:17:24 +0000";
layers = (
{
anchors = (
{
name = bottom;
position = "{601, 0}";
},
{
name = center;
position = "{592, 700}";
},
{
name = top;
position = "{601, 1400}";
},
{
name = topleft;
position = "{-18, 1400}";
},
{
name = topright;
position = "{1032, 969}";
}
);
layerId = "F883F2BF-97BC-4587-9596-6665658F6F40";
paths = (
{
closed = 1;
nodes = (
"383 344 LINE",
"383 1056 LINE",
"444 1117 LINE",
"758 1117 LINE",
"819 1056 LINE",
"819 344 LINE",
"758 283 LINE",
"444 283 LINE"
);
},
{
closed = 1;
nodes = (
"245 276 LINE",
"245 1125 LINE",
"379 1259 LINE",
"826 1259 LINE",
"960 1125 LINE",
"960 276 LINE",
"826 142 LINE",
"379 142 LINE"
);
},
{
closed = 1;
nodes = (
"826 142 LINE",
"960 276 LINE",
"960 1125 LINE",
"826 1259 LINE",
"379 1259 LINE",
"245 1125 LINE",
"245 276 LINE",
"379 142 LINE"
);
},
{
closed = 1;
nodes = (
"757 142 LINE",
"457 -180 LINE",
"551 -290 LINE",
"759 -290 LINE",
"759 -290 LINE",
"551 -290 LINE",
"457 -180 LINE",
"757 142 LINE"
);
},
{
closed = 1;
nodes = (
"306 1400 LINE",
"100 1194 LINE",
"100 206 LINE",
"306 0 LINE",
"516 0 LINE",
"357 -180 LINE",
"520 -369 LINE",
"825 -369 LINE",
"825 -212 LINE",
"590 -212 LINE",
"560 -180 LINE",
"740 0 LINE",
"896 0 LINE",
"1102 206 LINE",
"1102 1194 LINE",
"896 1400 LINE"
);
}
);
width = 1202;
},
{
anchors = (
{
name = bottom;
position = "{601, 0}";
},
{
name = center;
position = "{592, 700}";
},
{
name = top;
position = "{601, 1400}";
},
{
name = topleft;
position = "{-18, 1400}";
},
{
name = topright;
position = "{1032, 969}";
}
);
layerId = "0B87BBC7-D91E-4FE2-8C5B-3F1AF694BBA3";
paths = (
{
closed = 1;
nodes = (
"383 344 LINE",
"383 1056 LINE",
"444 1117 LINE",
"758 1117 LINE",
"819 1056 LINE",
"819 344 LINE",
"758 283 LINE",
"444 283 LINE"
);
},
{
closed = 1;
nodes = (
"230 276 LINE",
"230 1132 LINE",
"374 1276 LINE",
"830 1276 LINE",
"974 1132 LINE",
"974 276 LINE",
"830 132 LINE",
"374 132 LINE"
);
},
{
closed = 1;
nodes = (
"820 160 LINE",
"946 284 LINE",
"946 1124 LINE",
"820 1248 LINE",
"384 1248 LINE",
"258 1124 LINE",
"258 284 LINE",
"384 160 LINE"
);
},
{
closed = 1;
nodes = (
"767 132 LINE",
"473 -180 LINE",
"560 -277 LINE",
"759 -277 LINE",
"759 -304 LINE",
"547 -304 LINE",
"437 -180 LINE",
"732 132 LINE"
);
},
{
closed = 1;
nodes = (
"306 1400 LINE",
"100 1194 LINE",
"100 206 LINE",
"306 0 LINE",
"516 0 LINE",
"357 -180 LINE",
"520 -369 LINE",
"825 -369 LINE",
"825 -212 LINE",
"590 -212 LINE",
"560 -180 LINE",
"740 0 LINE",
"896 0 LINE",
"1102 206 LINE",
"1102 1194 LINE",
"896 1400 LINE"
);
}
);
width = 1202;
},
{
anchors = (
{
name = bottom;
position = "{601, 0}";
},
{
name = center;
position = "{592, 700}";
},
{
name = top;
position = "{601, 1400}";
},
{
name = topleft;
position = "{-18, 1400}";
},
{
name = topright;
position = "{1032, 969}";
}
);
layerId = "5C9A105A-DAE9-444D-816C-282B7EF25764";
paths = (
{
closed = 1;
nodes = (
"383 344 LINE",
"383 1056 LINE",
"444 1117 LINE",
"758 1117 LINE",
"819 1056 LINE",
"819 344 LINE",
"758 283 LINE",
"444 283 LINE"
);
},
{
closed = 1;
nodes = (
"127 217 LINE",
"127 1183 LINE",
"317 1373 LINE",
"884 1373 LINE",
"1075 1183 LINE",
"1075 217 LINE",
"884 27 LINE",
"317 27 LINE"
);
},
{
closed = 1;
nodes = (
"769 256 LINE",
"846 333 LINE",
"846 1067 LINE",
"769 1144 LINE",
"433 1144 LINE",
"356 1067 LINE",
"356 333 LINE",
"433 256 LINE"
);
},
{
closed = 1;
nodes = (
"729 27 LINE",
"520 -180 LINE",
"577 -239 LINE",
"799 -239 LINE",
"799 -342 LINE",
"536 -342 LINE",
"394 -180 LINE",
"587 27 LINE"
);
},
{
closed = 1;
nodes = (
"306 1400 LINE",
"100 1194 LINE",
"100 206 LINE",
"306 0 LINE",
"519 0 LINE",
"357 -180 LINE",
"520 -369 LINE",
"825 -369 LINE",
"825 -212 LINE",
"590 -212 LINE",
"560 -180 LINE",
"740 0 LINE",
"896 0 LINE",
"1102 206 LINE",
"1102 1194 LINE",
"896 1400 LINE"
);
}
);
width = 1202;
},
{
anchors = (
{
name = bottom;
position = "{631, 0}";
},
{
name = center;
position = "{622, 700}";
},
{
name = top;
position = "{631, 1400}";
},
{
name = topleft;
position = "{12, 1400}";
},
{
name = topright;
position = "{1062, 969}";
}
);
layerId = "DDC1C77E-A6A2-4CE9-BB8A-1D9C0DC11BA6";
paths = (
{
closed = 1;
nodes = (
"413 344 LINE",
"413 1056 LINE",
"474 1117 LINE",
"788 1117 LINE",
"849 1056 LINE",
"849 344 LINE",
"788 283 LINE",
"474 283 LINE"
);
},
{
closed = 1;
nodes = (
"157 217 LINE",
"157 1183 LINE",
"347 1373 LINE",
"914 1373 LINE",
"1105 1183 LINE",
"1105 217 LINE",
"914 27 LINE",
"347 27 LINE"
);
},
{
closed = 1;
nodes = (
"799 256 LINE",
"876 333 LINE",
"876 1067 LINE",
"799 1144 LINE",
"463 1144 LINE",
"386 1067 LINE",
"386 333 LINE",
"463 256 LINE"
);
},
{
closed = 1;
nodes = (
"759 27 LINE",
"550 -180 LINE",
"607 -239 LINE",
"829 -239 LINE",
"829 -342 LINE",
"566 -342 LINE",
"424 -180 LINE",
"617 27 LINE"
);
},
{
closed = 1;
nodes = (
"336 1400 LINE",
"130 1194 LINE",
"130 206 LINE",
"336 0 LINE",
"549 0 LINE",
"387 -180 LINE",
"550 -369 LINE",
"855 -369 LINE",
"855 -212 LINE",
"620 -212 LINE",
"590 -180 LINE",
"770 0 LINE",
"926 0 LINE",
"1132 206 LINE",
"1132 1194 LINE",
"926 1400 LINE"
);
}
);
width = 1262;
},
{
anchors = (
{
name = bottom;
position = "{631, 0}";
},
{
name = center;
position = "{622, 700}";
},
{
name = top;
position = "{631, 1400}";
},
{
name = topleft;
position = "{12, 1400}";
},
{
name = topright;
position = "{1062, 969}";
}
);
layerId = "0A080BD2-62EB-4516-9B42-F4E1F6E1D6F2";
paths = (
{
closed = 1;
nodes = (
"413 344 LINE",
"413 1056 LINE",
"474 1117 LINE",
"788 1117 LINE",
"849 1056 LINE",
"849 344 LINE",
"788 283 LINE",
"474 283 LINE"
);
},
{
closed = 1;
nodes = (
"260 276 LINE",
"260 1132 LINE",
"404 1276 LINE",
"860 1276 LINE",
"1004 1132 LINE",
"1004 276 LINE",
"860 132 LINE",
"404 132 LINE"
);
},
{
closed = 1;
nodes = (
"850 160 LINE",
"976 284 LINE",
"976 1124 LINE",
"850 1248 LINE",
"414 1248 LINE",
"288 1124 LINE",
"288 284 LINE",
"414 160 LINE"
);
},
{
closed = 1;
nodes = (
"797 132 LINE",
"503 -180 LINE",
"590 -277 LINE",
"789 -277 LINE",
"789 -304 LINE",
"577 -304 LINE",
"467 -180 LINE",
"762 132 LINE"
);
},
{
closed = 1;
nodes = (
"336 1400 LINE",
"130 1194 LINE",
"130 206 LINE",
"336 0 LINE",
"546 0 LINE",
"387 -180 LINE",
"550 -369 LINE",
"855 -369 LINE",
"855 -212 LINE",
"620 -212 LINE",
"590 -180 LINE",
"770 0 LINE",
"926 0 LINE",
"1132 206 LINE",
"1132 1194 LINE",
"926 1400 LINE"
);
}
);
width = 1262;
},
{
anchors = (
{
name = bottom;
position = "{631, 0}";
},
{
name = center;
position = "{622, 700}";
},
{
name = top;
position = "{631, 1400}";
},
{
name = topleft;
position = "{12, 1400}";
},
{
name = topright;
position = "{1062, 969}";
}
);
layerId = "2B3778D7-DDED-4DCC-ADC4-D63709EF26D1";
paths = (
{
closed = 1;
nodes = (
"413 344 LINE",
"413 1056 LINE",
"474 1117 LINE",
"788 1117 LINE",
"849 1056 LINE",
"849 344 LINE",
"788 283 LINE",
"474 283 LINE"
);
},
{
closed = 1;
nodes = (
"275 276 LINE",
"275 1125 LINE",
"409 1259 LINE",
"856 1259 LINE",
"990 1125 LINE",
"990 276 LINE",
"856 142 LINE",
"409 142 LINE"
);
},
{
closed = 1;
nodes = (
"856 142 LINE",
"990 276 LINE",
"990 1125 LINE",
"856 1259 LINE",
"409 1259 LINE",
"275 1125 LINE",
"275 276 LINE",
"409 142 LINE"
);
},
{
closed = 1;
nodes = (
"787 142 LINE",
"487 -180 LINE",
"581 -290 LINE",
"789 -290 LINE",
"789 -290 LINE",
"581 -290 LINE",
"487 -180 LINE",
"787 142 LINE"
);
},
{
closed = 1;
nodes = (
"336 1400 LINE",
"130 1194 LINE",
"130 206 LINE",
"336 0 LINE",
"546 0 LINE",
"387 -180 LINE",
"550 -369 LINE",
"855 -369 LINE",
"855 -212 LINE",
"620 -212 LINE",
"590 -180 LINE",
"770 0 LINE",
"926 0 LINE",
"1132 206 LINE",
"1132 1194 LINE",
"926 1400 LINE"
);
}
);
width = 1262;
}
);
unicode = 01EA;
},
{
color = 6;
glyphname = Oslash;
lastChange = "2021-04-27 15:17:23 +0000";
layers = (
{
anchors = (
{
name = bottom;
position = "{665, 0}";
},
{
name = top;
position = "{665, 1400}";
}
);
layerId = "0B87BBC7-D91E-4FE2-8C5B-3F1AF694BBA3";
paths = (
{
closed = 1;
nodes = (
"338 15 LINE",
"352 0 LINE",
"996 0 LINE",
"1202 206 LINE",
"1202 1194 LINE",
"1185 1211 LINE",
"1267 1328 LINE",
"1070 1465 LINE",
"1013 1384 LINE",
"996 1400 LINE",
"352 1400 LINE",
"146 1194 LINE",
"146 206 LINE",
"166 188 LINE",
"93 86 LINE",
"289 -53 LINE"
);
},
{
closed = 1;
nodes = (
"919 837 LINE",
"919 344 LINE",
"858 283 LINE",
"527 283 LINE"
);
},
{
closed = 1;
nodes = (
"937 140 LINE",
"1063 264 LINE",
"1063 1144 LINE",
"1027 1179 LINE",
"343 209 LINE",
"413 140 LINE"
);
},
{
closed = 1;
nodes = (
"221 82 LINE",
"309 206 LINE",
"259 256 LINE",
"259 1152 LINE",
"403 1296 LINE",
"947 1296 LINE",
"1025 1218 LINE",
"1109 1338 LINE",
"1129 1324 LINE",
"1042 1201 LINE",
"1091 1152 LINE",
"1091 256 LINE",
"947 112 LINE",
"403 112 LINE",
"328 187 LINE",
"243 66 LINE"
);
},
{
closed = 1;
nodes = (
"1009 1197 LINE",
"937 1268 LINE",
"413 1268 LINE",
"287 1144 LINE",
"287 264 LINE",
"324 228 LINE"
);
},
{
closed = 1;
nodes = (
"429 1056 LINE",
"491 1118 LINE",
"823 1118 LINE",
"429 560 LINE"
);
}
);
width = 1360;
},
{
anchors = (
{
name = bottom;
position = "{665, 0}";
},
{
name = top;
position = "{665, 1400}";
}
);
layerId = "5C9A105A-DAE9-444D-816C-282B7EF25764";
paths = (
{
closed = 1;
nodes = (
"338 15 LINE",
"352 0 LINE",
"996 0 LINE",
"1202 206 LINE",
"1202 1194 LINE",
"1185 1211 LINE",
"1267 1328 LINE",
"1070 1465 LINE",
"1013 1384 LINE",
"996 1400 LINE",
"352 1400 LINE",
"146 1194 LINE",
"146 206 LINE",
"166 188 LINE",
"93 86 LINE",
"289 -53 LINE"
);
},
{
closed = 1;
nodes = (
"919 837 LINE",
"919 344 LINE",
"858 283 LINE",
"527 283 LINE"
);
},
{
closed = 1;
nodes = (
"869 256 LINE",
"946 333 LINE",
"946 879 LINE",
"946 927 LINE",
"472 256 LINE",
"521 256 LINE"
);
},
{
closed = 1;
nodes = (
"131 93 LINE",
"200 191 LINE",
"173 218 LINE",
"173 1183 LINE",
"364 1373 LINE",
"985 1373 LINE",
"1016 1341 LINE",
"1077 1427 LINE",
"1229 1321 LINE",
"1148 1208 LINE",
"1175 1183 LINE",
"1175 218 LINE",
"985 27 LINE",
"364 27 LINE",
"335 58 LINE",
"283 -15 LINE"
);
},
{
closed = 1;
nodes = (
"879 1144 LINE",
"831 1144 LINE",
"479 1144 LINE",
"402 1068 LINE",
"402 520 LINE",
"402 469 LINE"
);
},
{
closed = 1;
nodes = (
"429 1056 LINE",
"491 1118 LINE",
"823 1118 LINE",
"429 560 LINE"
);
}
);
width = 1360;
},
{
anchors = (
{
name = bottom;
position = "{665, 0}";
},
{
name = top;
position = "{665, 1400}";
}
);
layerId = "F883F2BF-97BC-4587-9596-6665658F6F40";
paths = (
{
closed = 1;
nodes = (
"338 15 LINE",
"352 0 LINE",
"996 0 LINE",
"1202 206 LINE",
"1202 1194 LINE",
"1185 1211 LINE",
"1267 1328 LINE",
"1070 1465 LINE",
"1013 1384 LINE",
"996 1400 LINE",
"352 1400 LINE",
"146 1194 LINE",
"146 206 LINE",
"166 188 LINE",
"93 86 LINE",
"289 -53 LINE"
);
},
{
closed = 1;
nodes = (
"919 837 LINE",
"919 344 LINE",
"858 283 LINE",
"527 283 LINE"
);
},
{
closed = 1;
nodes = (
"937 130 LINE",
"1077 264 LINE",
"1077 1144 LINE",
"1026 1197 LINE",
"328 210 LINE",
"413 130 LINE"
);
},
{
closed = 1;
nodes = (
"238 82 LINE",
"328 210 LINE",
"273 264 LINE",
"273 1144 LINE",
"413 1282 LINE",
"937 1282 LINE",
"1026 1197 LINE",
"1110 1320 LINE",
"1110 1320 LINE",
"1026 1197 LINE",
"1077 1144 LINE",
"1077 264 LINE",
"937 130 LINE",
"413 130 LINE",
"328 210 LINE",
"238 82 LINE"
);
},
{
closed = 1;
nodes = (
"1026 1197 LINE",
"937 1282 LINE",
"413 1282 LINE",
"273 1144 LINE",
"273 264 LINE",
"328 210 LINE"
);
},
{
closed = 1;
nodes = (
"429 1056 LINE",
"491 1118 LINE",
"823 1118 LINE",
"429 560 LINE"
);
}
);
width = 1360;
},
{
anchors = (
{
name = bottom;
position = "{695, 0}";
},
{
name = top;
position = "{695, 1400}";
}
);
layerId = "DDC1C77E-A6A2-4CE9-BB8A-1D9C0DC11BA6";
paths = (
{
closed = 1;
nodes = (
"368 15 LINE",
"382 0 LINE",
"1026 0 LINE",
"1232 206 LINE",
"1232 1194 LINE",
"1215 1211 LINE",
"1297 1328 LINE",
"1100 1465 LINE",
"1043 1384 LINE",
"1026 1400 LINE",
"382 1400 LINE",
"176 1194 LINE",
"176 206 LINE",
"196 188 LINE",
"123 86 LINE",
"319 -53 LINE"
);
},
{
closed = 1;
nodes = (
"949 837 LINE",
"949 344 LINE",
"888 283 LINE",
"557 283 LINE"
);
},
{
closed = 1;
nodes = (
"899 256 LINE",
"976 333 LINE",
"976 879 LINE",
"976 927 LINE",
"502 256 LINE",
"551 256 LINE"
);
},
{
closed = 1;
nodes = (
"161 93 LINE",
"230 191 LINE",
"203 218 LINE",
"203 1183 LINE",
"394 1373 LINE",
"1015 1373 LINE",
"1046 1341 LINE",
"1107 1427 LINE",
"1259 1321 LINE",
"1178 1208 LINE",
"1205 1183 LINE",
"1205 218 LINE",
"1015 27 LINE",
"394 27 LINE",
"365 58 LINE",
"313 -15 LINE"
);
},
{
closed = 1;
nodes = (
"909 1144 LINE",
"861 1144 LINE",
"509 1144 LINE",
"432 1068 LINE",
"432 520 LINE",
"432 469 LINE"
);
},
{
closed = 1;
nodes = (
"459 1056 LINE",
"521 1118 LINE",
"853 1118 LINE",
"459 560 LINE"
);
}
);
width = 1420;
},
{
anchors = (
{
name = bottom;
position = "{695, 0}";
},
{
name = top;
position = "{695, 1400}";
}
);
layerId = "0A080BD2-62EB-4516-9B42-F4E1F6E1D6F2";
paths = (
{
closed = 1;
nodes = (
"368 15 LINE",
"382 0 LINE",
"1026 0 LINE",
"1232 206 LINE",
"1232 1194 LINE",
"1215 1211 LINE",
"1297 1328 LINE",
"1100 1465 LINE",
"1043 1384 LINE",
"1026 1400 LINE",
"382 1400 LINE",
"176 1194 LINE",
"176 206 LINE",
"196 188 LINE",
"123 86 LINE",
"319 -53 LINE"
);
},
{
closed = 1;
nodes = (
"949 837 LINE",
"949 344 LINE",
"888 283 LINE",
"557 283 LINE"
);
},
{
closed = 1;
nodes = (
"967 140 LINE",
"1093 264 LINE",
"1093 1144 LINE",
"1057 1179 LINE",
"373 209 LINE",
"443 140 LINE"
);
},
{
closed = 1;
nodes = (
"251 82 LINE",
"339 206 LINE",
"289 256 LINE",
"289 1152 LINE",
"433 1296 LINE",
"977 1296 LINE",
"1055 1218 LINE",
"1139 1338 LINE",
"1159 1324 LINE",
"1072 1201 LINE",
"1121 1152 LINE",
"1121 256 LINE",
"977 112 LINE",
"433 112 LINE",
"358 187 LINE",
"273 66 LINE"
);
},
{
closed = 1;
nodes = (
"1039 1197 LINE",
"967 1268 LINE",
"443 1268 LINE",
"317 1144 LINE",
"317 264 LINE",
"354 228 LINE"
);
},
{
closed = 1;
nodes = (
"459 1056 LINE",
"521 1118 LINE",
"853 1118 LINE",
"459 560 LINE"
);
}
);
width = 1420;
},
{
anchors = (
{
name = bottom;
position = "{695, 0}";
},
{
name = top;
position = "{695, 1400}";
}
);
layerId = "2B3778D7-DDED-4DCC-ADC4-D63709EF26D1";
paths = (
{
closed = 1;
nodes = (
"368 15 LINE",
"382 0 LINE",
"1026 0 LINE",
"1232 206 LINE",
"1232 1194 LINE",
"1215 1211 LINE",
"1297 1328 LINE",
"1100 1465 LINE",
"1043 1384 LINE",
"1026 1400 LINE",
"382 1400 LINE",
"176 1194 LINE",
"176 206 LINE",
"196 188 LINE",
"123 86 LINE",
"319 -53 LINE"
);
},
{
closed = 1;
nodes = (
"949 837 LINE",
"949 344 LINE",
"888 283 LINE",
"557 283 LINE"
);
},
{
closed = 1;
nodes = (
"967 130 LINE",
"1107 264 LINE",
"1107 1144 LINE",
"1056 1197 LINE",
"358 210 LINE",
"443 130 LINE"
);
},
{
closed = 1;
nodes = (
"268 82 LINE",
"358 210 LINE",
"303 264 LINE",
"303 1144 LINE",
"443 1282 LINE",
"967 1282 LINE",
"1056 1197 LINE",
"1140 1320 LINE",
"1140 1320 LINE",
"1056 1197 LINE",
"1107 1144 LINE",
"1107 264 LINE",
"967 130 LINE",
"443 130 LINE",
"358 210 LINE",
"268 82 LINE"
);
},
{
closed = 1;
nodes = (
"1056 1197 LINE",
"967 1282 LINE",
"443 1282 LINE",
"303 1144 LINE",
"303 264 LINE",
"358 210 LINE"
);
},
{
closed = 1;
nodes = (
"459 1056 LINE",
"521 1118 LINE",
"853 1118 LINE",
"459 560 LINE"
);
}
);
width = 1420;
}
);
leftKerningGroup = O;
rightKerningGroup = O;
unicode = 00D8;
},
{
color = 6;
glyphname = OE;
lastChange = "2021-04-27 15:17:23 +0000";
layers = (
{
anchors = (
{
name = bottom;
position = "{946, 0}";
},
{
name = top;
position = "{946, 1400}";
}
);
layerId = "0B87BBC7-D91E-4FE2-8C5B-3F1AF694BBA3";
paths = (
{
closed = 1;
nodes = (
"1748 0 LINE",
"1748 283 LINE",
"1198 283 LINE",
"1198 565 LINE",
"1709 565 LINE",
"1709 848 LINE",
"1198 848 LINE",
"1198 1117 LINE",
"1748 1117 LINE",
"1748 1400 LINE",
"348 1400 LINE",
"142 1194 LINE",
"142 206 LINE",
"348 0 LINE"
);
},
{
closed = 1;
nodes = (
"922 140 LINE",
"1048 264 LINE",
"1048 1144 LINE",
"922 1268 LINE",
"423 1268 LINE",
"297 1144 LINE",
"297 264 LINE",
"423 140 LINE"
);
},
{
closed = 1;
nodes = (
"425 344 LINE",
"425 1056 LINE",
"486 1117 LINE",
"854 1117 LINE",
"915 1056 LINE",
"915 344 LINE",
"854 283 LINE",
"486 283 LINE"
);
},
{
closed = 1;
nodes = (
"269 256 LINE",
"269 1152 LINE",
"413 1296 LINE",
"932 1296 LINE",
"1048 1180 LINE",
"1048 1296 LINE",
"1644 1296 LINE",
"1644 1268 LINE",
"1076 1268 LINE",
"1076 724 LINE",
"1604 724 LINE",
"1604 696 LINE",
"1076 696 LINE",
"1076 140 LINE",
"1644 140 LINE",
"1644 112 LINE",
"1048 112 LINE",
"1048 228 LINE",
"932 112 LINE",
"413 112 LINE"
);
}
);
width = 1892;
},
{
anchors = (
{
name = bottom;
position = "{946, 0}";
},
{
name = top;
position = "{946, 1400}";
}
);
layerId = "5C9A105A-DAE9-444D-816C-282B7EF25764";
paths = (
{
closed = 1;
nodes = (
"1748 0 LINE",
"1748 283 LINE",
"1198 283 LINE",
"1198 565 LINE",
"1709 565 LINE",
"1709 848 LINE",
"1198 848 LINE",
"1198 1117 LINE",
"1748 1117 LINE",
"1748 1400 LINE",
"348 1400 LINE",
"142 1194 LINE",
"142 206 LINE",
"348 0 LINE"
);
},
{
closed = 1;
nodes = (
"865 256 LINE",
"942 333 LINE",
"942 1067 LINE",
"865 1144 LINE",
"475 1144 LINE",
"398 1067 LINE",
"398 333 LINE",
"475 256 LINE"
);
},
{
closed = 1;
nodes = (
"425 344 LINE",
"425 1056 LINE",
"486 1117 LINE",
"854 1117 LINE",
"915 1056 LINE",
"915 344 LINE",
"854 283 LINE",
"486 283 LINE"
);
},
{
closed = 1;
nodes = (
"169 217 LINE",
"169 1183 LINE",
"359 1373 LINE",
"988 1373 LINE",
"998 1373 LINE",
"1008 1373 LINE",
"1721 1373 LINE",
"1721 1144 LINE",
"1171 1144 LINE",
"1171 821 LINE",
"1683 821 LINE",
"1683 592 LINE",
"1171 592 LINE",
"1171 256 LINE",
"1721 256 LINE",
"1721 27 LINE",
"1008 27 LINE",
"998 27 LINE",
"988 27 LINE",
"359 27 LINE"
);
}
);
width = 1892;
},
{
anchors = (
{
name = bottom;
position = "{946, 0}";
},
{
name = top;
position = "{946, 1400}";
}
);
layerId = "F883F2BF-97BC-4587-9596-6665658F6F40";
paths = (
{
closed = 1;
nodes = (
"1748 0 LINE",
"1748 283 LINE",
"1198 283 LINE",
"1198 565 LINE",
"1709 565 LINE",
"1709 848 LINE",
"1198 848 LINE",
"1198 1117 LINE",
"1748 1117 LINE",
"1748 1400 LINE",
"348 1400 LINE",
"142 1194 LINE",
"142 206 LINE",
"348 0 LINE"
);
},
{
closed = 1;
nodes = (
"932 126 LINE",
"1062 256 LINE",
"1062 1152 LINE",
"932 1282 LINE",
"426 1282 LINE",
"282 1138 LINE",
"282 270 LINE",
"426 126 LINE"
);
},
{
closed = 1;
nodes = (
"425 344 LINE",
"425 1056 LINE",
"486 1117 LINE",
"854 1117 LINE",
"915 1056 LINE",
"915 344 LINE",
"854 283 LINE",
"486 283 LINE"
);
},
{
closed = 1;
nodes = (
"282 270 LINE",
"282 1138 LINE",
"426 1282 LINE",
"932 1282 LINE",
"1062 1152 LINE",
"1062 1282 LINE",
"1624 1282 LINE",
"1624 1282 LINE",
"1062 1282 LINE",
"1062 710 LINE",
"1584 710 LINE",
"1584 710 LINE",
"1062 710 LINE",
"1062 126 LINE",
"1624 126 LINE",
"1624 126 LINE",
"1062 126 LINE",
"1062 256 LINE",
"932 126 LINE",
"426 126 LINE"
);
}
);
width = 1892;
},
{
anchors = (
{
name = bottom;
position = "{976, 0}";
},
{
name = top;
position = "{976, 1400}";
}
);
layerId = "DDC1C77E-A6A2-4CE9-BB8A-1D9C0DC11BA6";
paths = (
{
closed = 1;
nodes = (
"1778 0 LINE",
"1778 283 LINE",
"1228 283 LINE",
"1228 565 LINE",
"1739 565 LINE",
"1739 848 LINE",
"1228 848 LINE",
"1228 1117 LINE",
"1778 1117 LINE",
"1778 1400 LINE",
"378 1400 LINE",
"172 1194 LINE",
"172 206 LINE",
"378 0 LINE"
);
},
{
closed = 1;
nodes = (
"895 256 LINE",
"972 333 LINE",
"972 1067 LINE",
"895 1144 LINE",
"505 1144 LINE",
"428 1067 LINE",
"428 333 LINE",
"505 256 LINE"
);
},
{
closed = 1;
nodes = (
"455 344 LINE",
"455 1056 LINE",
"516 1117 LINE",
"884 1117 LINE",
"945 1056 LINE",
"945 344 LINE",
"884 283 LINE",
"516 283 LINE"
);
},
{
closed = 1;
nodes = (
"199 217 LINE",
"199 1183 LINE",
"389 1373 LINE",
"1018 1373 LINE",
"1028 1373 LINE",
"1038 1373 LINE",
"1751 1373 LINE",
"1751 1144 LINE",
"1201 1144 LINE",
"1201 821 LINE",
"1713 821 LINE",
"1713 592 LINE",
"1201 592 LINE",
"1201 256 LINE",
"1751 256 LINE",
"1751 27 LINE",
"1038 27 LINE",
"1028 27 LINE",
"1018 27 LINE",
"389 27 LINE"
);
}
);
width = 1952;
},
{
anchors = (
{
name = bottom;
position = "{976, 0}";
},
{
name = top;
position = "{976, 1400}";
}
);
layerId = "0A080BD2-62EB-4516-9B42-F4E1F6E1D6F2";
paths = (
{
closed = 1;
nodes = (
"1778 0 LINE",
"1778 283 LINE",
"1228 283 LINE",
"1228 565 LINE",
"1739 565 LINE",
"1739 848 LINE",
"1228 848 LINE",
"1228 1117 LINE",
"1778 1117 LINE",
"1778 1400 LINE",
"378 1400 LINE",
"172 1194 LINE",
"172 206 LINE",
"378 0 LINE"
);
},
{
closed = 1;
nodes = (
"952 140 LINE",
"1078 264 LINE",
"1078 1144 LINE",
"952 1268 LINE",
"453 1268 LINE",
"327 1144 LINE",
"327 264 LINE",
"453 140 LINE"
);
},
{
closed = 1;
nodes = (
"455 344 LINE",
"455 1056 LINE",
"516 1117 LINE",
"884 1117 LINE",
"945 1056 LINE",
"945 344 LINE",
"884 283 LINE",
"516 283 LINE"
);
},
{
closed = 1;
nodes = (
"299 256 LINE",
"299 1152 LINE",
"443 1296 LINE",
"962 1296 LINE",
"1078 1180 LINE",
"1078 1296 LINE",
"1674 1296 LINE",
"1674 1268 LINE",
"1106 1268 LINE",
"1106 724 LINE",
"1634 724 LINE",
"1634 696 LINE",
"1106 696 LINE",
"1106 140 LINE",
"1674 140 LINE",
"1674 112 LINE",
"1078 112 LINE",
"1078 228 LINE",
"962 112 LINE",
"443 112 LINE"
);
}
);
width = 1952;
},
{
anchors = (
{
name = bottom;
position = "{976, 0}";
},
{
name = top;
position = "{976, 1400}";
}
);
layerId = "2B3778D7-DDED-4DCC-ADC4-D63709EF26D1";
paths = (
{
closed = 1;
nodes = (
"1778 0 LINE",
"1778 283 LINE",
"1228 283 LINE",
"1228 565 LINE",
"1739 565 LINE",
"1739 848 LINE",
"1228 848 LINE",
"1228 1117 LINE",
"1778 1117 LINE",
"1778 1400 LINE",
"378 1400 LINE",
"172 1194 LINE",
"172 206 LINE",
"378 0 LINE"
);
},
{
closed = 1;
nodes = (
"962 126 LINE",
"1092 256 LINE",
"1092 1152 LINE",
"962 1282 LINE",
"456 1282 LINE",
"312 1138 LINE",
"312 270 LINE",
"456 126 LINE"
);
},
{
closed = 1;
nodes = (
"455 344 LINE",
"455 1056 LINE",
"516 1117 LINE",
"884 1117 LINE",
"945 1056 LINE",
"945 344 LINE",
"884 283 LINE",
"516 283 LINE"
);
},
{
closed = 1;
nodes = (
"312 270 LINE",
"312 1138 LINE",
"456 1282 LINE",
"962 1282 LINE",
"1092 1152 LINE",
"1092 1282 LINE",
"1654 1282 LINE",
"1654 1282 LINE",
"1092 1282 LINE",
"1092 710 LINE",
"1614 710 LINE",
"1614 710 LINE",
"1092 710 LINE",
"1092 126 LINE",
"1654 126 LINE",
"1654 126 LINE",
"1092 126 LINE",
"1092 256 LINE",
"962 126 LINE",
"456 126 LINE"
);
}
);
width = 1952;
}
);
leftKerningGroup = O;
rightKerningGroup = E;
unicode = 0152;
},
{
color = 6;
glyphname = P;
lastChange = "2021-04-27 15:17:25 +0000";
layers = (
{
anchors = (
{
name = bottom;
position = "{466, 0}";
},
{
name = top;
position = "{466, 1400}";
}
);
layerId = "0B87BBC7-D91E-4FE2-8C5B-3F1AF694BBA3";
paths = (
{
closed = 1;
nodes = (
"393 0 LINE",
"393 418 LINE",
"615 418 LINE",
"840 643 LINE",
"840 1194 LINE",
"634 1400 LINE",
"110 1400 LINE",
"110 0 LINE"
);
},
{
closed = 1;
nodes = (
"235 1276 LINE",
"575 1276 LINE",
"719 1132 LINE",
"719 712 LINE",
"557 550 LINE",
"263 550 LINE",
"263 108 LINE",
"235 108 LINE"
);
},
{
closed = 1;
nodes = (
"393 1117 LINE",
"497 1117 LINE",
"558 1056 LINE",
"558 781 LINE",
"477 701 LINE",
"393 701 LINE"
);
},
{
closed = 1;
nodes = (
"547 578 LINE",
"691 720 LINE",
"691 1124 LINE",
"565 1248 LINE",
"263 1248 LINE",
"263 578 LINE"
);
}
);
width = 921;
},
{
anchors = (
{
name = bottom;
position = "{466, 0}";
},
{
name = top;
position = "{466, 1400}";
}
);
layerId = "5C9A105A-DAE9-444D-816C-282B7EF25764";
paths = (
{
closed = 1;
nodes = (
"393 0 LINE",
"393 418 LINE",
"615 418 LINE",
"840 643 LINE",
"840 1194 LINE",
"634 1400 LINE",
"110 1400 LINE",
"110 0 LINE"
);
},
{
closed = 1;
nodes = (
"137 1373 LINE",
"623 1373 LINE",
"813 1183 LINE",
"813 655 LINE",
"604 445 LINE",
"366 445 LINE",
"366 27 LINE",
"137 27 LINE"
);
},
{
closed = 1;
nodes = (
"393 1117 LINE",
"497 1117 LINE",
"558 1056 LINE",
"558 781 LINE",
"477 701 LINE",
"393 701 LINE"
);
},
{
closed = 1;
nodes = (
"488 674 LINE",
"585 770 LINE",
"585 1067 LINE",
"508 1144 LINE",
"366 1144 LINE",
"366 674 LINE"
);
}
);
width = 921;
},
{
anchors = (
{
name = bottom;
position = "{466, 0}";
},
{
name = top;
position = "{466, 1400}";
}
);
layerId = "F883F2BF-97BC-4587-9596-6665658F6F40";
paths = (
{
closed = 1;
nodes = (
"393 0 LINE",
"393 418 LINE",
"615 418 LINE",
"840 643 LINE",
"840 1194 LINE",
"634 1400 LINE",
"110 1400 LINE",
"110 0 LINE"
);
},
{
closed = 1;
nodes = (
"251 1259 LINE",
"573 1259 LINE",
"707 1125 LINE",
"707 717 LINE",
"555 565 LINE",
"250 565 LINE",
"250 142 LINE",
"251 142 LINE"
);
},
{
closed = 1;
nodes = (
"393 1117 LINE",
"497 1117 LINE",
"558 1056 LINE",
"558 781 LINE",
"477 701 LINE",
"393 701 LINE"
);
},
{
closed = 1;
nodes = (
"555 565 LINE",
"707 717 LINE",
"707 1125 LINE",
"573 1259 LINE",
"250 1259 LINE",
"250 565 LINE"
);
}
);
width = 921;
},
{
anchors = (
{
name = bottom;
position = "{789, 0}";
},
{
name = top;
position = "{789, 1400}";
}
);
layerId = "DDC1C77E-A6A2-4CE9-BB8A-1D9C0DC11BA6";
paths = (
{
closed = 1;
nodes = (
"423 0 LINE",
"423 418 LINE",
"1258 418 LINE",
"1483 643 LINE",
"1483 1194 LINE",
"1277 1400 LINE",
"140 1400 LINE",
"140 0 LINE"
);
},
{
closed = 1;
nodes = (
"167 1373 LINE",
"1266 1373 LINE",
"1456 1183 LINE",
"1456 655 LINE",
"1247 445 LINE",
"396 445 LINE",
"396 27 LINE",
"167 27 LINE"
);
},
{
closed = 1;
nodes = (
"423 1117 LINE",
"1140 1117 LINE",
"1201 1056 LINE",
"1201 781 LINE",
"1120 701 LINE",
"423 701 LINE"
);
},
{
closed = 1;
nodes = (
"1131 674 LINE",
"1228 770 LINE",
"1228 1067 LINE",
"1151 1144 LINE",
"396 1144 LINE",
"396 674 LINE"
);
}
);
width = 1594;
},
{
anchors = (
{
name = bottom;
position = "{789, 0}";
},
{
name = top;
position = "{789, 1400}";
}
);
layerId = "0A080BD2-62EB-4516-9B42-F4E1F6E1D6F2";
paths = (
{
closed = 1;
nodes = (
"423 0 LINE",
"423 418 LINE",
"1258 418 LINE",
"1483 643 LINE",
"1483 1194 LINE",
"1277 1400 LINE",
"140 1400 LINE",
"140 0 LINE"
);
},
{
closed = 1;
nodes = (
"265 1276 LINE",
"1218 1276 LINE",
"1362 1132 LINE",
"1362 712 LINE",
"1200 550 LINE",
"293 550 LINE",
"293 108 LINE",
"265 108 LINE"
);
},
{
closed = 1;
nodes = (
"423 1117 LINE",
"1140 1117 LINE",
"1201 1056 LINE",
"1201 781 LINE",
"1120 701 LINE",
"423 701 LINE"
);
},
{
closed = 1;
nodes = (
"1190 578 LINE",
"1334 720 LINE",
"1334 1124 LINE",
"1208 1248 LINE",
"293 1248 LINE",
"293 578 LINE"
);
}
);
width = 1594;
},
{
anchors = (
{
name = bottom;
position = "{789, 0}";
},
{
name = top;
position = "{789, 1400}";
}
);
layerId = "2B3778D7-DDED-4DCC-ADC4-D63709EF26D1";
paths = (
{
closed = 1;
nodes = (
"423 0 LINE",
"423 418 LINE",
"1258 418 LINE",
"1483 643 LINE",
"1483 1194 LINE",
"1277 1400 LINE",
"140 1400 LINE",
"140 0 LINE"
);
},
{
closed = 1;
nodes = (
"281 1259 LINE",
"1216 1259 LINE",
"1350 1125 LINE",
"1350 717 LINE",
"1198 565 LINE",
"280 565 LINE",
"280 142 LINE",
"281 142 LINE"
);
},
{
closed = 1;
nodes = (
"423 1117 LINE",
"1140 1117 LINE",
"1201 1056 LINE",
"1201 781 LINE",
"1120 701 LINE",
"423 701 LINE"
);
},
{
closed = 1;
nodes = (
"1198 565 LINE",
"1350 717 LINE",
"1350 1125 LINE",
"1216 1259 LINE",
"280 1259 LINE",
"280 565 LINE"
);
}
);
width = 1594;
}
);
leftKerningGroup = H;
leftMetricsKey = D;
rightKerningGroup = P;
unicode = 0050;
},
{
color = 6;
glyphname = Thorn;
lastChange = "2021-04-27 15:17:24 +0000";
layers = (
{
layerId = "F883F2BF-97BC-4587-9596-6665658F6F40";
paths = (
{
closed = 1;
nodes = (
"373 0 LINE",
"373 320 LINE",
"805 320 LINE",
"1012 526 LINE",
"1012 874 LINE",
"805 1080 LINE",
"373 1080 LINE",
"373 1400 LINE",
"90 1400 LINE",
"90 0 LINE"
);
},
{
closed = 1;
nodes = (
"232 1282 LINE",
"231 1282 LINE",
"231 944 LINE",
"735 944 LINE",
"867 816 LINE",
"867 614 LINE",
"715 466 LINE",
"231 466 LINE",
"231 123 LINE",
"232 123 LINE"
);
},
{
closed = 1;
nodes = (
"715 465 LINE",
"868 614 LINE",
"868 816 LINE",
"735 945 LINE",
"231 945 LINE",
"231 465 LINE"
);
},
{
closed = 1;
nodes = (
"373 798 LINE",
"668 798 LINE",
"729 736 LINE",
"729 664 LINE",
"668 603 LINE",
"373 603 LINE"
);
}
);
width = 1102;
},
{
layerId = "0B87BBC7-D91E-4FE2-8C5B-3F1AF694BBA3";
paths = (
{
closed = 1;
nodes = (
"373 0 LINE",
"373 320 LINE",
"805 320 LINE",
"1012 526 LINE",
"1012 874 LINE",
"805 1080 LINE",
"373 1080 LINE",
"373 1400 LINE",
"90 1400 LINE",
"90 0 LINE"
);
},
{
closed = 1;
nodes = (
"216 1282 LINE",
"244 1282 LINE",
"244 960 LINE",
"745 960 LINE",
"881 824 LINE",
"881 606 LINE",
"725 450 LINE",
"244 450 LINE",
"244 123 LINE",
"216 123 LINE"
);
},
{
closed = 1;
nodes = (
"715 478 LINE",
"853 614 LINE",
"853 816 LINE",
"735 932 LINE",
"244 932 LINE",
"244 478 LINE"
);
},
{
closed = 1;
nodes = (
"373 798 LINE",
"668 798 LINE",
"729 736 LINE",
"729 664 LINE",
"668 603 LINE",
"373 603 LINE"
);
}
);
width = 1102;
},
{
layerId = "5C9A105A-DAE9-444D-816C-282B7EF25764";
paths = (
{
closed = 1;
nodes = (
"373 0 LINE",
"373 320 LINE",
"805 320 LINE",
"1012 526 LINE",
"1012 874 LINE",
"805 1080 LINE",
"373 1080 LINE",
"373 1400 LINE",
"90 1400 LINE",
"90 0 LINE"
);
},
{
closed = 1;
nodes = (
"117 1373 LINE",
"346 1373 LINE",
"346 1053 LINE",
"794 1053 LINE",
"985 863 LINE",
"985 537 LINE",
"794 347 LINE",
"346 347 LINE",
"346 27 LINE",
"117 27 LINE"
);
},
{
closed = 1;
nodes = (
"679 576 LINE",
"756 653 LINE",
"756 748 LINE",
"679 824 LINE",
"346 824 LINE",
"346 576 LINE"
);
},
{
closed = 1;
nodes = (
"373 798 LINE",
"668 798 LINE",
"729 736 LINE",
"729 664 LINE",
"668 603 LINE",
"373 603 LINE"
);
}
);
width = 1102;
},
{
layerId = "DDC1C77E-A6A2-4CE9-BB8A-1D9C0DC11BA6";
paths = (
{
closed = 1;
nodes = (
"403 0 LINE",
"403 320 LINE",
"835 320 LINE",
"1042 526 LINE",
"1042 874 LINE",
"835 1080 LINE",
"403 1080 LINE",
"403 1400 LINE",
"120 1400 LINE",
"120 0 LINE"
);
},
{
closed = 1;
nodes = (
"147 1373 LINE",
"376 1373 LINE",
"376 1053 LINE",
"824 1053 LINE",
"1015 863 LINE",
"1015 537 LINE",
"824 347 LINE",
"376 347 LINE",
"376 27 LINE",
"147 27 LINE"
);
},
{
closed = 1;
nodes = (
"709 576 LINE",
"786 653 LINE",
"786 748 LINE",
"709 824 LINE",
"376 824 LINE",
"376 576 LINE"
);
},
{
closed = 1;
nodes = (
"403 798 LINE",
"698 798 LINE",
"759 736 LINE",
"759 664 LINE",
"698 603 LINE",
"403 603 LINE"
);
}
);
width = 1162;
},
{
layerId = "0A080BD2-62EB-4516-9B42-F4E1F6E1D6F2";
paths = (
{
closed = 1;
nodes = (
"403 0 LINE",
"403 320 LINE",
"835 320 LINE",
"1042 526 LINE",
"1042 874 LINE",
"835 1080 LINE",
"403 1080 LINE",
"403 1400 LINE",
"120 1400 LINE",
"120 0 LINE"
);
},
{
closed = 1;
nodes = (
"246 1282 LINE",
"274 1282 LINE",
"274 960 LINE",
"775 960 LINE",
"911 824 LINE",
"911 606 LINE",
"755 450 LINE",
"274 450 LINE",
"274 123 LINE",
"246 123 LINE"
);
},
{
closed = 1;
nodes = (
"745 478 LINE",
"883 614 LINE",
"883 816 LINE",
"765 932 LINE",
"274 932 LINE",
"274 478 LINE"
);
},
{
closed = 1;
nodes = (
"403 798 LINE",
"698 798 LINE",
"759 736 LINE",
"759 664 LINE",
"698 603 LINE",
"403 603 LINE"
);
}
);
width = 1162;
},
{
layerId = "2B3778D7-DDED-4DCC-ADC4-D63709EF26D1";
paths = (
{
closed = 1;
nodes = (
"403 0 LINE",
"403 320 LINE",
"835 320 LINE",
"1042 526 LINE",
"1042 874 LINE",
"835 1080 LINE",
"403 1080 LINE",
"403 1400 LINE",
"120 1400 LINE",
"120 0 LINE"
);
},
{
closed = 1;
nodes = (
"262 1282 LINE",
"261 1282 LINE",
"261 944 LINE",
"765 944 LINE",
"897 816 LINE",
"897 614 LINE",
"745 466 LINE",
"261 466 LINE",
"261 123 LINE",
"262 123 LINE"
);
},
{
closed = 1;
nodes = (
"745 465 LINE",
"898 614 LINE",
"898 816 LINE",
"765 945 LINE",
"261 945 LINE",
"261 465 LINE"
);
},
{
closed = 1;
nodes = (
"403 798 LINE",
"698 798 LINE",
"759 736 LINE",
"759 664 LINE",
"698 603 LINE",
"403 603 LINE"
);
}
);
width = 1162;
}
);
unicode = 00DE;
},
{
color = 6;
glyphname = Q;
lastChange = "2021-04-27 15:17:24 +0000";
layers = (
{
anchors = (
{
name = bottom;
position = "{500, 0}";
},
{
name = top;
position = "{500, 1400}";
}
);
layerId = "0B87BBC7-D91E-4FE2-8C5B-3F1AF694BBA3";
paths = (
{
closed = 1;
nodes = (
"919 -50 LINE",
"787 85 LINE",
"908 206 LINE",
"908 1194 LINE",
"702 1400 LINE",
"306 1400 LINE",
"100 1194 LINE",
"100 206 LINE",
"306 0 LINE",
"486 0 LINE",
"727 -242 LINE"
);
},
{
closed = 1;
nodes = (
"534 132 LINE",
"374 132 LINE",
"230 276 LINE",
"230 1132 LINE",
"374 1276 LINE",
"638 1276 LINE",
"782 1132 LINE",
"782 276 LINE",
"638 132 LINE",
"574 132 LINE",
"770 -70 LINE",
"750 -90 LINE"
);
},
{
closed = 1;
nodes = (
"383 344 LINE",
"383 1056 LINE",
"444 1117 LINE",
"564 1117 LINE",
"626 1056 LINE",
"626 344 LINE",
"564 283 LINE",
"444 283 LINE"
);
},
{
closed = 1;
nodes = (
"628 160 LINE",
"754 284 LINE",
"754 1124 LINE",
"628 1248 LINE",
"384 1248 LINE",
"258 1124 LINE",
"258 284 LINE",
"384 160 LINE"
);
}
);
width = 1019;
},
{
anchors = (
{
name = bottom;
position = "{507, 0}";
},
{
name = top;
position = "{507, 1400}";
}
);
layerId = "5C9A105A-DAE9-444D-816C-282B7EF25764";
paths = (
{
closed = 1;
nodes = (
"919 -50 LINE",
"787 85 LINE",
"908 206 LINE",
"908 1194 LINE",
"702 1400 LINE",
"306 1400 LINE",
"100 1194 LINE",
"100 206 LINE",
"306 0 LINE",
"485 0 LINE",
"727 -242 LINE"
);
},
{
closed = 1;
nodes = (
"496 27 LINE",
"317 27 LINE",
"127 217 LINE",
"127 1183 LINE",
"317 1373 LINE",
"691 1373 LINE",
"881 1183 LINE",
"881 217 LINE",
"747 83 LINE",
"747 83 LINE",
"881 -50 LINE",
"727 -204 LINE"
);
},
{
closed = 1;
nodes = (
"383 344 LINE",
"383 1056 LINE",
"444 1117 LINE",
"564 1117 LINE",
"626 1056 LINE",
"626 344 LINE",
"564 283 LINE",
"444 283 LINE"
);
},
{
closed = 1;
nodes = (
"576 256 LINE",
"652 333 LINE",
"652 1067 LINE",
"576 1144 LINE",
"433 1144 LINE",
"356 1067 LINE",
"356 333 LINE",
"433 256 LINE"
);
}
);
width = 1019;
},
{
anchors = (
{
name = bottom;
position = "{500, 0}";
},
{
name = top;
position = "{500, 1400}";
}
);
layerId = "F883F2BF-97BC-4587-9596-6665658F6F40";
paths = (
{
closed = 1;
nodes = (
"919 -50 LINE",
"787 85 LINE",
"908 206 LINE",
"908 1194 LINE",
"702 1400 LINE",
"306 1400 LINE",
"100 1194 LINE",
"100 206 LINE",
"306 0 LINE",
"486 0 LINE",
"727 -242 LINE"
);
},
{
closed = 1;
nodes = (
"546 142 LINE",
"384 142 LINE",
"246 280 LINE",
"246 1128 LINE",
"374 1259 LINE",
"638 1259 LINE",
"769 1128 LINE",
"769 280 LINE",
"628 142 LINE",
"545 142 LINE",
"747 -67 LINE",
"748 -67 LINE"
);
},
{
closed = 1;
nodes = (
"383 344 LINE",
"383 1056 LINE",
"444 1117 LINE",
"564 1117 LINE",
"626 1056 LINE",
"626 344 LINE",
"564 283 LINE",
"444 283 LINE"
);
},
{
closed = 1;
nodes = (
"628 142 LINE",
"770 280 LINE",
"770 1128 LINE",
"638 1260 LINE",
"374 1260 LINE",
"245 1128 LINE",
"245 280 LINE",
"384 142 LINE"
);
}
);
width = 1019;
},
{
anchors = (
{
name = bottom;
position = "{838, 0}";
},
{
name = top;
position = "{838, 1400}";
}
);
layerId = "DDC1C77E-A6A2-4CE9-BB8A-1D9C0DC11BA6";
paths = (
{
closed = 1;
nodes = (
"1536 -50 LINE",
"1404 85 LINE",
"1525 206 LINE",
"1525 1194 LINE",
"1319 1400 LINE",
"336 1400 LINE",
"130 1194 LINE",
"130 206 LINE",
"336 0 LINE",
"1102 0 LINE",
"1344 -242 LINE"
);
},
{
closed = 1;
nodes = (
"1113 27 LINE",
"347 27 LINE",
"157 217 LINE",
"157 1183 LINE",
"347 1373 LINE",
"1308 1373 LINE",
"1498 1183 LINE",
"1498 217 LINE",
"1364 83 LINE",
"1364 83 LINE",
"1498 -50 LINE",
"1344 -204 LINE"
);
},
{
closed = 1;
nodes = (
"413 344 LINE",
"413 1056 LINE",
"474 1117 LINE",
"1181 1117 LINE",
"1243 1056 LINE",
"1243 344 LINE",
"1181 283 LINE",
"474 283 LINE"
);
},
{
closed = 1;
nodes = (
"1193 256 LINE",
"1269 333 LINE",
"1269 1067 LINE",
"1193 1144 LINE",
"463 1144 LINE",
"386 1067 LINE",
"386 333 LINE",
"463 256 LINE"
);
}
);
width = 1666;
},
{
anchors = (
{
name = bottom;
position = "{850, 0}";
},
{
name = top;
position = "{850, 1400}";
}
);
layerId = "0A080BD2-62EB-4516-9B42-F4E1F6E1D6F2";
paths = (
{
closed = 1;
nodes = (
"1536 -50 LINE",
"1404 85 LINE",
"1525 206 LINE",
"1525 1194 LINE",
"1319 1400 LINE",
"336 1400 LINE",
"130 1194 LINE",
"130 206 LINE",
"336 0 LINE",
"1103 0 LINE",
"1344 -242 LINE"
);
},
{
closed = 1;
nodes = (
"1151 132 LINE",
"404 132 LINE",
"260 276 LINE",
"260 1132 LINE",
"404 1276 LINE",
"1255 1276 LINE",
"1399 1132 LINE",
"1399 276 LINE",
"1255 132 LINE",
"1191 132 LINE",
"1387 -70 LINE",
"1367 -90 LINE"
);
},
{
closed = 1;
nodes = (
"413 344 LINE",
"413 1056 LINE",
"474 1117 LINE",
"1181 1117 LINE",
"1243 1056 LINE",
"1243 344 LINE",
"1181 283 LINE",
"474 283 LINE"
);
},
{
closed = 1;
nodes = (
"1245 160 LINE",
"1371 284 LINE",
"1371 1124 LINE",
"1245 1248 LINE",
"414 1248 LINE",
"288 1124 LINE",
"288 284 LINE",
"414 160 LINE"
);
}
);
width = 1666;
},
{
anchors = (
{
name = bottom;
position = "{850, 0}";
},
{
name = top;
position = "{850, 1400}";
}
);
layerId = "2B3778D7-DDED-4DCC-ADC4-D63709EF26D1";
paths = (
{
closed = 1;
nodes = (
"1536 -50 LINE",
"1404 85 LINE",
"1525 206 LINE",
"1525 1194 LINE",
"1319 1400 LINE",
"336 1400 LINE",
"130 1194 LINE",
"130 206 LINE",
"336 0 LINE",
"1103 0 LINE",
"1344 -242 LINE"
);
},
{
closed = 1;
nodes = (
"1163 142 LINE",
"414 142 LINE",
"276 280 LINE",
"276 1128 LINE",
"404 1259 LINE",
"1255 1259 LINE",
"1386 1128 LINE",
"1386 280 LINE",
"1245 142 LINE",
"1162 142 LINE",
"1364 -67 LINE",
"1365 -67 LINE"
);
},
{
closed = 1;
nodes = (
"413 344 LINE",
"413 1056 LINE",
"474 1117 LINE",
"1181 1117 LINE",
"1243 1056 LINE",
"1243 344 LINE",
"1181 283 LINE",
"474 283 LINE"
);
},
{
closed = 1;
nodes = (
"1245 142 LINE",
"1387 280 LINE",
"1387 1128 LINE",
"1255 1260 LINE",
"404 1260 LINE",
"275 1128 LINE",
"275 280 LINE",
"414 142 LINE"
);
}
);
width = 1666;
}
);
leftKerningGroup = O;
leftMetricsKey = O;
rightKerningGroup = O;
rightMetricsKey = O;
unicode = 0051;
},
{
color = 6;
glyphname = R;
lastChange = "2021-04-27 15:17:23 +0000";
layers = (
{
anchors = (
{
name = bottom;
position = "{495, 0}";
},
{
name = top;
position = "{495, 1400}";
}
);
layerId = "0B87BBC7-D91E-4FE2-8C5B-3F1AF694BBA3";
paths = (
{
closed = 1;
nodes = (
"393 0 LINE",
"393 515 LINE",
"476 515 LINE",
"576 415 LINE",
"576 0 LINE",
"859 0 LINE",
"859 515 LINE",
"737 648 LINE",
"859 760 LINE",
"859 1194 LINE",
"653 1400 LINE",
"110 1400 LINE",
"110 0 LINE"
);
},
{
closed = 1;
nodes = (
"238 1275 LINE",
"583 1275 LINE",
"727 1131 LINE",
"727 809 LINE",
"554 664 LINE",
"735 466 LINE",
"735 124 LINE",
"707 124 LINE",
"707 458 LINE",
"530 650 LINE",
"266 650 LINE",
"266 124 LINE",
"238 124 LINE"
);
},
{
closed = 1;
nodes = (
"393 1117 LINE",
"515 1117 LINE",
"576 1056 LINE",
"576 860 LINE",
"515 798 LINE",
"393 798 LINE"
);
},
{
closed = 1;
nodes = (
"530 678 LINE",
"699 818 LINE",
"699 1123 LINE",
"573 1247 LINE",
"266 1247 LINE",
"266 678 LINE"
);
}
);
width = 959;
},
{
anchors = (
{
name = bottom;
position = "{495, 0}";
},
{
name = top;
position = "{495, 1400}";
}
);
layerId = "5C9A105A-DAE9-444D-816C-282B7EF25764";
paths = (
{
closed = 1;
nodes = (
"393 0 LINE",
"393 515 LINE",
"476 515 LINE",
"576 415 LINE",
"576 0 LINE",
"859 0 LINE",
"859 515 LINE",
"737 648 LINE",
"859 760 LINE",
"859 1194 LINE",
"653 1400 LINE",
"110 1400 LINE",
"110 0 LINE"
);
},
{
closed = 1;
nodes = (
"137 1373 LINE",
"642 1373 LINE",
"832 1183 LINE",
"832 771 LINE",
"700 648 LINE",
"832 504 LINE",
"832 27 LINE",
"603 27 LINE",
"603 427 LINE",
"488 542 LINE",
"366 542 LINE",
"366 27 LINE",
"137 27 LINE"
);
},
{
closed = 1;
nodes = (
"393 1117 LINE",
"515 1117 LINE",
"576 1056 LINE",
"576 860 LINE",
"515 798 LINE",
"393 798 LINE"
);
},
{
closed = 1;
nodes = (
"526 771 LINE",
"603 848 LINE",
"603 1067 LINE",
"526 1144 LINE",
"366 1144 LINE",
"366 771 LINE"
);
}
);
width = 959;
},
{
anchors = (
{
name = bottom;
position = "{495, 0}";
},
{
name = top;
position = "{495, 1400}";
}
);
layerId = "F883F2BF-97BC-4587-9596-6665658F6F40";
paths = (
{
closed = 1;
nodes = (
"393 0 LINE",
"393 515 LINE",
"476 515 LINE",
"576 415 LINE",
"576 0 LINE",
"859 0 LINE",
"859 515 LINE",
"737 648 LINE",
"859 760 LINE",
"859 1194 LINE",
"653 1400 LINE",
"110 1400 LINE",
"110 0 LINE"
);
},
{
closed = 1;
nodes = (
"253 1259 LINE",
"583 1259 LINE",
"712 1131 LINE",
"712 815 LINE",
"545 663 LINE",
"719 466 LINE",
"719 142 LINE",
"720 142 LINE",
"720 466 LINE",
"545 663 LINE",
"252 663 LINE",
"252 142 LINE",
"253 142 LINE"
);
},
{
closed = 1;
nodes = (
"393 1117 LINE",
"515 1117 LINE",
"576 1056 LINE",
"576 860 LINE",
"515 798 LINE",
"393 798 LINE"
);
},
{
closed = 1;
nodes = (
"544 662 LINE",
"713 815 LINE",
"713 1131 LINE",
"583 1260 LINE",
"252 1260 LINE",
"252 662 LINE"
);
}
);
width = 959;
},
{
anchors = (
{
name = bottom;
position = "{818, 0}";
},
{
name = top;
position = "{818, 1400}";
}
);
layerId = "DDC1C77E-A6A2-4CE9-BB8A-1D9C0DC11BA6";
paths = (
{
closed = 1;
nodes = (
"423 0 LINE",
"423 515 LINE",
"1146 515 LINE",
"1246 415 LINE",
"1246 0 LINE",
"1529 0 LINE",
"1529 515 LINE",
"1407 648 LINE",
"1529 760 LINE",
"1529 1194 LINE",
"1323 1400 LINE",
"140 1400 LINE",
"140 0 LINE"
);
},
{
closed = 1;
nodes = (
"167 1373 LINE",
"1312 1373 LINE",
"1502 1183 LINE",
"1502 771 LINE",
"1370 648 LINE",
"1502 504 LINE",
"1502 27 LINE",
"1273 27 LINE",
"1273 427 LINE",
"1158 542 LINE",
"396 542 LINE",
"396 27 LINE",
"167 27 LINE"
);
},
{
closed = 1;
nodes = (
"423 1117 LINE",
"1185 1117 LINE",
"1246 1056 LINE",
"1246 860 LINE",
"1185 798 LINE",
"423 798 LINE"
);
},
{
closed = 1;
nodes = (
"1196 771 LINE",
"1273 848 LINE",
"1273 1067 LINE",
"1196 1144 LINE",
"396 1144 LINE",
"396 771 LINE"
);
}
);
width = 1659;
},
{
anchors = (
{
name = bottom;
position = "{818, 0}";
},
{
name = top;
position = "{818, 1400}";
}
);
layerId = "0A080BD2-62EB-4516-9B42-F4E1F6E1D6F2";
paths = (
{
closed = 1;
nodes = (
"423 0 LINE",
"423 515 LINE",
"1146 515 LINE",
"1246 415 LINE",
"1246 0 LINE",
"1529 0 LINE",
"1529 515 LINE",
"1407 648 LINE",
"1529 760 LINE",
"1529 1194 LINE",
"1323 1400 LINE",
"140 1400 LINE",
"140 0 LINE"
);
},
{
closed = 1;
nodes = (
"268 1275 LINE",
"1253 1275 LINE",
"1397 1131 LINE",
"1397 809 LINE",
"1224 664 LINE",
"1405 466 LINE",
"1405 124 LINE",
"1377 124 LINE",
"1377 458 LINE",
"1200 650 LINE",
"296 650 LINE",
"296 124 LINE",
"268 124 LINE"
);
},
{
closed = 1;
nodes = (
"423 1117 LINE",
"1185 1117 LINE",
"1246 1056 LINE",
"1246 860 LINE",
"1185 798 LINE",
"423 798 LINE"
);
},
{
closed = 1;
nodes = (
"1200 678 LINE",
"1369 818 LINE",
"1369 1123 LINE",
"1243 1247 LINE",
"296 1247 LINE",
"296 678 LINE"
);
}
);
width = 1659;
},
{
anchors = (
{
name = bottom;
position = "{818, 0}";
},
{
name = top;
position = "{818, 1400}";
}
);
layerId = "2B3778D7-DDED-4DCC-ADC4-D63709EF26D1";
paths = (
{
closed = 1;
nodes = (
"423 0 LINE",
"423 515 LINE",
"1146 515 LINE",
"1246 415 LINE",
"1246 0 LINE",
"1529 0 LINE",
"1529 515 LINE",
"1407 648 LINE",
"1529 760 LINE",
"1529 1194 LINE",
"1323 1400 LINE",
"140 1400 LINE",
"140 0 LINE"
);
},
{
closed = 1;
nodes = (
"283 1259 LINE",
"1253 1259 LINE",
"1382 1131 LINE",
"1382 815 LINE",
"1215 663 LINE",
"1389 466 LINE",
"1389 142 LINE",
"1390 142 LINE",
"1390 466 LINE",
"1215 663 LINE",
"282 663 LINE",
"282 142 LINE",
"283 142 LINE"
);
},
{
closed = 1;
nodes = (
"423 1117 LINE",
"1185 1117 LINE",
"1246 1056 LINE",
"1246 860 LINE",
"1185 798 LINE",
"423 798 LINE"
);
},
{
closed = 1;
nodes = (
"1214 662 LINE",
"1383 815 LINE",
"1383 1131 LINE",
"1253 1260 LINE",
"282 1260 LINE",
"282 662 LINE"
);
}
);
width = 1659;
}
);
leftKerningGroup = H;
leftMetricsKey = D;
rightKerningGroup = R;
rightMetricsKey = O;
unicode = 0052;
},
{
color = 6;
glyphname = S;
lastChange = "2021-04-27 15:17:24 +0000";
layers = (
{
anchors = (
{
name = bottom;
position = "{489, 0}";
},
{
name = top;
position = "{489, 1400}";
}
);
layerId = "0B87BBC7-D91E-4FE2-8C5B-3F1AF694BBA3";
paths = (
{
closed = 1;
nodes = (
"672 0 LINE",
"878 206 LINE",
"878 636 LINE",
"672 842 LINE",
"450 842 LINE",
"388 903 LINE",
"388 1056 LINE",
"450 1117 LINE",
"515 1117 LINE",
"576 1056 LINE",
"576 942 LINE",
"859 942 LINE",
"859 1194 LINE",
"653 1400 LINE",
"312 1400 LINE",
"106 1194 LINE",
"106 765 LINE",
"312 559 LINE",
"534 559 LINE",
"595 498 LINE",
"595 344 LINE",
"534 283 LINE",
"444 283 LINE",
"383 344 LINE",
"383 458 LINE",
"100 458 LINE",
"100 206 LINE",
"306 0 LINE"
);
},
{
closed = 1;
nodes = (
"233 260 LINE",
"233 343 LINE",
"261 343 LINE",
"261 268 LINE",
"377 154 LINE",
"590 154 LINE",
"716 278 LINE",
"716 583 LINE",
"610 687 LINE",
"381 687 LINE",
"233 835 LINE",
"233 1128 LINE",
"377 1272 LINE",
"596 1272 LINE",
"730 1138 LINE",
"730 1057 LINE",
"702 1057 LINE",
"702 1130 LINE",
"586 1244 LINE",
"387 1244 LINE",
"261 1120 LINE",
"261 843 LINE",
"389 715 LINE",
"620 715 LINE",
"744 591 LINE",
"744 270 LINE",
"600 126 LINE",
"367 126 LINE"
);
}
);
width = 978;
},
{
anchors = (
{
name = bottom;
position = "{489, 0}";
},
{
name = top;
position = "{489, 1400}";
}
);
layerId = "5C9A105A-DAE9-444D-816C-282B7EF25764";
paths = (
{
closed = 1;
nodes = (
"672 0 LINE",
"878 206 LINE",
"878 636 LINE",
"672 842 LINE",
"450 842 LINE",
"388 903 LINE",
"388 1056 LINE",
"450 1117 LINE",
"515 1117 LINE",
"576 1056 LINE",
"576 942 LINE",
"859 942 LINE",
"859 1194 LINE",
"653 1400 LINE",
"312 1400 LINE",
"106 1194 LINE",
"106 765 LINE",
"312 559 LINE",
"534 559 LINE",
"595 498 LINE",
"595 344 LINE",
"534 283 LINE",
"444 283 LINE",
"383 344 LINE",
"383 458 LINE",
"100 458 LINE",
"100 206 LINE",
"306 0 LINE"
);
},
{
closed = 1;
nodes = (
"127 217 LINE",
"127 431 LINE",
"356 431 LINE",
"356 333 LINE",
"433 256 LINE",
"545 256 LINE",
"622 333 LINE",
"622 513 LINE",
"545 585 LINE",
"323 585 LINE",
"133 776 LINE",
"133 1183 LINE",
"323 1373 LINE",
"642 1373 LINE",
"832 1183 LINE",
"832 969 LINE",
"603 969 LINE",
"603 1067 LINE",
"526 1144 LINE",
"438 1144 LINE",
"362 1067 LINE",
"362 891 LINE",
"438 817 LINE",
"661 817 LINE",
"851 625 LINE",
"851 217 LINE",
"661 27 LINE",
"317 27 LINE"
);
}
);
width = 978;
},
{
anchors = (
{
name = bottom;
position = "{489, 0}";
},
{
name = top;
position = "{489, 1400}";
}
);
layerId = "F883F2BF-97BC-4587-9596-6665658F6F40";
paths = (
{
closed = 1;
nodes = (
"672 0 LINE",
"878 206 LINE",
"878 636 LINE",
"672 842 LINE",
"450 842 LINE",
"388 903 LINE",
"388 1056 LINE",
"450 1117 LINE",
"515 1117 LINE",
"576 1056 LINE",
"576 942 LINE",
"859 942 LINE",
"859 1194 LINE",
"653 1400 LINE",
"312 1400 LINE",
"106 1194 LINE",
"106 765 LINE",
"312 559 LINE",
"534 559 LINE",
"595 498 LINE",
"595 344 LINE",
"534 283 LINE",
"444 283 LINE",
"383 344 LINE",
"383 458 LINE",
"100 458 LINE",
"100 206 LINE",
"306 0 LINE"
);
},
{
closed = 1;
nodes = (
"248 260 LINE",
"248 328 LINE",
"248 328 LINE",
"248 260 LINE",
"372 142 LINE",
"587 142 LINE",
"731 280 LINE",
"731 580 LINE",
"617 699 LINE",
"390 699 LINE",
"249 845 LINE",
"249 1128 LINE",
"386 1259 LINE",
"590 1259 LINE",
"716 1128 LINE",
"716 1072 LINE",
"716 1072 LINE",
"716 1128 LINE",
"590 1259 LINE",
"386 1259 LINE",
"249 1128 LINE",
"249 845 LINE",
"390 699 LINE",
"617 699 LINE",
"731 580 LINE",
"731 280 LINE",
"587 142 LINE",
"372 142 LINE"
);
}
);
width = 978;
},
{
anchors = (
{
name = bottom;
position = "{812, 0}";
},
{
name = top;
position = "{812, 1400}";
}
);
layerId = "DDC1C77E-A6A2-4CE9-BB8A-1D9C0DC11BA6";
paths = (
{
closed = 1;
nodes = (
"1289 0 LINE",
"1495 206 LINE",
"1495 636 LINE",
"1289 842 LINE",
"480 842 LINE",
"418 903 LINE",
"418 1056 LINE",
"480 1117 LINE",
"1132 1117 LINE",
"1193 1056 LINE",
"1193 942 LINE",
"1476 942 LINE",
"1476 1194 LINE",
"1270 1400 LINE",
"342 1400 LINE",
"136 1194 LINE",
"136 765 LINE",
"342 559 LINE",
"1151 559 LINE",
"1212 498 LINE",
"1212 344 LINE",
"1151 283 LINE",
"474 283 LINE",
"413 344 LINE",
"413 458 LINE",
"130 458 LINE",
"130 206 LINE",
"336 0 LINE"
);
},
{
closed = 1;
nodes = (
"157 217 LINE",
"157 431 LINE",
"386 431 LINE",
"386 333 LINE",
"463 256 LINE",
"1162 256 LINE",
"1239 333 LINE",
"1239 513 LINE",
"1162 585 LINE",
"353 585 LINE",
"163 776 LINE",
"163 1183 LINE",
"353 1373 LINE",
"1259 1373 LINE",
"1449 1183 LINE",
"1449 969 LINE",
"1220 969 LINE",
"1220 1067 LINE",
"1143 1144 LINE",
"468 1144 LINE",
"392 1067 LINE",
"392 891 LINE",
"468 817 LINE",
"1278 817 LINE",
"1468 625 LINE",
"1468 217 LINE",
"1278 27 LINE",
"347 27 LINE"
);
}
);
width = 1625;
},
{
anchors = (
{
name = bottom;
position = "{812, 0}";
},
{
name = top;
position = "{812, 1400}";
}
);
layerId = "0A080BD2-62EB-4516-9B42-F4E1F6E1D6F2";
paths = (
{
closed = 1;
nodes = (
"1289 0 LINE",
"1495 206 LINE",
"1495 636 LINE",
"1289 842 LINE",
"480 842 LINE",
"418 903 LINE",
"418 1056 LINE",
"480 1117 LINE",
"1132 1117 LINE",
"1193 1056 LINE",
"1193 942 LINE",
"1476 942 LINE",
"1476 1194 LINE",
"1270 1400 LINE",
"342 1400 LINE",
"136 1194 LINE",
"136 765 LINE",
"342 559 LINE",
"1151 559 LINE",
"1212 498 LINE",
"1212 344 LINE",
"1151 283 LINE",
"474 283 LINE",
"413 344 LINE",
"413 458 LINE",
"130 458 LINE",
"130 206 LINE",
"336 0 LINE"
);
},
{
closed = 1;
nodes = (
"263 260 LINE",
"263 343 LINE",
"291 343 LINE",
"291 268 LINE",
"407 154 LINE",
"1207 154 LINE",
"1333 278 LINE",
"1333 583 LINE",
"1227 687 LINE",
"411 687 LINE",
"263 835 LINE",
"263 1128 LINE",
"407 1272 LINE",
"1213 1272 LINE",
"1347 1138 LINE",
"1347 1057 LINE",
"1319 1057 LINE",
"1319 1130 LINE",
"1203 1244 LINE",
"417 1244 LINE",
"291 1120 LINE",
"291 843 LINE",
"419 715 LINE",
"1237 715 LINE",
"1361 591 LINE",
"1361 270 LINE",
"1217 126 LINE",
"397 126 LINE"
);
}
);
width = 1625;
},
{
anchors = (
{
name = bottom;
position = "{812, 0}";
},
{
name = top;
position = "{812, 1400}";
}
);
layerId = "2B3778D7-DDED-4DCC-ADC4-D63709EF26D1";
paths = (
{
closed = 1;
nodes = (
"1289 0 LINE",
"1495 206 LINE",
"1495 636 LINE",
"1289 842 LINE",
"480 842 LINE",
"418 903 LINE",
"418 1056 LINE",
"480 1117 LINE",
"1132 1117 LINE",
"1193 1056 LINE",
"1193 942 LINE",
"1476 942 LINE",
"1476 1194 LINE",
"1270 1400 LINE",
"342 1400 LINE",
"136 1194 LINE",
"136 765 LINE",
"342 559 LINE",
"1151 559 LINE",
"1212 498 LINE",
"1212 344 LINE",
"1151 283 LINE",
"474 283 LINE",
"413 344 LINE",
"413 458 LINE",
"130 458 LINE",
"130 206 LINE",
"336 0 LINE"
);
},
{
closed = 1;
nodes = (
"278 260 LINE",
"278 328 LINE",
"278 328 LINE",
"278 260 LINE",
"402 142 LINE",
"1204 142 LINE",
"1348 280 LINE",
"1348 580 LINE",
"1234 699 LINE",
"420 699 LINE",
"279 845 LINE",
"279 1128 LINE",
"416 1259 LINE",
"1207 1259 LINE",
"1333 1128 LINE",
"1333 1072 LINE",
"1333 1072 LINE",
"1333 1128 LINE",
"1207 1259 LINE",
"416 1259 LINE",
"279 1128 LINE",
"279 845 LINE",
"420 699 LINE",
"1234 699 LINE",
"1348 580 LINE",
"1348 280 LINE",
"1204 142 LINE",
"402 142 LINE"
);
}
);
width = 1625;
}
);
leftKerningGroup = S;
leftMetricsKey = O;
rightKerningGroup = S;
rightMetricsKey = O;
unicode = 0053;
},
{
color = 6;
glyphname = Scedilla;
lastChange = "2021-04-27 15:17:23 +0000";
layers = (
{
layerId = "F883F2BF-97BC-4587-9596-6665658F6F40";
paths = (
{
closed = 1;
nodes = (
"727 -349 LINE",
"890 -160 LINE",
"751 0 LINE",
"894 0 LINE",
"1100 206 LINE",
"1100 596 LINE",
"894 802 LINE",
"452 892 LINE",
"390 953 LINE",
"390 1056 LINE",
"452 1117 LINE",
"737 1117 LINE",
"798 1056 LINE",
"798 942 LINE",
"1081 942 LINE",
"1081 1194 LINE",
"875 1400 LINE",
"314 1400 LINE",
"108 1194 LINE",
"108 815 LINE",
"314 609 LINE",
"756 519 LINE",
"817 458 LINE",
"817 344 LINE",
"756 283 LINE",
"446 283 LINE",
"385 344 LINE",
"385 458 LINE",
"102 458 LINE",
"102 206 LINE",
"308 0 LINE",
"483 0 LINE",
"483 -130 LINE",
"617 -130 LINE",
"647 -160 LINE",
"617 -192 LINE",
"412 -192 LINE",
"412 -349 LINE"
);
},
{
closed = 1;
nodes = (
"518 -271 LINE",
"680 -271 LINE",
"777 -160 LINE",
"680 -51 LINE",
"585 -51 LINE",
"585 140 LINE",
"369 140 LINE",
"249 260 LINE",
"249 333 LINE",
"249 333 LINE",
"249 260 LINE",
"369 140 LINE",
"822 140 LINE",
"952 270 LINE",
"952 551 LINE",
"842 662 LINE",
"383 750 LINE",
"249 885 LINE",
"249 1128 LINE",
"379 1258 LINE",
"818 1258 LINE",
"938 1138 LINE",
"938 1077 LINE",
"938 1077 LINE",
"938 1138 LINE",
"818 1258 LINE",
"379 1258 LINE",
"249 1128 LINE",
"249 885 LINE",
"383 750 LINE",
"842 662 LINE",
"952 551 LINE",
"952 270 LINE",
"822 140 LINE",
"585 140 LINE",
"585 -51 LINE",
"680 -51 LINE",
"777 -160 LINE",
"680 -271 LINE",
"518 -271 LINE"
);
}
);
width = 1202;
},
{
layerId = "0B87BBC7-D91E-4FE2-8C5B-3F1AF694BBA3";
paths = (
{
closed = 1;
nodes = (
"727 -349 LINE",
"890 -160 LINE",
"751 0 LINE",
"894 0 LINE",
"1100 206 LINE",
"1100 596 LINE",
"894 802 LINE",
"452 892 LINE",
"390 953 LINE",
"390 1056 LINE",
"452 1117 LINE",
"737 1117 LINE",
"798 1056 LINE",
"798 942 LINE",
"1081 942 LINE",
"1081 1194 LINE",
"875 1400 LINE",
"314 1400 LINE",
"108 1194 LINE",
"108 815 LINE",
"314 609 LINE",
"756 519 LINE",
"817 458 LINE",
"817 344 LINE",
"756 283 LINE",
"446 283 LINE",
"385 344 LINE",
"385 458 LINE",
"102 458 LINE",
"102 206 LINE",
"308 0 LINE",
"483 0 LINE",
"483 -130 LINE",
"617 -130 LINE",
"647 -160 LINE",
"617 -192 LINE",
"412 -192 LINE",
"412 -349 LINE"
);
},
{
closed = 1;
nodes = (
"498 -257 LINE",
"667 -257 LINE",
"754 -160 LINE",
"667 -65 LINE",
"570 -65 LINE",
"570 126 LINE",
"369 126 LINE",
"235 260 LINE",
"235 353 LINE",
"263 353 LINE",
"263 268 LINE",
"379 154 LINE",
"812 154 LINE",
"938 278 LINE",
"938 543 LINE",
"832 647 LINE",
"383 737 LINE",
"235 885 LINE",
"235 1128 LINE",
"379 1272 LINE",
"818 1272 LINE",
"952 1138 LINE",
"952 1057 LINE",
"924 1057 LINE",
"924 1130 LINE",
"808 1244 LINE",
"389 1244 LINE",
"263 1120 LINE",
"263 893 LINE",
"391 765 LINE",
"842 675 LINE",
"966 551 LINE",
"966 270 LINE",
"822 126 LINE",
"598 126 LINE",
"598 -38 LINE",
"680 -38 LINE",
"790 -160 LINE",
"680 -284 LINE",
"498 -284 LINE"
);
}
);
width = 1202;
},
{
layerId = "5C9A105A-DAE9-444D-816C-282B7EF25764";
paths = (
{
closed = 1;
nodes = (
"727 -349 LINE",
"890 -160 LINE",
"751 0 LINE",
"894 0 LINE",
"1100 206 LINE",
"1100 596 LINE",
"894 802 LINE",
"452 892 LINE",
"390 953 LINE",
"390 1056 LINE",
"452 1117 LINE",
"737 1117 LINE",
"798 1056 LINE",
"798 942 LINE",
"1081 942 LINE",
"1081 1194 LINE",
"875 1400 LINE",
"314 1400 LINE",
"108 1194 LINE",
"108 815 LINE",
"314 609 LINE",
"756 519 LINE",
"817 458 LINE",
"817 344 LINE",
"756 283 LINE",
"446 283 LINE",
"385 344 LINE",
"385 458 LINE",
"102 458 LINE",
"102 206 LINE",
"308 0 LINE",
"483 0 LINE",
"483 -130 LINE",
"617 -130 LINE",
"647 -160 LINE",
"617 -192 LINE",
"412 -192 LINE",
"412 -349 LINE"
);
},
{
closed = 1;
nodes = (
"438 -219 LINE",
"627 -219 LINE",
"680 -160 LINE",
"627 -103 LINE",
"510 -103 LINE",
"510 27 LINE",
"319 27 LINE",
"129 217 LINE",
"129 431 LINE",
"358 431 LINE",
"358 333 LINE",
"435 256 LINE",
"767 256 LINE",
"844 333 LINE",
"844 473 LINE",
"767 544 LINE",
"325 635 LINE",
"135 826 LINE",
"135 1183 LINE",
"325 1373 LINE",
"864 1373 LINE",
"1054 1183 LINE",
"1054 969 LINE",
"825 969 LINE",
"825 1067 LINE",
"748 1144 LINE",
"440 1144 LINE",
"364 1067 LINE",
"364 941 LINE",
"440 867 LINE",
"883 777 LINE",
"1073 585 LINE",
"1073 217 LINE",
"883 27 LINE",
"710 27 LINE",
"710 0 LINE",
"710 0 LINE",
"853 -160 LINE",
"710 -322 LINE",
"438 -322 LINE"
);
}
);
width = 1202;
},
{
layerId = "DDC1C77E-A6A2-4CE9-BB8A-1D9C0DC11BA6";
paths = (
{
closed = 1;
nodes = (
"757 -349 LINE",
"920 -160 LINE",
"781 0 LINE",
"924 0 LINE",
"1130 206 LINE",
"1130 596 LINE",
"924 802 LINE",
"482 892 LINE",
"420 953 LINE",
"420 1056 LINE",
"482 1117 LINE",
"767 1117 LINE",
"828 1056 LINE",
"828 942 LINE",
"1111 942 LINE",
"1111 1194 LINE",
"905 1400 LINE",
"344 1400 LINE",
"138 1194 LINE",
"138 815 LINE",
"344 609 LINE",
"786 519 LINE",
"847 458 LINE",
"847 344 LINE",
"786 283 LINE",
"476 283 LINE",
"415 344 LINE",
"415 458 LINE",
"132 458 LINE",
"132 206 LINE",
"338 0 LINE",
"513 0 LINE",
"513 -130 LINE",
"647 -130 LINE",
"677 -160 LINE",
"647 -192 LINE",
"442 -192 LINE",
"442 -349 LINE"
);
},
{
closed = 1;
nodes = (
"468 -219 LINE",
"657 -219 LINE",
"710 -160 LINE",
"657 -103 LINE",
"540 -103 LINE",
"540 27 LINE",
"349 27 LINE",
"159 217 LINE",
"159 431 LINE",
"388 431 LINE",
"388 333 LINE",
"465 256 LINE",
"797 256 LINE",
"874 333 LINE",
"874 473 LINE",
"797 544 LINE",
"355 635 LINE",
"165 826 LINE",
"165 1183 LINE",
"355 1373 LINE",
"894 1373 LINE",
"1084 1183 LINE",
"1084 969 LINE",
"855 969 LINE",
"855 1067 LINE",
"778 1144 LINE",
"470 1144 LINE",
"394 1067 LINE",
"394 941 LINE",
"470 867 LINE",
"913 777 LINE",
"1103 585 LINE",
"1103 217 LINE",
"913 27 LINE",
"740 27 LINE",
"740 0 LINE",
"740 0 LINE",
"883 -160 LINE",
"740 -322 LINE",
"468 -322 LINE"
);
}
);
width = 1262;
},
{
layerId = "0A080BD2-62EB-4516-9B42-F4E1F6E1D6F2";
paths = (
{
closed = 1;
nodes = (
"757 -349 LINE",
"920 -160 LINE",
"781 0 LINE",
"924 0 LINE",
"1130 206 LINE",
"1130 596 LINE",
"924 802 LINE",
"482 892 LINE",
"420 953 LINE",
"420 1056 LINE",
"482 1117 LINE",
"767 1117 LINE",
"828 1056 LINE",
"828 942 LINE",
"1111 942 LINE",
"1111 1194 LINE",
"905 1400 LINE",
"344 1400 LINE",
"138 1194 LINE",
"138 815 LINE",
"344 609 LINE",
"786 519 LINE",
"847 458 LINE",
"847 344 LINE",
"786 283 LINE",
"476 283 LINE",
"415 344 LINE",
"415 458 LINE",
"132 458 LINE",
"132 206 LINE",
"338 0 LINE",
"513 0 LINE",
"513 -130 LINE",
"647 -130 LINE",
"677 -160 LINE",
"647 -192 LINE",
"442 -192 LINE",
"442 -349 LINE"
);
},
{
closed = 1;
nodes = (
"528 -257 LINE",
"697 -257 LINE",
"784 -160 LINE",
"697 -65 LINE",
"600 -65 LINE",
"600 126 LINE",
"399 126 LINE",
"265 260 LINE",
"265 353 LINE",
"293 353 LINE",
"293 268 LINE",
"409 154 LINE",
"842 154 LINE",
"968 278 LINE",
"968 543 LINE",
"862 647 LINE",
"413 737 LINE",
"265 885 LINE",
"265 1128 LINE",
"409 1272 LINE",
"848 1272 LINE",
"982 1138 LINE",
"982 1057 LINE",
"954 1057 LINE",
"954 1130 LINE",
"838 1244 LINE",
"419 1244 LINE",
"293 1120 LINE",
"293 893 LINE",
"421 765 LINE",
"872 675 LINE",
"996 551 LINE",
"996 270 LINE",
"852 126 LINE",
"628 126 LINE",
"628 -38 LINE",
"710 -38 LINE",
"820 -160 LINE",
"710 -284 LINE",
"528 -284 LINE"
);
}
);
width = 1262;
},
{
layerId = "2B3778D7-DDED-4DCC-ADC4-D63709EF26D1";
paths = (
{
closed = 1;
nodes = (
"757 -349 LINE",
"920 -160 LINE",
"781 0 LINE",
"924 0 LINE",
"1130 206 LINE",
"1130 596 LINE",
"924 802 LINE",
"482 892 LINE",
"420 953 LINE",
"420 1056 LINE",
"482 1117 LINE",
"767 1117 LINE",
"828 1056 LINE",
"828 942 LINE",
"1111 942 LINE",
"1111 1194 LINE",
"905 1400 LINE",
"344 1400 LINE",
"138 1194 LINE",
"138 815 LINE",
"344 609 LINE",
"786 519 LINE",
"847 458 LINE",
"847 344 LINE",
"786 283 LINE",
"476 283 LINE",
"415 344 LINE",
"415 458 LINE",
"132 458 LINE",
"132 206 LINE",
"338 0 LINE",
"513 0 LINE",
"513 -130 LINE",
"647 -130 LINE",
"677 -160 LINE",
"647 -192 LINE",
"442 -192 LINE",
"442 -349 LINE"
);
},
{
closed = 1;
nodes = (
"548 -271 LINE",
"710 -271 LINE",
"807 -160 LINE",
"710 -51 LINE",
"615 -51 LINE",
"615 140 LINE",
"399 140 LINE",
"279 260 LINE",
"279 333 LINE",
"279 333 LINE",
"279 260 LINE",
"399 140 LINE",
"852 140 LINE",
"982 270 LINE",
"982 551 LINE",
"872 662 LINE",
"413 750 LINE",
"279 885 LINE",
"279 1128 LINE",
"409 1258 LINE",
"848 1258 LINE",
"968 1138 LINE",
"968 1077 LINE",
"968 1077 LINE",
"968 1138 LINE",
"848 1258 LINE",
"409 1258 LINE",
"279 1128 LINE",
"279 885 LINE",
"413 750 LINE",
"872 662 LINE",
"982 551 LINE",
"982 270 LINE",
"852 140 LINE",
"615 140 LINE",
"615 -51 LINE",
"710 -51 LINE",
"807 -160 LINE",
"710 -271 LINE",
"548 -271 LINE"
);
}
);
width = 1262;
}
);
unicode = 015E;
},
{
color = 6;
glyphname = Schwa;
lastChange = "2021-04-27 15:17:23 +0000";
layers = (
{
layerId = "F883F2BF-97BC-4587-9596-6665658F6F40";
paths = (
{
closed = 1;
nodes = (
"929 0 LINE",
"1135 206 LINE",
"1135 1194 LINE",
"929 1400 LINE",
"120 1400 LINE",
"120 1117 LINE",
"791 1117 LINE",
"852 1056 LINE",
"852 887 LINE",
"312 887 LINE",
"106 681 LINE",
"106 206 LINE",
"312 0 LINE"
);
},
{
closed = 1;
nodes = (
"858 138 LINE",
"996 274 LINE",
"996 746 LINE",
"363 746 LINE",
"257 640 LINE",
"257 264 LINE",
"385 138 LINE"
);
},
{
closed = 1;
nodes = (
"257 264 LINE",
"257 640 LINE",
"363 746 LINE",
"996 746 LINE",
"996 1126 LINE",
"866 1254 LINE",
"245 1254 LINE",
"245 1254 LINE",
"866 1254 LINE",
"996 1126 LINE",
"996 274 LINE",
"858 138 LINE",
"385 138 LINE"
);
},
{
closed = 1;
nodes = (
"388 344 LINE",
"388 572 LINE",
"430 614 LINE",
"852 614 LINE",
"852 344 LINE",
"791 283 LINE",
"450 283 LINE"
);
}
);
width = 1243;
},
{
layerId = "0B87BBC7-D91E-4FE2-8C5B-3F1AF694BBA3";
paths = (
{
closed = 1;
nodes = (
"929 0 LINE",
"1135 206 LINE",
"1135 1194 LINE",
"929 1400 LINE",
"120 1400 LINE",
"120 1117 LINE",
"791 1117 LINE",
"852 1056 LINE",
"852 887 LINE",
"312 887 LINE",
"106 681 LINE",
"106 206 LINE",
"312 0 LINE"
);
},
{
closed = 1;
nodes = (
"853 154 LINE",
"991 290 LINE",
"991 737 LINE",
"379 737 LINE",
"263 621 LINE",
"263 280 LINE",
"391 154 LINE"
);
},
{
closed = 1;
nodes = (
"235 272 LINE",
"235 631 LINE",
"371 765 LINE",
"991 765 LINE",
"991 1118 LINE",
"861 1246 LINE",
"255 1246 LINE",
"255 1274 LINE",
"871 1274 LINE",
"1019 1126 LINE",
"1019 282 LINE",
"863 126 LINE",
"381 126 LINE"
);
},
{
closed = 1;
nodes = (
"388 344 LINE",
"388 572 LINE",
"430 614 LINE",
"852 614 LINE",
"852 344 LINE",
"791 283 LINE",
"450 283 LINE"
);
}
);
width = 1243;
},
{
layerId = "5C9A105A-DAE9-444D-816C-282B7EF25764";
paths = (
{
closed = 1;
nodes = (
"929 0 LINE",
"1135 206 LINE",
"1135 1194 LINE",
"929 1400 LINE",
"120 1400 LINE",
"120 1117 LINE",
"791 1117 LINE",
"852 1056 LINE",
"852 887 LINE",
"312 887 LINE",
"106 681 LINE",
"106 206 LINE",
"312 0 LINE"
);
},
{
closed = 1;
nodes = (
"802 256 LINE",
"879 333 LINE",
"879 642 LINE",
"419 642 LINE",
"361 584 LINE",
"361 333 LINE",
"438 256 LINE"
);
},
{
closed = 1;
nodes = (
"133 217 LINE",
"133 670 LINE",
"323 861 LINE",
"879 861 LINE",
"879 1068 LINE",
"802 1145 LINE",
"148 1145 LINE",
"148 1374 LINE",
"918 1374 LINE",
"1108 1184 LINE",
"1108 217 LINE",
"918 27 LINE",
"323 27 LINE"
);
},
{
closed = 1;
nodes = (
"388 344 LINE",
"388 572 LINE",
"430 614 LINE",
"852 614 LINE",
"852 344 LINE",
"791 283 LINE",
"450 283 LINE"
);
}
);
width = 1243;
},
{
layerId = "DDC1C77E-A6A2-4CE9-BB8A-1D9C0DC11BA6";
paths = (
{
closed = 1;
nodes = (
"959 0 LINE",
"1165 206 LINE",
"1165 1194 LINE",
"959 1400 LINE",
"150 1400 LINE",
"150 1117 LINE",
"821 1117 LINE",
"882 1056 LINE",
"882 887 LINE",
"342 887 LINE",
"136 681 LINE",
"136 206 LINE",
"342 0 LINE"
);
},
{
closed = 1;
nodes = (
"832 256 LINE",
"909 333 LINE",
"909 642 LINE",
"449 642 LINE",
"391 584 LINE",
"391 333 LINE",
"468 256 LINE"
);
},
{
closed = 1;
nodes = (
"163 217 LINE",
"163 670 LINE",
"353 861 LINE",
"909 861 LINE",
"909 1068 LINE",
"832 1145 LINE",
"178 1145 LINE",
"178 1374 LINE",
"948 1374 LINE",
"1138 1184 LINE",
"1138 217 LINE",
"948 27 LINE",
"353 27 LINE"
);
},
{
closed = 1;
nodes = (
"418 344 LINE",
"418 572 LINE",
"460 614 LINE",
"882 614 LINE",
"882 344 LINE",
"821 283 LINE",
"480 283 LINE"
);
}
);
width = 1303;
},
{
layerId = "0A080BD2-62EB-4516-9B42-F4E1F6E1D6F2";
paths = (
{
closed = 1;
nodes = (
"959 0 LINE",
"1165 206 LINE",
"1165 1194 LINE",
"959 1400 LINE",
"150 1400 LINE",
"150 1117 LINE",
"821 1117 LINE",
"882 1056 LINE",
"882 887 LINE",
"342 887 LINE",
"136 681 LINE",
"136 206 LINE",
"342 0 LINE"
);
},
{
closed = 1;
nodes = (
"883 154 LINE",
"1021 290 LINE",
"1021 737 LINE",
"409 737 LINE",
"293 621 LINE",
"293 280 LINE",
"421 154 LINE"
);
},
{
closed = 1;
nodes = (
"265 272 LINE",
"265 631 LINE",
"401 765 LINE",
"1021 765 LINE",
"1021 1118 LINE",
"891 1246 LINE",
"285 1246 LINE",
"285 1274 LINE",
"901 1274 LINE",
"1049 1126 LINE",
"1049 282 LINE",
"893 126 LINE",
"411 126 LINE"
);
},
{
closed = 1;
nodes = (
"418 344 LINE",
"418 572 LINE",
"460 614 LINE",
"882 614 LINE",
"882 344 LINE",
"821 283 LINE",
"480 283 LINE"
);
}
);
width = 1303;
},
{
layerId = "2B3778D7-DDED-4DCC-ADC4-D63709EF26D1";
paths = (
{
closed = 1;
nodes = (
"959 0 LINE",
"1165 206 LINE",
"1165 1194 LINE",
"959 1400 LINE",
"150 1400 LINE",
"150 1117 LINE",
"821 1117 LINE",
"882 1056 LINE",
"882 887 LINE",
"342 887 LINE",
"136 681 LINE",
"136 206 LINE",
"342 0 LINE"
);
},
{
closed = 1;
nodes = (
"888 138 LINE",
"1026 274 LINE",
"1026 746 LINE",
"393 746 LINE",
"287 640 LINE",
"287 264 LINE",
"415 138 LINE"
);
},
{
closed = 1;
nodes = (
"287 264 LINE",
"287 640 LINE",
"393 746 LINE",
"1026 746 LINE",
"1026 1126 LINE",
"896 1254 LINE",
"275 1254 LINE",
"275 1254 LINE",
"896 1254 LINE",
"1026 1126 LINE",
"1026 274 LINE",
"888 138 LINE",
"415 138 LINE"
);
},
{
closed = 1;
nodes = (
"418 344 LINE",
"418 572 LINE",
"460 614 LINE",
"882 614 LINE",
"882 344 LINE",
"821 283 LINE",
"480 283 LINE"
);
}
);
width = 1303;
}
);
unicode = 018F;
},
